{
.appVersion = "3134";
.formatVersion = 3;
DisplayStrings = (
"Aa Bb Cc Dd Ee Ff Gg Hh Ii Jj Kk Ll Mm Nn Oo Pp Qq Rr Ss Tt Uu Vv Ww Xx Yy Zz
!@&?.
1234567890

Amoeba
Grotesk

For one thing, time is the very thing that we are least willing to allow.

The shining
Positive &
Negative
Pros&Cons"
);
customParameters = (
{
name = vendorID;
value = AMMP;
},
{
name = panose;
value = (
0,
0,
10,
0,
0,
0,
0,
0,
0,
0
);
},
{
name = unicodeRanges;
value = (
0,
1,
2,
29
);
},
{
name = codePageRanges;
value = (
"1252",
"1250",
"1254",
"1257",
"1258",
"bit 29"
);
},
{
name = blueScale;
value = 0.037;
},
{
name = glyphOrder;
value = (
.notdef,
space,
A,
Aacute,
Abreve,
uni1EAE,
uni1EB6,
uni1EB0,
uni1EB2,
uni1EB4,
uni01CD,
Acircumflex,
uni1EA4,
uni1EAC,
uni1EA6,
uni1EA8,
uni1EAA,
Adieresis,
uni1EA0,
Agrave,
uni1EA2,
Amacron,
Aogonek,
Aring,
Atilde,
AE,
B,
C,
Cacute,
Ccaron,
Ccedilla,
Cdotaccent,
D,
Eth,
Dcaron,
Dcroat,
E,
Eacute,
Ecaron,
Ecircumflex,
uni1EBE,
uni1EC6,
uni1EC0,
uni1EC2,
uni1EC4,
Edieresis,
Edotaccent,
uni1EB8,
Egrave,
uni1EBA,
Emacron,
Eogonek,
uni1EBC,
F,
G,
Gbreve,
uni0122,
Gdotaccent,
H,
Hbar,
I,
Iacute,
uni01CF,
Icircumflex,
Idieresis,
Idotaccent,
uni1ECA,
Igrave,
uni1EC8,
Imacron,
Iogonek,
Itilde,
J,
K,
uni0136,
L,
Lacute,
Lcaron,
uni013B,
Lslash,
M,
N,
Nacute,
Ncaron,
uni0145,
Eng,
Ntilde,
O,
Oacute,
uni01D1,
Ocircumflex,
uni1ED0,
uni1ED8,
uni1ED2,
uni1ED4,
uni1ED6,
Odieresis,
uni1ECC,
Ograve,
uni1ECE,
Ohorn,
uni1EDA,
uni1EE2,
uni1EDC,
uni1EDE,
uni1EE0,
Ohungarumlaut,
Omacron,
Oslash,
Otilde,
OE,
P,
Thorn,
Q,
R,
Racute,
Rcaron,
uni0156,
S,
Sacute,
Scaron,
Scedilla,
uni0218,
uni1E9E,
T,
Tbar,
Tcaron,
uni0162,
uni021A,
U,
Uacute,
uni01D3,
Ucircumflex,
Udieresis,
uni01D7,
uni01D9,
uni01DB,
uni01D5,
uni1EE4,
Ugrave,
uni1EE6,
Uhorn,
uni1EE8,
uni1EF0,
uni1EEA,
uni1EEC,
uni1EEE,
Uhungarumlaut,
Umacron,
Uogonek,
Uring,
Utilde,
V,
W,
Wacute,
Wcircumflex,
Wdieresis,
Wgrave,
X,
Y,
Yacute,
Ycircumflex,
Ydieresis,
uni1EF4,
Ygrave,
uni1EF6,
uni1EF8,
Z,
Zacute,
Zcaron,

glyphs = (
{
glyphname = .notdef;
layers = (
{
hints = (
{
horizontal = 1;
place = (0, 51);
place = (0, 51);
type = Stem;
},
{
horizontal = 1;
place = (420, 51);
place = (420, 51);
type = Stem;
},
{
place = (79, 50);
place = (79, 50);
type = Stem;
},
{
place = (432, 51);
place = (432, 51);
type = Stem;
}
);
layerId = m01;
shapes = (
{
closed = 1;
nodes = (
(79,0,l),
(483,0,l),
(483,471,l),
(79,471,l)
);
},
{
closed = 1;
nodes = (
(129,51,l),
(129,420,l),
(432,420,l),
(432,51,l)
);
}
);
width = 562;
}
);
note = ".notdef";
},
{
glyphname = A;
kernLeft = A;
kernRight = A;
lastChange = "2022-12-23 05:17:23 +0000";
layers = (
{
hints = (
{
horizontal = 1;
place = (0, 21);
target = up;
type = BottomGhost;
},
{
horizontal = 1;
place = (118, 144);
place = (118, 144);
type = Stem;
},
{
horizontal = 1;
place = (697, -20);
target = down;
type = TopGhost;
},
{
place = (-15, 694);
place = (-15, 694);
type = Stem;
}
);
layerId = m01;
shapes = (
{
closed = 1;
nodes = (
(391,697,o),
(330,697,qs),
(275,697,l),
(-15,0,l),
(156,0,l),
(201,118,l),
(463,118,l),
(508,0,l),
(679,0,l),
(413,642,ls)
);
},
{
closed = 1;
nodes = (
(333,463,l),
(409,262,l),
(256,262,l)
);
}
);
width = 664;
}
);
note = A;
unicode = 65;
},
{
glyphname = Aacute;
kernLeft = A;
kernRight = A;
layers = (
{
hints = (
{
horizontal = 1;
place = (0, 21);
target = up;
type = BottomGhost;
},
{
horizontal = 1;
place = (118, 144);
place = (118, 144);
type = Stem;
},
{
horizontal = 1;
place = (697, -20);
target = down;
type = TopGhost;
},
{
horizontal = 1;
place = (758, 143);
place = (758, 143);
type = Stem;
},
{
place = (-15, 694);
place = (-15, 694);
type = Stem;
}
);
layerId = m01;
shapes = (
{
closed = 1;
nodes = (
(553,901,l),
(391,901,l),
(278,758,l),
(387,758,l)
);
},
{
closed = 1;
nodes = (
(508,0,l),
(679,0,l),
(390,697,l),
(275,697,l),
(-15,0,l),
(156,0,l),
(201,118,l),
(463,118,l)
);
},
{
closed = 1;
nodes = (
(256,262,l),
(333,463,l),
(409,262,l)
);
}
);
width = 664;
}
);
note = Aacute;
unicode = 193;
},
{
glyphname = Abreve;
kernLeft = A;
kernRight = A;
layers = (
{
hints = (
{
horizontal = 1;
place = (0, 21);
target = up;
type = BottomGhost;
},
{
horizontal = 1;
place = (118, 144);
place = (118, 144);
type = Stem;
},
{
horizontal = 1;
place = (697, -20);
target = down;
type = TopGhost;
},
{
horizontal = 1;
place = (767, 134);
place = (767, 134);
type = Stem;
},
{
place = (174, 106);
place = (174, 106);
type = Stem;
},
{
place = (386, 106);
place = (386, 106);
type = Stem;
},
{
horizontal = 1;
place = (767, 87);
place = (767, 87);
type = Stem;
}
);
layerId = m01;
shapes = (
{
closed = 1;
nodes = (
(439,767,o),
(492,809,o),
(492,901,c),
(386,901,l),
(386,870,o),
(361,854,o),
(333,854,cs),
(307,854,o),
(280,868,o),
(280,901,c),
(174,901,l),
(174,815,o),
(221,767,o),
(333,767,cs)
);
},
{
closed = 1;
nodes = (
(508,0,l),
(679,0,l),
(390,697,l),
(275,697,l),
(-15,0,l),
(156,0,l),
(201,118,l),
(463,118,l)
);
},
{
closed = 1;
nodes = (
(256,262,l),
(333,463,l),
(409,262,l)
);
}
);
width = 664;
}
);
note = Abreve;
unicode = 258;
},
{
glyphname = uni1EAE;
kernLeft = A;
kernRight = A;
layers = (
{
hints = (
{
horizontal = 1;
place = (0, 21);
target = up;
type = BottomGhost;
},
{
horizontal = 1;
place = (118, 144);
place = (118, 144);
type = Stem;
},
{
horizontal = 1;
place = (697, -20);
target = down;
type = TopGhost;
},
{
horizontal = 1;
place = (767, 134);
place = (767, 134);
type = Stem;
},
{
horizontal = 1;
place = (962, 143);
place = (962, 143);
type = Stem;
},
{
place = (174, 106);
place = (174, 106);
type = Stem;
},
{
place = (386, 106);
place = (386, 106);
type = Stem;
},
{
horizontal = 1;
place = (767, 87);
place = (767, 87);
type = Stem;
}
);
layerId = m01;
shapes = (
{
closed = 1;
nodes = (
(553,1105,l),
(391,1105,l),
(278,962,l),
(387,962,l)
);
},
{
closed = 1;
nodes = (
(439,767,o),
(492,809,o),
(492,901,c),
(386,901,l),
(386,870,o),
(361,854,o),
(333,854,cs),
(307,854,o),
(280,868,o),
(280,901,c),
(174,901,l),
(174,815,o),
(221,767,o),
(333,767,cs)
);
},
{
closed = 1;
nodes = (
(508,0,l),
(679,0,l),
(390,697,l),
(275,697,l),
(-15,0,l),
(156,0,l),
(201,118,l),
(463,118,l)
);
},
{
closed = 1;
nodes = (
(256,262,l),
(333,463,l),
(409,262,l)
);
}
);
width = 664;
}
);
note = uni1EAE;
unicode = 7854;
},
{
glyphname = uni1EB6;
kernLeft = A;
kernRight = A;
layers = (
{
hints = (
{
horizontal = 1;
place = (-173, 117);
place = (-173, 117);
type = Stem;
},
{
horizontal = 1;
place = (0, 21);
target = up;
type = BottomGhost;
},
{
horizontal = 1;
place = (118, 144);
place = (118, 144);
type = Stem;
},
{
horizontal = 1;
place = (697, -20);
target = down;
type = TopGhost;
},
{
horizontal = 1;
place = (767, 134);
place = (767, 134);
type = Stem;
},
{
place = (174, 106);
place = (174, 106);
type = Stem;
},
{
place = (386, 106);
place = (386, 106);
type = Stem;
},
{
horizontal = 1;
place = (767, 87);
place = (767, 87);
type = Stem;
},
{
place = (256, 154);
place = (256, 154);
type = Stem;
}
);
layerId = m01;
shapes = (
{
closed = 1;
nodes = (
(439,767,o),
(492,809,o),
(492,901,c),
(386,901,l),
(386,870,o),
(361,854,o),
(333,854,cs),
(307,854,o),
(280,868,o),
(280,901,c),
(174,901,l),
(174,815,o),
(221,767,o),
(333,767,cs)
);
},
{
closed = 1;
nodes = (
(679,0,l),
(390,697,l),
(275,697,l),
(-15,0,l),
(156,0,l),
(201,118,l),
(463,118,l),
(508,0,l)
);
},
{
closed = 1;
nodes = (
(256,262,l),
(333,463,l),
(409,262,l)
);
},
{
closed = 1;
nodes = (
(256,-173,l),
(410,-173,l),
(410,-56,l),
(256,-56,l)
);
}
);
width = 664;
}
);
note = uni1EB6;
unicode = 7862;
},
{
glyphname = uni1EB0;
kernLeft = A;
kernRight = A;
layers = (
{
hints = (
{
horizontal = 1;
place = (0, 21);
target = up;
type = BottomGhost;
},
{
horizontal = 1;
place = (118, 144);
place = (118, 144);
type = Stem;
},
{
horizontal = 1;
place = (697, -20);
target = down;
type = TopGhost;
},
{
horizontal = 1;
place = (767, 134);
place = (767, 134);
type = Stem;
},
{
horizontal = 1;
place = (962, 143);
place = (962, 143);
type = Stem;
},
{
place = (174, 106);
place = (174, 106);
type = Stem;
},
{
place = (386, 106);
place = (386, 106);
type = Stem;
},
{
horizontal = 1;
place = (767, 87);
place = (767, 87);
type = Stem;
}
);
layerId = m01;
shapes = (
{
closed = 1;
nodes = (
(388,962,l),
(284,1105,l),
(124,1105,l),
(277,962,l)
);
},
{
closed = 1;
nodes = (
(307,854,o),
(280,868,o),
(280,901,c),
(174,901,l),
(174,815,o),
(221,767,o),
(333,767,cs),
(439,767,o),
(492,809,o),
(492,901,c),
(386,901,l),
(386,870,o),
(361,854,o),
(333,854,cs)
);
},
{
closed = 1;
nodes = (
(508,0,l),
(679,0,l),
(390,697,l),
(275,697,l),
(-15,0,l),
(156,0,l),
(201,118,l),
(463,118,l)
);
},
{
closed = 1;
nodes = (
(256,262,l),
(333,463,l),
(409,262,l)
);
}
);
width = 664;
}
);
note = uni1EB0;
unicode = 7856;
},
{
glyphname = uni1EB2;
kernLeft = A;
kernRight = A;
layers = (
{
hints = (
{
horizontal = 1;
place = (0, 21);
target = up;
type = BottomGhost;
},
{
horizontal = 1;
place = (118, 144);
place = (118, 144);
type = Stem;
},
{
horizontal = 1;
place = (697, -20);
target = down;
type = TopGhost;
},
{
horizontal = 1;
place = (767, 134);
place = (767, 134);
type = Stem;
},
{
horizontal = 1;
place = (918, 61);
place = (918, 61);
type = Stem;
},
{
horizontal = 1;
place = (1034, 92);
place = (1034, 92);
type = Stem;
},
{
place = (174, 106);
place = (174, 106);
type = Stem;
},
{
place = (344, 105);
place = (344, 105);
type = Stem;
},
{
place = (386, 106);
place = (386, 106);
type = Stem;
},
{
horizontal = 1;
place = (767, 87);
place = (767, 87);
type = Stem;
}
);
layerId = m01;
shapes = (
{
closed = 1;
nodes = (
(344,984,o),
(317,983,o),
(289,979,c),
(306,918,l),
(364,926,o),
(449,940,o),
(449,1019,cs),
(449,1088,o),
(379,1126,o),
(273,1126,cs),
(257,1126,l),
(257,1034,l),
(273,1034,ls),
(310,1034,o),
(344,1034,o),
(344,1008,cs)
);
},
{
closed = 1;
nodes = (
(439,767,o),
(492,809,o),
(492,901,c),
(386,901,l),
(386,870,o),
(361,854,o),
(333,854,cs),
(307,854,o),
(280,868,o),
(280,901,c),
(174,901,l),
(174,815,o),
(221,767,o),
(333,767,cs)
);
},
{
closed = 1;
nodes = (
(508,0,l),
(679,0,l),
(390,697,l),
(275,697,l),
(-15,0,l),
(156,0,l),
(201,118,l),
(463,118,l)
);
},
{
closed = 1;
nodes = (
(256,262,l),
(333,463,l),
(409,262,l)
);
}
);
width = 664;
}
);
note = uni1EB2;
unicode = 7858;
},
{
glyphname = uni1EB4;
kernLeft = A;
kernRight = A;
layers = (
{
hints = (
{
horizontal = 1;
place = (0, 21);
target = up;
type = BottomGhost;
},
{
horizontal = 1;
place = (118, 144);
place = (118, 144);
type = Stem;
},
{
horizontal = 1;
place = (697, -20);
target = down;
type = TopGhost;
},
{
horizontal = 1;
place = (767, 134);
place = (767, 134);
type = Stem;
},
{
horizontal = 1;
place = (1015, 92);
place = (1015, 92);
type = Stem;
},
{
place = (161, 86);
place = (161, 86);
type = Stem;
},
{
place = (414, 90);
place = (414, 90);
type = Stem;
},
{
horizontal = 1;
place = (956, 149);
place = (956, 149);
type = Stem;
},
{
horizontal = 1;
place = (956, 91);
place = (956, 91);
type = Stem;
},
{
horizontal = 1;
place = (955, 152);
place = (955, 152);
type = Stem;
},
{
horizontal = 1;
place = (767, 87);
place = (767, 87);
type = Stem;
},
{
place = (174, 106);
place = (174, 106);
type = Stem;
},
{
place = (386, 106);
place = (386, 106);
type = Stem;
}
);
layerId = m01;
shapes = (
{
closed = 1;
nodes = (
(295,1015,o),
(317,956,o),
(392,956,cs),
(461,956,o),
(504,1007,o),
(504,1105,c),
(414,1105,l),
(414,1066,o),
(405,1047,o),
(394,1047,cs),
(370,1047,o),
(340,1107,o),
(275,1107,cs),
(205,1107,o),
(161,1052,o),
(161,955,c),
(247,955,l),
(247,995,o),
(255,1015,o),
(268,1015,cs)
);
},
{
closed = 1;
nodes = (
(307,854,o),
(280,868,o),
(280,901,c),
(174,901,l),
(174,815,o),
(221,767,o),
(333,767,cs),
(439,767,o),
(492,809,o),
(492,901,c),
(386,901,l),
(386,870,o),
(361,854,o),
(333,854,cs)
);
},
{
closed = 1;
nodes = (
(508,0,l),
(679,0,l),
(390,697,l),
(275,697,l),
(-15,0,l),
(156,0,l),
(201,118,l),
(463,118,l)
);
},
{
closed = 1;
nodes = (
(256,262,l),
(333,463,l),
(409,262,l)
);
}
);
width = 664;
}
);
note = uni1EB4;
unicode = 7860;
},
{
glyphname = uni01CD;
kernLeft = A;
kernRight = A;
layers = (
{
hints = (
{
horizontal = 1;
place = (0, 21);
target = up;
type = BottomGhost;
},
{
horizontal = 1;
place = (118, 144);
place = (118, 144);
type = Stem;
},
{
horizontal = 1;
place = (697, -20);
target = down;
type = TopGhost;
},
{
place = (-15, 694);
place = (-15, 694);
type = Stem;
}
);
layerId = m01;
shapes = (
{
closed = 1;
nodes = (
(493,901,l),
(379,901,l),
(333,851,l),
(288,901,l),
(173,901,l),
(333,730,l)
);
},
{
closed = 1;
nodes = (
(508,0,l),
(679,0,l),
(390,697,l),
(275,697,l),
(-15,0,l),
(156,0,l),
(201,118,l),
(463,118,l)
);
},
{
closed = 1;
nodes = (
(256,262,l),
(333,463,l),
(409,262,l)
);
}
);
width = 664;
}
);
note = uni01CD;
unicode = 461;
},
{
glyphname = Acircumflex;
kernLeft = A;
kernRight = A;
layers = (
{
hints = (
{
horizontal = 1;
place = (0, 21);
target = up;
type = BottomGhost;
},
{
horizontal = 1;
place = (118, 144);
place = (118, 144);
type = Stem;
},
{
horizontal = 1;
place = (697, -20);
target = down;
type = TopGhost;
},
{
place = (-15, 694);
place = (-15, 694);
type = Stem;
}
);
layerId = m01;
shapes = (
{
closed = 1;
nodes = (
(333,797,l),
(379,741,l),
(493,741,l),
(333,924,l),
(173,741,l),
(287,741,l)
);
},
{
closed = 1;
nodes = (
(508,0,l),
(679,0,l),
(390,697,l),
(275,697,l),
(-15,0,l),
(156,0,l),
(201,118,l),
(463,118,l)
);
},
{
closed = 1;
nodes = (
(256,262,l),
(333,463,l),
(409,262,l)
);
}
);
width = 664;
}
);
note = Acircumflex;
unicode = 194;
},
{
glyphname = uni1EA4;
kernLeft = A;
kernRight = A;
layers = (
{
hints = (
{
horizontal = 1;
place = (0, 21);
target = up;
type = BottomGhost;
},
{
horizontal = 1;
place = (118, 144);
place = (118, 144);
type = Stem;
},
{
horizontal = 1;
place = (697, -20);
target = down;
type = TopGhost;
},
{
horizontal = 1;
place = (945, 143);
place = (945, 143);
type = Stem;
},
{
place = (-15, 694);
place = (-15, 694);
type = Stem;
}
);
layerId = m01;
shapes = (
{
closed = 1;
nodes = (
(553,1088,l),
(391,1088,l),
(278,945,l),
(387,945,l)
);
},
{
closed = 1;
nodes = (
(333,797,l),
(379,741,l),
(493,741,l),
(333,924,l),
(173,741,l),
(287,741,l)
);
},
{
closed = 1;
nodes = (
(508,0,l),
(679,0,l),
(390,697,l),
(275,697,l),
(-15,0,l),
(156,0,l),
(201,118,l),
(463,118,l)
);
},
{
closed = 1;
nodes = (
(256,262,l),
(333,463,l),
(409,262,l)
);
}
);
width = 664;
}
);
note = uni1EA4;
unicode = 7844;
},
{
glyphname = uni1EAC;
kernLeft = A;
kernRight = A;
layers = (
{
hints = (
{
horizontal = 1;
place = (-173, 117);
place = (-173, 117);
type = Stem;
},
{
horizontal = 1;
place = (0, 21);
target = up;
type = BottomGhost;
},
{
horizontal = 1;
place = (118, 144);
place = (118, 144);
type = Stem;
},
{
horizontal = 1;
place = (697, -20);
target = down;
type = TopGhost;
},
{
place = (256, 154);
place = (256, 154);
type = Stem;
}
);
layerId = m01;
shapes = (
{
closed = 1;
nodes = (
(333,797,l),
(379,741,l),
(493,741,l),
(333,924,l),
(173,741,l),
(287,741,l)
);
},
{
closed = 1;
nodes = (
(679,0,l),
(390,697,l),
(275,697,l),
(-15,0,l),
(156,0,l),
(201,118,l),
(463,118,l),
(508,0,l)
);
},
{
closed = 1;
nodes = (
(256,262,l),
(333,463,l),
(409,262,l)
);
},
{
closed = 1;
nodes = (
(256,-173,l),
(410,-173,l),
(410,-56,l),
(256,-56,l)
);
}
);
width = 664;
}
);
note = uni1EAC;
unicode = 7852;
},
{
glyphname = uni1EA6;
kernLeft = A;
kernRight = A;
layers = (
{
hints = (
{
horizontal = 1;
place = (0, 21);
target = up;
type = BottomGhost;
},
{
horizontal = 1;
place = (118, 144);
place = (118, 144);
type = Stem;
},
{
horizontal = 1;
place = (697, -20);
target = down;
type = TopGhost;
},
{
horizontal = 1;
place = (945, 143);
place = (945, 143);
type = Stem;
},
{
place = (-15, 694);
place = (-15, 694);
type = Stem;
}
);
layerId = m01;
shapes = (
{
closed = 1;
nodes = (
(388,945,l),
(284,1088,l),
(124,1088,l),
(277,945,l)
);
},
{
closed = 1;
nodes = (
(173,741,l),
(287,741,l),
(333,797,l),
(379,741,l),
(493,741,l),
(333,924,l)
);
},
{
closed = 1;
nodes = (
(508,0,l),
(679,0,l),
(390,697,l),
(275,697,l),
(-15,0,l),
(156,0,l),
(201,118,l),
(463,118,l)
);
},
{
closed = 1;
nodes = (
(256,262,l),
(333,463,l),
(409,262,l)
);
}
);
width = 664;
}
);
note = uni1EA6;
unicode = 7846;
},
{
glyphname = uni1EA8;
kernLeft = A;
kernRight = A;
layers = (
{
hints = (
{
horizontal = 1;
place = (0, 21);
target = up;
type = BottomGhost;
},
{
horizontal = 1;
place = (118, 144);
place = (118, 144);
type = Stem;
},
{
horizontal = 1;
place = (697, -20);
target = down;
type = TopGhost;
},
{
horizontal = 1;
place = (741, 221);
place = (741, 221);
type = Stem;
},
{
horizontal = 1;
place = (1017, 92);
place = (1017, 92);
type = Stem;
},
{
place = (344, 105);
place = (344, 105);
type = Stem;
},
{
horizontal = 1;
place = (901.5, 60.5);
place = (901.5, 60.5);
type = Stem;
}
);
layerId = m01;
shapes = (
{
closed = 1;
nodes = (
(287,741,l),
(333,797,l),
(379,741,l),
(493,741,l),
(347,908,l),
(397,918,o),
(449,940,o),
(449,1002,cs),
(449,1071,o),
(379,1109,o),
(273,1109,cs),
(257,1109,l),
(257,1017,l),
(273,1017,ls),
(310,1017,o),
(344,1017,o),
(344,991,cs),
(344,967,o),
(317,966,o),
(289,962,c),
(306,901,l),
(309,901,o),
(311,902,o),
(314,902,c),
(173,741,l)
);
},
{
closed = 1;
nodes = (
(508,0,l),
(679,0,l),
(390,697,l),
(275,697,l),
(-15,0,l),
(156,0,l),
(201,118,l),
(463,118,l)
);
},
{
closed = 1;
nodes = (
(256,262,l),
(333,463,l),
(409,262,l)
);
}
);
width = 664;
}
);
note = uni1EA8;
unicode = 7848;
},
{
glyphname = uni1EAA;
kernLeft = A;
kernRight = A;
layers = (
{
hints = (
{
horizontal = 1;
place = (0, 21);
target = up;
type = BottomGhost;
},
{
horizontal = 1;
place = (118, 144);
place = (118, 144);
type = Stem;
},
{
horizontal = 1;
place = (697, -20);
target = down;
type = TopGhost;
},
{
horizontal = 1;
place = (998, 92);
place = (998, 92);
type = Stem;
},
{
place = (161, 86);
place = (161, 86);
type = Stem;
},
{
place = (414, 90);
place = (414, 90);
type = Stem;
},
{
horizontal = 1;
place = (939, 149);
place = (939, 149);
type = Stem;
},
{
horizontal = 1;
place = (939, 91);
place = (939, 91);
type = Stem;
},
{
horizontal = 1;
place = (938, 152);
place = (938, 152);
type = Stem;
}
);
layerId = m01;
shapes = (
{
closed = 1;
nodes = (
(295,998,o),
(317,939,o),
(392,939,cs),
(461,939,o),
(504,990,o),
(504,1088,c),
(414,1088,l),
(414,1049,o),
(405,1030,o),
(394,1030,cs),
(370,1030,o),
(340,1090,o),
(275,1090,cs),
(205,1090,o),
(161,1035,o),
(161,938,c),
(247,938,l),
(247,978,o),
(255,998,o),
(268,998,cs)
);
},
{
closed = 1;
nodes = (
(173,741,l),
(287,741,l),
(333,797,l),
(379,741,l),
(493,741,l),
(333,924,l)
);
},
{
closed = 1;
nodes = (
(508,0,l),
(679,0,l),
(390,697,l),
(275,697,l),
(-15,0,l),
(156,0,l),
(201,118,l),
(463,118,l)
);
},
{
closed = 1;
nodes = (
(256,262,l),
(333,463,l),
(409,262,l)
);
}
);
width = 664;
}
);
note = uni1EAA;
unicode = 7850;
},
{
glyphname = Adieresis;
kernLeft = A;
kernRight = A;
layers = (
{
hints = (
{
horizontal = 1;
place = (0, 21);
target = up;
type = BottomGhost;
},
{
horizontal = 1;
place = (118, 144);
place = (118, 144);
type = Stem;
},
{
horizontal = 1;
place = (697, -20);
target = down;
type = TopGhost;
},
{
horizontal = 1;
place = (765, 136);
place = (765, 136);
type = Stem;
},
{
place = (174, 114);
place = (174, 114);
type = Stem;
},
{
place = (378, 114);
place = (378, 114);
type = Stem;
}
);
layerId = m01;
shapes = (
{
closed = 1;
nodes = (
(288,901,l),
(174,901,l),
(174,765,l),
(288,765,l)
);
},
{
closed = 1;
nodes = (
(492,901,l),
(378,901,l),
(378,765,l),
(492,765,l)
);
},
{
closed = 1;
nodes = (
(508,0,l),
(679,0,l),
(390,697,l),
(275,697,l),
(-15,0,l),
(156,0,l),
(201,118,l),
(463,118,l)
);
},
{
closed = 1;
nodes = (
(256,262,l),
(333,463,l),
(409,262,l)
);
}
);
width = 664;
}
);
note = Adieresis;
unicode = 196;
},
{
glyphname = uni1EA0;
kernLeft = A;
kernRight = A;
layers = (
{
hints = (
{
horizontal = 1;
place = (-173, 117);
place = (-173, 117);
type = Stem;
},
{
horizontal = 1;
place = (0, 21);
target = up;
type = BottomGhost;
},
{
horizontal = 1;
place = (118, 144);
place = (118, 144);
type = Stem;
},
{
horizontal = 1;
place = (697, -20);
target = down;
type = TopGhost;
},
{
place = (256, 154);
place = (256, 154);
type = Stem;
}
);
layerId = m01;
shapes = (
{
closed = 1;
nodes = (
(679,0,l),
(390,697,l),
(275,697,l),
(-15,0,l),
(156,0,l),
(201,118,l),
(463,118,l),
(508,0,l)
);
},
{
closed = 1;
nodes = (
(256,262,l),
(333,463,l),
(409,262,l)
);
},
{
closed = 1;
nodes = (
(256,-173,l),
(410,-173,l),
(410,-56,l),
(256,-56,l)
);
}
);
width = 664;
}
);
note = uni1EA0;
unicode = 7840;
},
{
glyphname = Agrave;
kernLeft = A;
kernRight = A;
layers = (
{
hints = (
{
horizontal = 1;
place = (0, 21);
target = up;
type = BottomGhost;
},
{
horizontal = 1;
place = (118, 144);
place = (118, 144);
type = Stem;
},
{
horizontal = 1;
place = (697, -20);
target = down;
type = TopGhost;
},
{
horizontal = 1;
place = (758, 143);
place = (758, 143);
type = Stem;
},
{
place = (-15, 694);
place = (-15, 694);
type = Stem;
}
);
layerId = m01;
shapes = (
{
closed = 1;
nodes = (
(388,758,l),
(284,901,l),
(124,901,l),
(277,758,l)
);
},
{
closed = 1;
nodes = (
(508,0,l),
(679,0,l),
(390,697,l),
(275,697,l),
(-15,0,l),
(156,0,l),
(201,118,l),
(463,118,l)
);
},
{
closed = 1;
nodes = (
(256,262,l),
(333,463,l),
(409,262,l)
);
}
);
width = 664;
}
);
note = Agrave;
unicode = 192;
},
{
glyphname = uni1EA2;
kernLeft = A;
kernRight = A;
layers = (
{
hints = (
{
horizontal = 1;
place = (0, 21);
target = up;
type = BottomGhost;
},
{
horizontal = 1;
place = (118, 144);
place = (118, 144);
type = Stem;
},
{
horizontal = 1;
place = (697, -20);
target = down;
type = TopGhost;
},
{
horizontal = 1;
place = (714, 61);
place = (714, 61);
type = Stem;
},
{
horizontal = 1;
place = (830, 92);
place = (830, 92);
type = Stem;
},
{
place = (344, 105);
place = (344, 105);
type = Stem;
}
);
layerId = m01;
shapes = (
{
closed = 1;
nodes = (
(344,780,o),
(317,779,o),
(289,775,c),
(306,714,l),
(364,722,o),
(449,736,o),
(449,815,cs),
(449,884,o),
(379,922,o),
(273,922,cs),
(257,922,l),
(257,830,l),
(273,830,ls),
(310,830,o),
(344,830,o),
(344,804,cs)
);
},
{
closed = 1;
nodes = (
(508,0,l),
(679,0,l),
(390,697,l),
(275,697,l),
(-15,0,l),
(156,0,l),
(201,118,l),
(463,118,l)
);
},
{
closed = 1;
nodes = (
(256,262,l),
(333,463,l),
(409,262,l)
);
}
);
width = 664;
}
);
note = uni1EA2;
unicode = 7842;
},
{
glyphname = Amacron;
kernLeft = A;
kernRight = A;
layers = (
{
hints = (
{
horizontal = 1;
place = (0, 21);
target = up;
type = BottomGhost;
},
{
horizontal = 1;
place = (118, 144);
place = (118, 144);
type = Stem;
},
{
horizontal = 1;
place = (697, -20);
target = down;
type = TopGhost;
},
{
horizontal = 1;
place = (750, 87);
place = (750, 87);
type = Stem;
},
{
place = (194, 278);
place = (194, 278);
type = Stem;
}
);
layerId = m01;
shapes = (
{
closed = 1;
nodes = (
(472,837,l),
(194,837,l),
(194,750,l),
(472,750,l)
);
},
{
closed = 1;
nodes = (
(508,0,l),
(679,0,l),
(390,697,l),
(275,697,l),
(-15,0,l),
(156,0,l),
(201,118,l),
(463,118,l)
);
},
{
closed = 1;
nodes = (
(256,262,l),
(333,463,l),
(409,262,l)
);
}
);
width = 664;
}
);
note = Amacron;
unicode = 256;
},
{
glyphname = Aogonek;
kernLeft = A;
kernRight = A;
layers = (
{
hints = (
{
horizontal = 1;
place = (-227, 92);
place = (-227, 92);
type = Stem;
},
{
horizontal = 1;
place = (0, 21);
target = up;
type = BottomGhost;
},
{
horizontal = 1;
place = (118, 144);
place = (118, 144);
type = Stem;
},
{
horizontal = 1;
place = (697, -20);
target = down;
type = TopGhost;
},
{
place = (485, 89);
place = (485, 89);
type = Stem;
}
);
layerId = m01;
shapes = (
{
closed = 1;
nodes = (
(649,-107,l),
(640,-124,o),
(627,-135,o),
(606,-135,cs),
(589,-135,o),
(574,-128,o),
(574,-100,cs),
(574,-46,o),
(660,-5,o),
(679,0,c),
(390,697,l),
(275,697,l),
(-15,0,l),
(156,0,l),
(201,118,l),
(463,118,l),
(508,0,l),
(561,0,l),
(535,-14,o),
(485,-49,o),
(485,-116,cs),
(485,-182,o),
(538,-227,o),
(610,-227,cs),
(670,-227,o),
(704,-195,o),
(727,-158,c)
);
},
{
closed = 1;
nodes = (
(256,262,l),
(333,463,l),
(409,262,l)
);
}
);
width = 664;
}
);
note = Aogonek;
unicode = 260;
},
{
glyphname = Aring;
kernLeft = A;
kernRight = A;
layers = (
{
hints = (
{
horizontal = 1;
place = (0, 21);
target = up;
type = BottomGhost;
},
{
horizontal = 1;
place = (118, 144);
place = (118, 144);
type = Stem;
},
{
horizontal = 1;
place = (842, 80);
place = (842, 80);
type = Stem;
},
{
place = (209, 81);
place = (209, 81);
type = Stem;
},
{
place = (377, 80);
place = (377, 80);
type = Stem;
}
);
layerId = m01;
shapes = (
{
closed = 1;
nodes = (
(508,0,l),
(679,0,l),
(393,690,l),
(431,711,o),
(457,751,o),
(457,798,cs),
(457,868,o),
(399,922,o),
(333,922,cs),
(264,922,o),
(209,866,o),
(209,798,cs),
(209,754,o),
(234,712,o),
(272,690,c),
(-15,0,l),
(156,0,l),
(201,118,l),
(463,118,l)
);
},
{
closed = 1;
nodes = (
(362,842,o),
(377,825,o),
(377,800,cs),
(377,773,o),
(360,754,o),
(333,754,cs),
(308,754,o),
(290,773,o),
(290,800,cs),
(290,824,o),
(305,842,o),
(333,842,cs)
);
},
{
closed = 1;
nodes = (
(256,262,l),
(333,463,l),
(409,262,l)
);
}
);
width = 664;
}
);
note = Aring;
unicode = 197;
},
{
glyphname = Atilde;
kernLeft = A;
kernRight = A;
layers = (
{
hints = (
{
horizontal = 1;
place = (0, 21);
target = up;
type = BottomGhost;
},
{
horizontal = 1;
place = (118, 144);
place = (118, 144);
type = Stem;
},
{
horizontal = 1;
place = (697, -20);
target = down;
type = TopGhost;
},
{
horizontal = 1;
place = (811, 92);
place = (811, 92);
type = Stem;
},
{
place = (161, 86);
place = (161, 86);
type = Stem;
},
{
place = (414, 90);
place = (414, 90);
type = Stem;
},
{
horizontal = 1;
place = (752, 149);
place = (752, 149);
type = Stem;
},
{
horizontal = 1;
place = (752, 91);
place = (752, 91);
type = Stem;
},
{
horizontal = 1;
place = (751, 152);
place = (751, 152);
type = Stem;
}
);
layerId = m01;
shapes = (
{
closed = 1;
nodes = (
(295,811,o),
(317,752,o),
(392,752,cs),
(461,752,o),
(504,803,o),
(504,901,c),
(414,901,l),
(414,862,o),
(405,843,o),
(394,843,cs),
(370,843,o),
(340,903,o),
(275,903,cs),
(205,903,o),
(161,848,o),
(161,751,c),
(247,751,l),
(247,791,o),
(255,811,o),
(268,811,cs)
);
},
{
closed = 1;
nodes = (
(508,0,l),
(679,0,l),
(390,697,l),
(275,697,l),
(-15,0,l),
(156,0,l),
(201,118,l),
(463,118,l)
);
},
{
closed = 1;
nodes = (
(256,262,l),
(333,463,l),
(409,262,l)
);
}
);
width = 664;
}
);
note = Atilde;
unicode = 195;
},
{
glyphname = AE;
kernLeft = A;
layers = (
{
hints = (
{
horizontal = 1;
place = (0, 142);
place = (0, 142);
type = Stem;
},
{
horizontal = 1;
place = (282, 132);
place = (282, 132);
type = Stem;
},
{
horizontal = 1;
place = (559, 138);
place = (559, 138);
type = Stem;
},
{
place = (396, 158);
place = (396, 158);
type = Stem;
},
{
horizontal = 1;
place = (143, 150);
place = (143, 150);
type = Stem;
}
);
layerId = m01;
shapes = (
{
closed = 1;
nodes = (
(-15,0,l),
(156,0,l),
(210,143,l),
(396,143,l),
(396,0,l),
(886,0,l),
(886,142,l),
(554,142,l),
(554,282,l),
(847,282,l),
(847,414,l),
(554,414,l),
(554,559,l),
(886,559,l),
(886,697,l),
(274,697,l)
);
},
{
closed = 1;
nodes = (
(264,293,l),
(368,559,l),
(396,559,l),
(396,293,l)
);
}
);
width = 929;
}
);
note = AE;
unicode = 198;
},
{
glyphname = B;
kernLeft = B;
kernRight = B;
lastChange = "2022-12-23 05:17:30 +0000";
layers = (
{
hints = (
{
horizontal = 1;
place = (0, 144);
place = (0, 144);
type = Stem;
},
{
horizontal = 1;
place = (289, 147);
place = (289, 147);
type = Stem;
},
{
horizontal = 1;
place = (553, 144);
place = (553, 144);
type = Stem;
},
{
place = (71, 157);
place = (71, 157);
type = Stem;
},
{
place = (441, 157);
place = (441, 157);
type = Stem;
},
{
place = (403, 157);
place = (403, 157);
type = Stem;
}
);
layerId = m01;
shapes = (
{
closed = 1;
nodes = (
(71,0,l),
(368,0,ls),
(510,0,o),
(598,80,o),
(598,209,cs),
(598,290,o),
(565,347,o),
(492,379,c),
(535,409,o),
(560,459,o),
(560,520,cs),
(560,630,o),
(474,697,o),
(331,697,cs),
(86,697,ls),
(78,697,o),
(71,690,o),
(71,682,cs)
);
},
{
closed = 1;
nodes = (
(228,436,l),
(228,553,l),
(331,553,ls),
(375,553,o),
(403,537,o),
(403,498,cs),
(403,455,o),
(375,436,o),
(331,436,cs)
);
},
{
closed = 1;
nodes = (
(228,144,l),
(228,289,l),
(355,289,ls),
(379,289,o),
(441,289,o),
(441,216,cs),
(441,172,o),
(418,144,o),
(355,144,cs)
);
}
);
width = 619;
}
);
note = B;
unicode = 66;
},
{
glyphname = C;
kernLeft = C;
kernRight = C;
lastChange = "2022-12-23 05:17:42 +0000";
layers = (
{
hints = (
{
horizontal = 1;
place = (-18, 150);
place = (-18, 150);
type = Stem;
},
{
horizontal = 1;
place = (567, 150);
place = (567, 150);
type = Stem;
},
{
place = (21, 157);
place = (21, 157);
type = Stem;
}
);
layerId = m01;
shapes = (
{
closed = 1;
nodes = (
(548,253,o),
(535,226,qs),
(513,179,o),
(429,132,o),
(372,132,qs),
(281,132,o),
(178,245,o),
(178,350,qs),
(178,455,o),
(278,567,o),
(369,567,qs),
(425,567,o),
(510,522,o),
(534,476,qs),
(548,449,o),
(574,459,qs),
(691,505,l),
(653,605,o),
(487,717,o),
(369,717,qs),
(291,717,o),
(162,664,o),
(71,568,o),
(21,432,o),
(21,348,qs),
(21,265,o),
(71,130,o),
(163,34,o),
(293,-18,o),
(372,-18,qs),
(489,-18,o),
(656,93,o),
(693,198,q),
(574,243,ls)
);
}
);
width = 697;
}
);
note = C;
unicode = 67;
},
{
glyphname = Cacute;
kernLeft = C;
kernRight = C;
layers = (
{
hints = (
{
horizontal = 1;
place = (-18, 150);
place = (-18, 150);
type = Stem;
},
{
horizontal = 1;
place = (567, 150);
place = (567, 150);
type = Stem;
},
{
horizontal = 1;
place = (758, 143);
place = (758, 143);
type = Stem;
},
{
place = (21, 157);
place = (21, 157);
type = Stem;
}
);
layerId = m01;
shapes = (
{
closed = 1;
nodes = (
(320,758,l),
(429,758,l),
(595,901,l),
(433,901,l)
);
},
{
closed = 1;
nodes = (
(527,-18,o),
(644,59,o),
(693,198,c),
(546,254,l),
(522,173,o),
(459,132,o),
(372,132,cs),
(251,132,o),
(178,211,o),
(178,350,cs),
(178,489,o),
(249,567,o),
(369,567,cs),
(454,567,o),
(519,527,o),
(546,448,c),
(691,505,l),
(640,637,o),
(525,717,o),
(369,717,cs),
(160,717,o),
(21,571,o),
(21,348,cs),
(21,127,o),
(161,-18,o),
(372,-18,cs)
);
}
);
width = 697;
}
);
note = Cacute;
unicode = 262;
},
{
glyphname = Ccaron;
kernLeft = C;
kernRight = C;
layers = (
{
hints = (
{
horizontal = 1;
place = (-18, 150);
place = (-18, 150);
type = Stem;
},
{
horizontal = 1;
place = (567, 150);
place = (567, 150);
type = Stem;
},
{
place = (21, 157);
place = (21, 157);
type = Stem;
}
);
layerId = m01;
shapes = (
{
closed = 1;
nodes = (
(375,730,l),
(535,901,l),
(421,901,l),
(375,851,l),
(330,901,l),
(215,901,l)
);
},
{
closed = 1;
nodes = (
(527,-18,o),
(644,59,o),
(693,198,c),
(546,254,l),
(522,173,o),
(459,132,o),
(372,132,cs),
(251,132,o),
(178,211,o),
(178,350,cs),
(178,489,o),
(249,567,o),
(369,567,cs),
(454,567,o),
(519,527,o),
(546,448,c),
(691,505,l),
(640,637,o),
(525,717,o),
(369,717,cs),
(160,717,o),
(21,571,o),
(21,348,cs),
(21,127,o),
(161,-18,o),
(372,-18,cs)
);
}
);
width = 697;
}
);
note = Ccaron;
unicode = 268;
},
{
glyphname = Ccedilla;
kernLeft = C;
kernRight = C;
layers = (
{
hints = (
{
horizontal = 1;
place = (-260, 85);
place = (-260, 85);
type = Stem;
},
{
horizontal = 1;
place = (-15, 21);
target = up;
type = BottomGhost;
},
{
horizontal = 1;
place = (567, 150);
place = (567, 150);
type = Stem;
},
{
place = (21, 157);
place = (21, 157);
type = Stem;
},
{
place = (375, 87);
place = (375, 87);
type = Stem;
}
);
layerId = m01;
shapes = (
{
closed = 1;
nodes = (
(546,254,l),
(522,173,o),
(459,132,o),
(372,132,cs),
(251,132,o),
(178,211,o),
(178,350,cs),
(178,489,o),
(249,567,o),
(369,567,cs),
(454,567,o),
(519,527,o),
(546,448,c),
(691,505,l),
(640,637,o),
(525,717,o),
(369,717,cs),
(160,717,o),
(21,571,o),
(21,348,cs),
(21,146,o),
(138,7,o),
(320,-15,c),
(267,-97,l),
(294,-97,o),
(317,-97,o),
(338,-103,cs),
(360,-109,o),
(375,-121,o),
(375,-144,cs),
(375,-165,o),
(361,-175,o),
(342,-175,cs),
(331,-175,o),
(318,-171,o),
(305,-164,c),
(259,-237,l),
(292,-258,o),
(324,-260,o),
(338,-260,cs),
(412,-260,o),
(462,-206,o),
(462,-138,cs),
(462,-108,o),
(452,-80,o),
(428,-61,cs),
(416,-52,o),
(400,-44,o),
(381,-40,c),
(402,-17,l),
(542,-8,o),
(647,68,o),
(693,198,c)
);
}
);
width = 697;
}
);
note = Ccedilla;
unicode = 199;
},
{
glyphname = Cdotaccent;
kernLeft = C;
kernRight = C;
layers = (
{
hints = (
{
horizontal = 1;
place = (-18, 150);
place = (-18, 150);
type = Stem;
},
{
horizontal = 1;
place = (567, 150);
place = (567, 150);
type = Stem;
},
{
horizontal = 1;
place = (765, 136);
place = (765, 136);
type = Stem;
},
{
place = (21, 157);
place = (21, 157);
type = Stem;
},
{
place = (298, 154);
place = (298, 154);
type = Stem;
}
);
layerId = m01;
shapes = (
{
closed = 1;
nodes = (
(298,765,l),
(452,765,l),
(452,901,l),
(298,901,l)
);
},
{
closed = 1;
nodes = (
(527,-18,o),
(644,59,o),
(693,198,c),
(546,254,l),
(522,173,o),
(459,132,o),
(372,132,cs),
(251,132,o),
(178,211,o),
(178,350,cs),
(178,489,o),
(249,567,o),
(369,567,cs),
(454,567,o),
(519,527,o),
(546,448,c),
(691,505,l),
(640,637,o),
(525,717,o),
(369,717,cs),
(160,717,o),
(21,571,o),
(21,348,cs),
(21,127,o),
(161,-18,o),
(372,-18,cs)
);
}
);
width = 697;
}
);
note = Cdotaccent;
unicode = 266;
},
{
glyphname = D;
kernLeft = B;
kernRight = D;
lastChange = "2022-12-23 05:17:55 +0000";
layers = (
{
hints = (
{
horizontal = 1;
place = (0, 144);
place = (0, 144);
type = Stem;
},
{
horizontal = 1;
place = (553, 144);
place = (553, 144);
type = Stem;
},
{
place = (71, 157);
place = (71, 157);
type = Stem;
},
{
place = (490, 158);
place = (490, 158);
type = Stem;
}
);
layerId = m01;
shapes = (
{
closed = 1;
nodes = (
(71,697,o),
(71,667,qs),
(71,0,l),
(280,0,ls),
(460,0,o),
(648,175,o),
(648,343,qs),
(648,513,o),
(456,697,o),
(281,697,qs),
(101,697,ls)
);
},
{
closed = 1;
nodes = (
(228,553,l),
(278,553,ls),
(327,553,o),
(406,535,o),
(461,489,o),
(490,410,o),
(490,349,qs),
(490,286,o),
(459,206,o),
(401,161,o),
(317,144,o),
(264,144,qs),
(228,144,l)
);
}
);
width = 668;
}
);
note = D;
unicode = 68;
},
{
glyphname = Eth;
kernLeft = B;
kernRight = D;
layers = (
{
hints = (
{
horizontal = 1;
place = (0, 144);
place = (0, 144);
type = Stem;
},
{
horizontal = 1;
place = (299, 100);
place = (299, 100);
type = Stem;
},
{
horizontal = 1;
place = (553, 144);
place = (553, 144);
type = Stem;
},
{
place = (71, 157);
place = (71, 157);
type = Stem;
},
{
place = (490, 158);
place = (490, 158);
type = Stem;
}
);
layerId = m01;
shapes = (
{
closed = 1;
nodes = (
(71,697,l),
(71,399,l),
(-11,399,l),
(-11,299,l),
(71,299,l),
(71,0,l),
(280,0,ls),
(518,0,o),
(648,121,o),
(648,343,cs),
(648,569,o),
(514,697,o),
(281,697,cs)
);
},
{
closed = 1;
nodes = (
(228,144,l),
(228,299,l),
(344,299,l),
(344,399,l),
(228,399,l),
(228,553,l),
(278,553,ls),
(409,553,o),
(490,511,o),
(490,349,cs),
(490,181,o),
(406,144,o),
(264,144,cs)
);
}
);
width = 668;
}
);
note = Eth;
unicode = 208;
},
{
glyphname = Dcaron;
kernLeft = B;
kernRight = D;
layers = (
{
hints = (
{
horizontal = 1;
place = (0, 144);
place = (0, 144);
type = Stem;
},
{
horizontal = 1;
place = (553, 144);
place = (553, 144);
type = Stem;
},
{
place = (71, 157);
place = (71, 157);
type = Stem;
},
{
place = (490, 158);
place = (490, 158);
type = Stem;
}
);
layerId = m01;
shapes = (
{
closed = 1;
nodes = (
(334,730,l),
(494,901,l),
(380,901,l),
(334,851,l),
(289,901,l),
(174,901,l)
);
},
{
closed = 1;
nodes = (
(71,0,l),
(280,0,ls),
(518,0,o),
(648,121,o),
(648,343,cs),
(648,569,o),
(514,697,o),
(281,697,cs),
(71,697,l)
);
},
{
closed = 1;
nodes = (
(228,144,l),
(228,553,l),
(278,553,ls),
(409,553,o),
(490,511,o),
(490,349,cs),
(490,181,o),
(406,144,o),
(264,144,cs)
);
}
);
width = 668;
}
);
note = Dcaron;
unicode = 270;
},
{
glyphname = Dcroat;
kernLeft = B;
kernRight = D;
layers = (
{
hints = (
{
horizontal = 1;
place = (0, 144);
place = (0, 144);
type = Stem;
},
{
horizontal = 1;
place = (299, 100);
place = (299, 100);
type = Stem;
},
{
horizontal = 1;
place = (553, 144);
place = (553, 144);
type = Stem;
},
{
place = (71, 157);
place = (71, 157);
type = Stem;
},
{
place = (490, 158);
place = (490, 158);
type = Stem;
}
);
layerId = m01;
shapes = (
{
closed = 1;
nodes = (
(71,697,l),
(71,399,l),
(-11,399,l),
(-11,299,l),
(71,299,l),
(71,0,l),
(280,0,ls),
(518,0,o),
(648,121,o),
(648,343,cs),
(648,569,o),
(514,697,o),
(281,697,cs)
);
},
{
closed = 1;
nodes = (
(228,144,l),
(228,299,l),
(344,299,l),
(344,399,l),
(228,399,l),
(228,553,l),
(278,553,ls),
(409,553,o),
(490,511,o),
(490,349,cs),
(490,181,o),
(406,144,o),
(264,144,cs)
);
}
);
width = 668;
}
);
note = Dcroat;
unicode = 272;
},
{
glyphname = E;
kernLeft = B;
lastChange = "2022-12-23 05:18:06 +0000";
layers = (
{
hints = (
{
horizontal = 1;
place = (0, 144);
place = (0, 144);
type = Stem;
},
{
horizontal = 1;
place = (288, 145);
place = (288, 145);
type = Stem;
},
{
horizontal = 1;
place = (553, 144);
place = (553, 144);
type = Stem;
},
{
place = (71, 157);
place = (71, 157);
type = Stem;
}
);
layerId = m01;
shapes = (
{
closed = 1;
nodes = (
(524,433,o),
(494,433,qs),
(228,433,l),
(228,553,l),
(539,553,l),
(539,697,l),
(71,697,l),
(71,0,l),
(539,0,l),
(539,144,l),
(228,144,l),
(228,288,l),
(524,288,l),
(524,403,ls)
);
}
);
width = 592;
}
);
note = E;
unicode = 69;
},
{
glyphname = Eacute;
kernLeft = B;
layers = (
{
hints = (
{
horizontal = 1;
place = (0, 144);
place = (0, 144);
type = Stem;
},
{
horizontal = 1;
place = (288, 145);
place = (288, 145);
type = Stem;
},
{
horizontal = 1;
place = (553, 144);
place = (553, 144);
type = Stem;
},
{
horizontal = 1;
place = (758, 143);
place = (758, 143);
type = Stem;
},
{
place = (71, 157);
place = (71, 157);
type = Stem;
}
);
layerId = m01;
shapes = (
{
closed = 1;
nodes = (
(250,758,l),
(359,758,l),
(525,901,l),
(363,901,l)
);
},
{
closed = 1;
nodes = (
(71,0,l),
(539,0,l),
(539,144,l),
(228,144,l),
(228,288,l),
(524,288,l),
(524,433,l),
(228,433,l),
(228,553,l),
(539,553,l),
(539,697,l),
(71,697,l)
);
}
);
width = 592;
}
);
note = Eacute;
unicode = 201;
},
{
glyphname = Ecaron;
kernLeft = B;
layers = (
{
hints = (
{
horizontal = 1;
place = (0, 144);
place = (0, 144);
type = Stem;
},
{
horizontal = 1;
place = (288, 145);
place = (288, 145);
type = Stem;
},
{
horizontal = 1;
place = (553, 144);
place = (553, 144);
type = Stem;
},
{
place = (71, 157);
place = (71, 157);
type = Stem;
}
);
layerId = m01;
shapes = (
{
closed = 1;
nodes = (
(305,730,l),
(465,901,l),
(351,901,l),
(305,851,l),
(260,901,l),
(145,901,l)
);
},
{
closed = 1;
nodes = (
(71,0,l),
(539,0,l),
(539,144,l),
(228,144,l),
(228,288,l),
(524,288,l),
(524,433,l),
(228,433,l),
(228,553,l),
(539,553,l),
(539,697,l),
(71,697,l)
);
}
);
width = 592;
}
);
note = Ecaron;
unicode = 282;
},
{
glyphname = Ecircumflex;
kernLeft = B;
layers = (
{
hints = (
{
horizontal = 1;
place = (0, 144);
place = (0, 144);
type = Stem;
},
{
horizontal = 1;
place = (288, 145);
place = (288, 145);
type = Stem;
},
{
horizontal = 1;
place = (553, 144);
place = (553, 144);
type = Stem;
},
{
place = (71, 157);
place = (71, 157);
type = Stem;
}
);
layerId = m01;
shapes = (
{
closed = 1;
nodes = (
(145,741,l),
(259,741,l),
(305,797,l),
(351,741,l),
(465,741,l),
(305,924,l)
);
},
{
closed = 1;
nodes = (
(71,0,l),
(539,0,l),
(539,144,l),
(228,144,l),
(228,288,l),
(524,288,l),
(524,433,l),
(228,433,l),
(228,553,l),
(539,553,l),
(539,697,l),
(71,697,l)
);
}
);
width = 592;
}
);
note = Ecircumflex;
unicode = 202;
},
{
glyphname = uni1EBE;
kernLeft = B;
layers = (
{
hints = (
{
horizontal = 1;
place = (0, 144);
place = (0, 144);
type = Stem;
},
{
horizontal = 1;
place = (288, 145);
place = (288, 145);
type = Stem;
},
{
horizontal = 1;
place = (553, 144);
place = (553, 144);
type = Stem;
},
{
horizontal = 1;
place = (945, 143);
place = (945, 143);
type = Stem;
},
{
place = (71, 157);
place = (71, 157);
type = Stem;
}
);
layerId = m01;
shapes = (
{
closed = 1;
nodes = (
(250,945,l),
(359,945,l),
(525,1088,l),
(363,1088,l)
);
},
{
closed = 1;
nodes = (
(145,741,l),
(259,741,l),
(305,797,l),
(351,741,l),
(465,741,l),
(305,924,l)
);
},
{
closed = 1;
nodes = (
(71,0,l),
(539,0,l),
(539,144,l),
(228,144,l),
(228,288,l),
(524,288,l),
(524,433,l),
(228,433,l),
(228,553,l),
(539,553,l),
(539,697,l),
(71,697,l)
);
}
);
width = 592;
}
);
note = uni1EBE;
unicode = 7870;
},
{
glyphname = uni1EC6;
kernLeft = B;
layers = (
{
hints = (
{
horizontal = 1;
place = (-173, 117);
place = (-173, 117);
type = Stem;
},
{
horizontal = 1;
place = (0, 144);
place = (0, 144);
type = Stem;
},
{
horizontal = 1;
place = (288, 145);
place = (288, 145);
type = Stem;
},
{
horizontal = 1;
place = (553, 144);
place = (553, 144);
type = Stem;
},
{
place = (71, 157);
place = (71, 157);
type = Stem;
},
{
place = (228, 154);
place = (228, 154);
type = Stem;
}
);
layerId = m01;
shapes = (
{
closed = 1;
nodes = (
(145,741,l),
(259,741,l),
(305,797,l),
(351,741,l),
(465,741,l),
(305,924,l)
);
},
{
closed = 1;
nodes = (
(71,0,l),
(539,0,l),
(539,144,l),
(228,144,l),
(228,288,l),
(524,288,l),
(524,433,l),
(228,433,l),
(228,553,l),
(539,553,l),
(539,697,l),
(71,697,l)
);
},
{
closed = 1;
nodes = (
(228,-173,l),
(382,-173,l),
(382,-56,l),
(228,-56,l)
);
}
);
width = 592;
}
);
note = uni1EC6;
unicode = 7878;
},
{
glyphname = uni1EC0;
kernLeft = B;
layers = (
{
hints = (
{
horizontal = 1;
place = (0, 144);
place = (0, 144);
type = Stem;
},
{
horizontal = 1;
place = (288, 145);
place = (288, 145);
type = Stem;
},
{
horizontal = 1;
place = (553, 144);
place = (553, 144);
type = Stem;
},
{
horizontal = 1;
place = (945, 143);
place = (945, 143);
type = Stem;
},
{
place = (71, 157);
place = (71, 157);
type = Stem;
}
);
layerId = m01;
shapes = (
{
closed = 1;
nodes = (
(249,945,l),
(360,945,l),
(256,1088,l),
(96,1088,l)
);
},
{
closed = 1;
nodes = (
(145,741,l),
(259,741,l),
(305,797,l),
(351,741,l),
(465,741,l),
(305,924,l)
);
},
{
closed = 1;
nodes = (
(71,0,l),
(539,0,l),
(539,144,l),
(228,144,l),
(228,288,l),
(524,288,l),
(524,433,l),
(228,433,l),
(228,553,l),
(539,553,l),
(539,697,l),
(71,697,l)
);
}
);
width = 592;
}
);
note = uni1EC0;
unicode = 7872;
},
{
glyphname = uni1EC2;
kernLeft = B;
layers = (
{
hints = (
{
horizontal = 1;
place = (0, 144);
place = (0, 144);
type = Stem;
},
{
horizontal = 1;
place = (288, 145);
place = (288, 145);
type = Stem;
},
{
horizontal = 1;
place = (553, 144);
place = (553, 144);
type = Stem;
},
{
horizontal = 1;
place = (741, 221);
place = (741, 221);
type = Stem;
},
{
horizontal = 1;
place = (1017, 92);
place = (1017, 92);
type = Stem;
},
{
place = (71, 157);
place = (71, 157);
type = Stem;
},
{
place = (316, 105);
place = (316, 105);
type = Stem;
},
{
horizontal = 1;
place = (901.5, 60.5);
place = (901.5, 60.5);
type = Stem;
}
);
layerId = m01;
shapes = (
{
closed = 1;
nodes = (
(259,741,l),
(305,797,l),
(351,741,l),
(465,741,l),
(319,908,l),
(369,918,o),
(421,940,o),
(421,1002,cs),
(421,1071,o),
(351,1109,o),
(245,1109,cs),
(229,1109,l),
(229,1017,l),
(245,1017,ls),
(282,1017,o),
(316,1017,o),
(316,991,cs),
(316,967,o),
(289,966,o),
(261,962,c),
(278,901,l),
(281,901,o),
(283,902,o),
(286,902,c),
(145,741,l)
);
},
{
closed = 1;
nodes = (
(539,553,l),
(539,697,l),
(71,697,l),
(71,0,l),
(539,0,l),
(539,144,l),
(228,144,l),
(228,288,l),
(524,288,l),
(524,433,l),
(228,433,l),
(228,553,l)
);
}
);
width = 592;
}
);
note = uni1EC2;
unicode = 7874;
},
{
glyphname = uni1EC4;
kernLeft = B;
layers = (
{
hints = (
{
horizontal = 1;
place = (0, 144);
place = (0, 144);
type = Stem;
},
{
horizontal = 1;
place = (288, 145);
place = (288, 145);
type = Stem;
},
{
horizontal = 1;
place = (553, 144);
place = (553, 144);
type = Stem;
},
{
horizontal = 1;
place = (939, 149);
place = (939, 149);
type = Stem;
},
{
place = (71, 157);
place = (71, 157);
type = Stem;
},
{
place = (386, 90);
place = (386, 90);
type = Stem;
},
{
horizontal = 1;
place = (939, 91);
place = (939, 91);
type = Stem;
},
{
horizontal = 1;
place = (938, 152);
place = (938, 152);
type = Stem;
},
{
place = (133, 86);
place = (133, 86);
type = Stem;
},
{
horizontal = 1;
place = (998, 92);
place = (998, 92);
type = Stem;
}
);
layerId = m01;
shapes = (
{
closed = 1;
nodes = (
(433,939,o),
(476,990,o),
(476,1088,c),
(386,1088,l),
(386,1049,o),
(377,1030,o),
(366,1030,cs),
(342,1030,o),
(312,1090,o),
(247,1090,cs),
(177,1090,o),
(133,1035,o),
(133,938,c),
(219,938,l),
(219,978,o),
(227,998,o),
(240,998,cs),
(267,998,o),
(289,939,o),
(364,939,cs)
);
},
{
closed = 1;
nodes = (
(145,741,l),
(259,741,l),
(305,797,l),
(351,741,l),
(465,741,l),
(305,924,l)
);
},
{
closed = 1;
nodes = (
(71,0,l),
(539,0,l),
(539,144,l),
(228,144,l),
(228,288,l),
(524,288,l),
(524,433,l),
(228,433,l),
(228,553,l),
(539,553,l),
(539,697,l),
(71,697,l)
);
}
);
width = 592;
}
);
note = uni1EC4;
unicode = 7876;
},
{
glyphname = Edieresis;
kernLeft = B;
layers = (
{
hints = (
{
horizontal = 1;
place = (0, 144);
place = (0, 144);
type = Stem;
},
{
horizontal = 1;
place = (288, 145);
place = (288, 145);
type = Stem;
},
{
horizontal = 1;
place = (553, 144);
place = (553, 144);
type = Stem;
},
{
horizontal = 1;
place = (765, 136);
place = (765, 136);
type = Stem;
},
{
place = (146, 114);
place = (146, 114);
type = Stem;
},
{
place = (350, 114);
place = (350, 114);
type = Stem;
},
{
place = (71, 157);
place = (71, 157);
type = Stem;
}
);
layerId = m01;
shapes = (
{
closed = 1;
nodes = (
(146,765,l),
(260,765,l),
(260,901,l),
(146,901,l)
);
},
{
closed = 1;
nodes = (
(350,765,l),
(464,765,l),
(464,901,l),
(350,901,l)
);
},
{
closed = 1;
nodes = (
(71,0,l),
(539,0,l),
(539,144,l),
(228,144,l),
(228,288,l),
(524,288,l),
(524,433,l),
(228,433,l),
(228,553,l),
(539,553,l),
(539,697,l),
(71,697,l)
);
}
);
width = 592;
}
);
note = Edieresis;
unicode = 203;
},
{
glyphname = Edotaccent;
kernLeft = B;
layers = (
{
hints = (
{
horizontal = 1;
place = (0, 144);
place = (0, 144);
type = Stem;
},
{
horizontal = 1;
place = (288, 145);
place = (288, 145);
type = Stem;
},
{
horizontal = 1;
place = (553, 144);
place = (553, 144);
type = Stem;
},
{
horizontal = 1;
place = (765, 136);
place = (765, 136);
type = Stem;
},
{
place = (228, 154);
place = (228, 154);
type = Stem;
},
{
place = (71, 157);
place = (71, 157);
type = Stem;
}
);
layerId = m01;
shapes = (
{
closed = 1;
nodes = (
(228,765,l),
(382,765,l),
(382,901,l),
(228,901,l)
);
},
{
closed = 1;
nodes = (
(71,0,l),
(539,0,l),
(539,144,l),
(228,144,l),
(228,288,l),
(524,288,l),
(524,433,l),
(228,433,l),
(228,553,l),
(539,553,l),
(539,697,l),
(71,697,l)
);
}
);
width = 592;
}
);
note = Edotaccent;
unicode = 278;
},
{
glyphname = uni1EB8;
kernLeft = B;
layers = (
{
hints = (
{
horizontal = 1;
place = (-173, 117);
place = (-173, 117);
type = Stem;
},
{
horizontal = 1;
place = (0, 144);
place = (0, 144);
type = Stem;
},
{
horizontal = 1;
place = (288, 145);
place = (288, 145);
type = Stem;
},
{
horizontal = 1;
place = (553, 144);
place = (553, 144);
type = Stem;
},
{
place = (71, 157);
place = (71, 157);
type = Stem;
},
{
place = (228, 154);
place = (228, 154);
type = Stem;
}
);
layerId = m01;
shapes = (
{
closed = 1;
nodes = (
(71,0,l),
(539,0,l),
(539,144,l),
(228,144,l),
(228,288,l),
(524,288,l),
(524,433,l),
(228,433,l),
(228,553,l),
(539,553,l),
(539,697,l),
(71,697,l)
);
},
{
closed = 1;
nodes = (
(228,-173,l),
(382,-173,l),
(382,-56,l),
(228,-56,l)
);
}
);
width = 592;
}
);
note = uni1EB8;
unicode = 7864;
},
{
glyphname = Egrave;
kernLeft = B;
layers = (
{
hints = (
{
horizontal = 1;
place = (0, 144);
place = (0, 144);
type = Stem;
},
{
horizontal = 1;
place = (288, 145);
place = (288, 145);
type = Stem;
},
{
horizontal = 1;
place = (553, 144);
place = (553, 144);
type = Stem;
},
{
horizontal = 1;
place = (758, 143);
place = (758, 143);
type = Stem;
},
{
place = (71, 157);
place = (71, 157);
type = Stem;
}
);
layerId = m01;
shapes = (
{
closed = 1;
nodes = (
(249,758,l),
(360,758,l),
(256,901,l),
(96,901,l)
);
},
{
closed = 1;
nodes = (
(71,0,l),
(539,0,l),
(539,144,l),
(228,144,l),
(228,288,l),
(524,288,l),
(524,433,l),
(228,433,l),
(228,553,l),
(539,553,l),
(539,697,l),
(71,697,l)
);
}
);
width = 592;
}
);
note = Egrave;
unicode = 200;
},
{
glyphname = uni1EBA;
kernLeft = B;
layers = (
{
hints = (
{
horizontal = 1;
place = (0, 144);
place = (0, 144);
type = Stem;
},
{
horizontal = 1;
place = (288, 145);
place = (288, 145);
type = Stem;
},
{
horizontal = 1;
place = (553, 144);
place = (553, 144);
type = Stem;
},
{
horizontal = 1;
place = (714, 61);
place = (714, 61);
type = Stem;
},
{
horizontal = 1;
place = (830, 92);
place = (830, 92);
type = Stem;
},
{
place = (71, 157);
place = (71, 157);
type = Stem;
},
{
place = (316, 105);
place = (316, 105);
type = Stem;
}
);
layerId = m01;
shapes = (
{
closed = 1;
nodes = (
(278,714,l),
(336,722,o),
(421,736,o),
(421,815,cs),
(421,884,o),
(351,922,o),
(245,922,cs),
(229,922,l),
(229,830,l),
(245,830,ls),
(282,830,o),
(316,830,o),
(316,804,cs),
(316,780,o),
(289,779,o),
(261,775,c)
);
},
{
closed = 1;
nodes = (
(71,0,l),
(539,0,l),
(539,144,l),
(228,144,l),
(228,288,l),
(524,288,l),
(524,433,l),
(228,433,l),
(228,553,l),
(539,553,l),
(539,697,l),
(71,697,l)
);
}
);
width = 592;
}
);
note = uni1EBA;
unicode = 7866;
},
{
glyphname = Emacron;
kernLeft = B;
layers = (
{
hints = (
{
horizontal = 1;
place = (0, 144);
place = (0, 144);
type = Stem;
},
{
horizontal = 1;
place = (288, 145);
place = (288, 145);
type = Stem;
},
{
horizontal = 1;
place = (553, 144);
place = (553, 144);
type = Stem;
},
{
horizontal = 1;
place = (750, 87);
place = (750, 87);
type = Stem;
},
{
place = (166, 278);
place = (166, 278);
type = Stem;
},
{
place = (71, 157);
place = (71, 157);
type = Stem;
}
);
layerId = m01;
shapes = (
{
closed = 1;
nodes = (
(166,750,l),
(444,750,l),
(444,837,l),
(166,837,l)
);
},
{
closed = 1;
nodes = (
(71,0,l),
(539,0,l),
(539,144,l),
(228,144,l),
(228,288,l),
(524,288,l),
(524,433,l),
(228,433,l),
(228,553,l),
(539,553,l),
(539,697,l),
(71,697,l)
);
}
);
width = 592;
}
);
note = Emacron;
unicode = 274;
},
{
glyphname = Eogonek;
kernLeft = B;
layers = (
{
hints = (
{
horizontal = 1;
place = (-227, 92);
place = (-227, 92);
type = Stem;
},
{
horizontal = 1;
place = (0, 144);
place = (0, 144);
type = Stem;
},
{
horizontal = 1;
place = (288, 145);
place = (288, 145);
type = Stem;
},
{
horizontal = 1;
place = (553, 144);
place = (553, 144);
type = Stem;
},
{
place = (71, 157);
place = (71, 157);
type = Stem;
},
{
place = (345, 89);
place = (345, 89);
type = Stem;
}
);
layerId = m01;
shapes = (
{
closed = 1;
nodes = (
(509,-107,l),
(500,-124,o),
(487,-135,o),
(466,-135,cs),
(449,-135,o),
(434,-128,o),
(434,-100,cs),
(434,-46,o),
(520,-5,o),
(539,0,c),
(539,144,l),
(228,144,l),
(228,288,l),
(524,288,l),
(524,433,l),
(228,433,l),
(228,553,l),
(539,553,l),
(539,697,l),
(71,697,l),
(71,0,l),
(421,0,l),
(395,-14,o),
(345,-49,o),
(345,-116,cs),
(345,-182,o),
(398,-227,o),
(470,-227,cs),
(530,-227,o),
(564,-195,o),
(587,-158,c)
);
}
);
width = 592;
}
);
note = Eogonek;
unicode = 280;
},
{
glyphname = uni1EBC;
kernLeft = B;
layers = (
{
hints = (
{
horizontal = 1;
place = (0, 144);
place = (0, 144);
type = Stem;
},
{
horizontal = 1;
place = (288, 145);
place = (288, 145);
type = Stem;
},
{
horizontal = 1;
place = (553, 144);
place = (553, 144);
type = Stem;
},
{
horizontal = 1;
place = (752, 149);
place = (752, 149);
type = Stem;
},
{
place = (71, 157);
place = (71, 157);
type = Stem;
},
{
place = (386, 90);
place = (386, 90);
type = Stem;
},
{
horizontal = 1;
place = (752, 91);
place = (752, 91);
type = Stem;
},
{
horizontal = 1;
place = (751, 152);
place = (751, 152);
type = Stem;
},
{
place = (133, 86);
place = (133, 86);
type = Stem;
},
{
horizontal = 1;
place = (811, 92);
place = (811, 92);
type = Stem;
}
);
layerId = m01;
shapes = (
{
closed = 1;
nodes = (
(433,752,o),
(476,803,o),
(476,901,c),
(386,901,l),
(386,862,o),
(377,843,o),
(366,843,cs),
(342,843,o),
(312,903,o),
(247,903,cs),
(177,903,o),
(133,848,o),
(133,751,c),
(219,751,l),
(219,791,o),
(227,811,o),
(240,811,cs),
(267,811,o),
(289,752,o),
(364,752,cs)
);
},
{
closed = 1;
nodes = (
(71,0,l),
(539,0,l),
(539,144,l),
(228,144,l),
(228,288,l),
(524,288,l),
(524,433,l),
(228,433,l),
(228,553,l),
(539,553,l),
(539,697,l),
(71,697,l)
);
}
);
width = 592;
}
);
note = uni1EBC;
unicode = 7868;
},
{
glyphname = F;
kernLeft = B;
kernRight = F;
lastChange = "2022-12-23 05:18:43 +0000";
layers = (
{
hints = (
{
horizontal = 1;
place = (0, 21);
target = up;
type = BottomGhost;
},
{
horizontal = 1;
place = (288, 145);
place = (288, 145);
type = Stem;
},
{
horizontal = 1;
place = (553, 144);
place = (553, 144);
type = Stem;
},
{
place = (71, 157);
place = (71, 157);
type = Stem;
}
);
layerId = m01;
shapes = (
{
closed = 1;
nodes = (
(150,0,l),
(228,100,l),
(228,288,l),
(537,288,l),
(537,433,l),
(228,433,l),
(228,553,l),
(563,553,ls),
(571,553,o),
(578,560,o),
(578,568,cs),
(578,697,l),
(71,697,l),
(71,0,l)
);
}
);
width = 591;
}
);
note = F;
unicode = 70;
},
{
glyphname = G;
kernLeft = C;
kernRight = G;
lastChange = "2022-12-23 05:19:17 +0000";
layers = (
{
hints = (
{
horizontal = 1;
place = (-18, 150);
place = (-18, 150);
type = Stem;
},
{
horizontal = 1;
place = (247, 140);
place = (247, 140);
type = Stem;
},
{
horizontal = 1;
place = (567, 150);
place = (567, 150);
type = Stem;
},
{
place = (20, 157);
place = (20, 157);
type = Stem;
},
{
place = (533, 158);
place = (533, 158);
type = Stem;
},
{
horizontal = 1;
place = (0, 21);
target = up;
type = BottomGhost;
}
);
layerId = m01;
shapes = (
{
closed = 1;
nodes = (
(691,506,o),
(678,532,qs),
(633,623,o),
(468,717,o),
(370,717,qs),
(293,717,o),
(165,661,o),
(72,561,o),
(20,423,o),
(20,342,qs),
(20,264,o),
(68,132,o),
(158,36,o),
(286,-18,o),
(365,-18,qs),
(430,-18,o),
(533,22,o),
(565,67,q),
(583,0,l),
(628,0,l),
(691,100,l),
(691,387,l),
(399,387,ls),
(391,387,o),
(384,380,o),
(384,372,cs),
(384,247,l),
(533,247,l),
(533,237,ls),
(533,216,o),
(514,178,o),
(475,149,o),
(417,132,o),
(378,132,qs),
(334,132,o),
(260,157,o),
(207,209,o),
(177,290,o),
(177,347,qs),
(177,401,o),
(205,483,o),
(255,539,o),
(325,567,o),
(368,567,qs),
(428,567,o),
(524,508,o),
(545,448,q),
(662,494,ls)
);
}
);
width = 738;
}
);
note = G;
unicode = 71;
},
{
glyphname = Gbreve;
kernLeft = C;
kernRight = G;
layers = (
{
hints = (
{
horizontal = 1;
place = (-18, 150);
place = (-18, 150);
type = Stem;
},
{
horizontal = 1;
place = (247, 140);
place = (247, 140);
type = Stem;
},
{
horizontal = 1;
place = (567, 150);
place = (567, 150);
type = Stem;
},
{
horizontal = 1;
place = (767, 134);
place = (767, 134);
type = Stem;
},
{
place = (20, 157);
place = (20, 157);
type = Stem;
},
{
place = (212, 106);
place = (212, 106);
type = Stem;
},
{
place = (533, 158);
place = (533, 158);
type = Stem;
},
{
place = (424, 106);
place = (424, 106);
type = Stem;
},
{
horizontal = 1;
place = (767, 87);
place = (767, 87);
type = Stem;
},
{
horizontal = 1;
place = (0, 21);
target = up;
type = BottomGhost;
}
);
layerId = m01;
shapes = (
{
closed = 1;
nodes = (
(477,767,o),
(530,809,o),
(530,901,c),
(424,901,l),
(424,870,o),
(399,854,o),
(371,854,cs),
(345,854,o),
(318,868,o),
(318,901,c),
(212,901,l),
(212,815,o),
(259,767,o),
(371,767,cs)
);
},
{
closed = 1;
nodes = (
(384,387,l),
(384,247,l),
(533,247,l),
(533,237,ls),
(533,182,o),
(482,132,o),
(378,132,cs),
(261,132,o),
(177,196,o),
(177,347,cs),
(177,491,o),
(254,567,o),
(368,567,cs),
(448,567,o),
(517,528,o),
(545,448,c),
(690,505,l),
(636,644,o),
(509,717,o),
(370,717,cs),
(165,717,o),
(20,559,o),
(20,342,cs),
(20,134,o),
(153,-18,o),
(365,-18,cs),
(451,-18,o),
(522,7,o),
(565,67,c),
(583,0,l),
(691,0,l),
(691,387,l)
);
}
);
width = 738;
}
);
note = Gbreve;
unicode = 286;
},
{
glyphname = uni0122;
kernLeft = C;
kernRight = G;
layers = (
{
hints = (
{
horizontal = 1;
place = (-229, 178);
place = (-229, 178);
type = Stem;
},
{
horizontal = 1;
place = (-18, 150);
place = (-18, 150);
type = Stem;
},
{
horizontal = 1;
place = (247, 140);
place = (247, 140);
type = Stem;
},
{
horizontal = 1;
place = (567, 150);
place = (567, 150);
type = Stem;
},
{
place = (20, 157);
place = (20, 157);
type = Stem;
},
{
place = (533, 158);
place = (533, 158);
type = Stem;
},
{
horizontal = 1;
place = (0, 21);
target = up;
type = BottomGhost;
}
);
layerId = m01;
shapes = (
{
closed = 1;
nodes = (
(384,387,l),
(384,247,l),
(533,247,l),
(533,237,ls),
(533,182,o),
(482,132,o),
(378,132,cs),
(261,132,o),
(177,196,o),
(177,347,cs),
(177,491,o),
(254,567,o),
(368,567,cs),
(448,567,o),
(517,528,o),
(545,448,c),
(690,505,l),
(636,644,o),
(509,717,o),
(370,717,cs),
(165,717,o),
(20,559,o),
(20,342,cs),
(20,134,o),
(153,-18,o),
(365,-18,cs),
(451,-18,o),
(522,7,o),
(565,67,c),
(583,0,l),
(691,0,l),
(691,387,l)
);
},
{
closed = 1;
nodes = (
(236,-229,l),
(322,-229,l),
(447,-51,l),
(290,-51,l)
);
}
);
width = 738;
}
);
note = uni0122;
unicode = 290;
},
{
glyphname = Gdotaccent;
kernLeft = C;
kernRight = G;
layers = (
{
hints = (
{
horizontal = 1;
place = (-18, 150);
place = (-18, 150);
type = Stem;
},
{
horizontal = 1;
place = (247, 140);
place = (247, 140);
type = Stem;
},
{
horizontal = 1;
place = (567, 150);
place = (567, 150);
type = Stem;
},
{
horizontal = 1;
place = (765, 136);
place = (765, 136);
type = Stem;
},
{
place = (20, 157);
place = (20, 157);
type = Stem;
},
{
place = (294, 154);
place = (294, 154);
type = Stem;
},
{
place = (533, 158);
place = (533, 158);
type = Stem;
},
{
horizontal = 1;
place = (0, 21);
target = up;
type = BottomGhost;
}
);
layerId = m01;
shapes = (
{
closed = 1;
nodes = (
(448,901,l),
(294,901,l),
(294,765,l),
(448,765,l)
);
},
{
closed = 1;
nodes = (
(384,387,l),
(384,247,l),
(533,247,l),
(533,237,ls),
(533,182,o),
(482,132,o),
(378,132,cs),
(261,132,o),
(177,196,o),
(177,347,cs),
(177,491,o),
(254,567,o),
(368,567,cs),
(448,567,o),
(517,528,o),
(545,448,c),
(690,505,l),
(636,644,o),
(509,717,o),
(370,717,cs),
(165,717,o),
(20,559,o),
(20,342,cs),
(20,134,o),
(153,-18,o),
(365,-18,cs),
(451,-18,o),
(522,7,o),
(565,67,c),
(583,0,l),
(691,0,l),
(691,387,l)
);
}
);
width = 738;
}
);
note = Gdotaccent;
unicode = 288;
},
{
glyphname = H;
kernLeft = B;
kernRight = H;
layers = (
{
hints = (
{
horizontal = 1;
place = (0, 21);
target = up;
type = BottomGhost;
},
{
horizontal = 1;
place = (288, 144);
place = (288, 144);
type = Stem;
},
{
horizontal = 1;
place = (697, -20);
target = down;
type = TopGhost;
},
{
place = (71, 157);
place = (71, 157);
type = Stem;
},
{
place = (499, 157);
place = (499, 157);
type = Stem;
}
);
layerId = m01;
shapes = (
{
closed = 1;
nodes = (
(71,0,l),
(228,0,l),
(228,288,l),
(499,288,l),
(499,0,l),
(656,0,l),
(656,697,l),
(499,697,l),
(499,432,l),
(228,432,l),
(228,697,l),
(71,697,l)
);
}
);
width = 727;
}
);
note = H;
unicode = 72;
},
{
glyphname = Hbar;
kernLeft = B;
kernRight = H;
layers = (
{
hints = (
{
horizontal = 1;
place = (0, 21);
target = up;
type = BottomGhost;
},
{
horizontal = 1;
place = (288, 144);
place = (288, 144);
type = Stem;
},
{
horizontal = 1;
place = (512, 88);
place = (512, 88);
type = Stem;
},
{
place = (71, 157);
place = (71, 157);
type = Stem;
},
{
place = (499, 157);
place = (499, 157);
type = Stem;
},
{
horizontal = 1;
place = (512, 185);
place = (512, 185);
type = Stem;
}
);
layerId = m01;
shapes = (
{
closed = 1;
nodes = (
(699,600,l),
(656,600,l),
(656,697,l),
(499,697,l),
(499,600,l),
(228,600,l),
(228,697,l),
(71,697,l),
(71,600,l),
(30,600,l),
(30,512,l),
(71,512,l),
(71,0,l),
(228,0,l),
(228,288,l),
(499,288,l),
(499,0,l),
(656,0,l),
(656,512,l),
(699,512,l)
);
},
{
closed = 1;
nodes = (
(499,432,l),
(228,432,l),
(228,512,l),
(499,512,l)
);
}
);
width = 727;
}
);
note = Hbar;
unicode = 294;
},
{
glyphname = I;
kernLeft = B;
kernRight = H;
layers = (
{
hints = (
{
horizontal = 1;
place = (0, 21);
target = up;
type = BottomGhost;
},
{
horizontal = 1;
place = (697, -20);
target = down;
type = TopGhost;
},
{
place = (71, 157);
place = (71, 157);
type = Stem;
}
);
layerId = m01;
shapes = (
{
closed = 1;
nodes = (
(71,0,l),
(228,0,l),
(228,697,l),
(71,697,l)
);
}
);
width = 299;
}
);
note = I;
unicode = 73;
},
{
glyphname = Iacute;
kernLeft = B;
kernRight = H;
layers = (
{
hints = (
{
horizontal = 1;
place = (0, 21);
target = up;
type = BottomGhost;
},
{
horizontal = 1;
place = (697, -20);
target = down;
type = TopGhost;
},
{
horizontal = 1;
place = (758, 143);
place = (758, 143);
type = Stem;
},
{
place = (71, 157);
place = (71, 157);
type = Stem;
}
);
layerId = m01;
shapes = (
{
closed = 1;
nodes = (
(95,758,l),
(204,758,l),
(370,901,l),
(208,901,l)
);
},
{
closed = 1;
nodes = (
(71,0,l),
(228,0,l),
(228,697,l),
(71,697,l)
);
}
);
width = 299;
}
);
note = Iacute;
unicode = 205;
},
{
glyphname = uni01CF;
layers = (
{
hints = (
{
horizontal = 1;
place = (0, 21);
target = up;
type = BottomGhost;
},
{
horizontal = 1;
place = (697, -20);
target = down;
type = TopGhost;
},
{
place = (71, 157);
place = (71, 157);
type = Stem;
}
);
layerId = m01;
shapes = (
{
closed = 1;
nodes = (
(150,730,l),
(310,901,l),
(196,901,l),
(150,851,l),
(105,901,l),
(-10,901,l)
);
},
{
closed = 1;
nodes = (
(71,0,l),
(228,0,l),
(228,697,l),
(71,697,l)
);
}
);
width = 299;
}
);
note = uni01CF;
unicode = 463;
},
{
glyphname = Icircumflex;
kernLeft = B;
kernRight = H;
layers = (
{
hints = (
{
horizontal = 1;
place = (0, 21);
target = up;
type = BottomGhost;
},
{
horizontal = 1;
place = (697, -20);
target = down;
type = TopGhost;
},
{
place = (71, 157);
place = (71, 157);
type = Stem;
}
);
layerId = m01;
shapes = (
{
closed = 1;
nodes = (
(-10,741,l),
(104,741,l),
(150,797,l),
(196,741,l),
(310,741,l),
(150,924,l)
);
},
{
closed = 1;
nodes = (
(71,0,l),
(228,0,l),
(228,697,l),
(71,697,l)
);
}
);
width = 299;
}
);
note = Icircumflex;
unicode = 206;
},
{
glyphname = Idieresis;
kernLeft = B;
kernRight = H;
layers = (
{
hints = (
{
horizontal = 1;
place = (0, 21);
target = up;
type = BottomGhost;
},
{
horizontal = 1;
place = (697, -20);
target = down;
type = TopGhost;
},
{
horizontal = 1;
place = (765, 136);
place = (765, 136);
type = Stem;
},
{
place = (-9, 114);
place = (-9, 114);
type = Stem;
},
{
place = (71, 34);
place = (71, 34);
type = Stem;
},
{
place = (195, 114);
place = (195, 114);
type = Stem;
},
{
place = (71, 157);
place = (71, 157);
type = Stem;
}
);
layerId = m01;
shapes = (
{
closed = 1;
nodes = (
(-9,765,l),
(105,765,l),
(105,901,l),
(-9,901,l)
);
},
{
closed = 1;
nodes = (
(195,765,l),
(309,765,l),
(309,901,l),
(195,901,l)
);
},
{
closed = 1;
nodes = (
(71,0,l),
(228,0,l),
(228,697,l),
(71,697,l)
);
}
);
width = 299;
}
);
note = Idieresis;
unicode = 207;
},
{
glyphname = Idotaccent;
kernLeft = B;
kernRight = H;
layers = (
{
hints = (
{
horizontal = 1;
place = (0, 21);
target = up;
type = BottomGhost;
},
{
horizontal = 1;
place = (697, -20);
target = down;
type = TopGhost;
},
{
horizontal = 1;
place = (765, 136);
place = (765, 136);
type = Stem;
},
{
place = (73, 155);
place = (73, 155);
type = Stem;
},
{
place = (71, 156);
place = (71, 156);
type = Stem;
},
{
place = (71, 157);
place = (71, 157);
type = Stem;
}
);
layerId = m01;
shapes = (
{
closed = 1;
nodes = (
(73,765,l),
(227,765,l),
(227,901,l),
(73,901,l)
);
},
{
closed = 1;
nodes = (
(71,0,l),
(228,0,l),
(228,697,l),
(71,697,l)
);
}
);
width = 299;
}
);
note = Idotaccent;
unicode = 304;
},
{
glyphname = uni1ECA;
layers = (
{
hints = (
{
horizontal = 1;
place = (-173, 117);
place = (-173, 117);
type = Stem;
},
{
horizontal = 1;
place = (0, 21);
target = up;
type = BottomGhost;
},
{
horizontal = 1;
place = (697, -20);
target = down;
type = TopGhost;
},
{
place = (71, 157);
place = (71, 157);
type = Stem;
},
{
place = (73, 155);
place = (73, 155);
type = Stem;
},
{
place = (71, 156);
place = (71, 156);
type = Stem;
}
);
layerId = m01;
shapes = (
{
closed = 1;
nodes = (
(71,0,l),
(228,0,l),
(228,697,l),
(71,697,l)
);
},
{
closed = 1;
nodes = (
(73,-173,l),
(227,-173,l),
(227,-56,l),
(73,-56,l)
);
}
);
width = 299;
}
);
note = uni1ECA;
unicode = 7882;
},
{
glyphname = Igrave;
kernLeft = B;
kernRight = H;
layers = (
{
hints = (
{
horizontal = 1;
place = (0, 21);
target = up;
type = BottomGhost;
},
{
horizontal = 1;
place = (697, -20);
target = down;
type = TopGhost;
},
{
horizontal = 1;
place = (758, 143);
place = (758, 143);
type = Stem;
},
{
place = (71, 157);
place = (71, 157);
type = Stem;
}
);
layerId = m01;
shapes = (
{
closed = 1;
nodes = (
(94,758,l),
(205,758,l),
(101,901,l),
(-59,901,l)
);
},
{
closed = 1;
nodes = (
(71,0,l),
(228,0,l),
(228,697,l),
(71,697,l)
);
}
);
width = 299;
}
);
note = Igrave;
unicode = 204;
},
{
glyphname = uni1EC8;
layers = (
{
hints = (
{
horizontal = 1;
place = (0, 21);
target = up;
type = BottomGhost;
},
{
horizontal = 1;
place = (697, -20);
target = down;
type = TopGhost;
},
{
horizontal = 1;
place = (714, 61);
place = (714, 61);
type = Stem;
},
{
horizontal = 1;
place = (830, 92);
place = (830, 92);
type = Stem;
},
{
place = (71, 157);
place = (71, 157);
type = Stem;
},
{
place = (161, 105);
place = (161, 105);
type = Stem;
},
{
place = (161, 67);
place = (161, 67);
type = Stem;
}
);
layerId = m01;
shapes = (
{
closed = 1;
nodes = (
(123,714,l),
(181,722,o),
(266,736,o),
(266,815,cs),
(266,884,o),
(196,922,o),
(90,922,cs),
(74,922,l),
(74,830,l),
(90,830,ls),
(127,830,o),
(161,830,o),
(161,804,cs),
(161,780,o),
(134,779,o),
(106,775,c)
);
},
{
closed = 1;
nodes = (
(71,0,l),
(228,0,l),
(228,697,l),
(71,697,l)
);
}
);
width = 299;
}
);
note = uni1EC8;
unicode = 7880;
},
{
glyphname = Imacron;
kernLeft = B;
kernRight = H;
layers = (
{
hints = (
{
horizontal = 1;
place = (0, 21);
target = up;
type = BottomGhost;
},
{
horizontal = 1;
place = (697, -20);
target = down;
type = TopGhost;
},
{
horizontal = 1;
place = (750, 87);
place = (750, 87);
type = Stem;
},
{
place = (71, 157);
place = (71, 157);
type = Stem;
}
);
layerId = m01;
shapes = (
{
closed = 1;
nodes = (
(11,750,l),
(289,750,l),
(289,837,l),
(11,837,l)
);
},
{
closed = 1;
nodes = (
(71,0,l),
(228,0,l),
(228,697,l),
(71,697,l)
);
}
);
width = 299;
}
);
note = Imacron;
unicode = 298;
},
{
glyphname = Iogonek;
kernLeft = B;
kernRight = H;
layers = (
{
hints = (
{
horizontal = 1;
place = (-227, 92);
place = (-227, 92);
type = Stem;
},
{
horizontal = 1;
place = (0, 21);
target = up;
type = BottomGhost;
},
{
horizontal = 1;
place = (697, -20);
target = down;
type = TopGhost;
},
{
place = (71, 52);
place = (71, 52);
type = Stem;
},
{
place = (71, 157);
place = (71, 157);
type = Stem;
},
{
place = (34, 89);
place = (34, 89);
type = Stem;
}
);
layerId = m01;
shapes = (
{
closed = 1;
nodes = (
(198,-107,l),
(189,-124,o),
(176,-135,o),
(155,-135,cs),
(138,-135,o),
(123,-128,o),
(123,-100,cs),
(123,-46,o),
(209,-5,o),
(228,0,c),
(228,697,l),
(71,697,l),
(71,0,l),
(110,0,l),
(84,-14,o),
(34,-49,o),
(34,-116,cs),
(34,-182,o),
(87,-227,o),
(159,-227,cs),
(219,-227,o),
(253,-195,o),
(276,-158,c)
);
}
);
width = 299;
}
);
note = Iogonek;
unicode = 302;
},
{
glyphname = Itilde;
layers = (
{
hints = (
{
horizontal = 1;
place = (0, 21);
target = up;
type = BottomGhost;
},
{
horizontal = 1;
place = (697, -20);
target = down;
type = TopGhost;
},
{
horizontal = 1;
place = (752, 149);
place = (752, 149);
type = Stem;
},
{
place = (71, 157);
place = (71, 157);
type = Stem;
},
{
place = (231, 90);
place = (231, 90);
type = Stem;
},
{
horizontal = 1;
place = (752, 91);
place = (752, 91);
type = Stem;
},
{
horizontal = 1;
place = (751, 152);
place = (751, 152);
type = Stem;
},
{
place = (-22, 86);
place = (-22, 86);
type = Stem;
},
{
horizontal = 1;
place = (811, 92);
place = (811, 92);
type = Stem;
}
);
layerId = m01;
shapes = (
{
closed = 1;
nodes = (
(278,752,o),
(321,803,o),
(321,901,c),
(231,901,l),
(231,862,o),
(222,843,o),
(211,843,cs),
(187,843,o),
(157,903,o),
(92,903,cs),
(22,903,o),
(-22,848,o),
(-22,751,c),
(64,751,l),
(64,791,o),
(72,811,o),
(85,811,cs),
(112,811,o),
(134,752,o),
(209,752,cs)
);
},
{
closed = 1;
nodes = (
(71,0,l),
(228,0,l),
(228,697,l),
(71,697,l)
);
}
);
width = 299;
}
);
note = Itilde;
unicode = 296;
},
{
glyphname = J;
kernLeft = J;
kernRight = J;
lastChange = "2022-12-23 05:19:35 +0000";
layers = (
{
hints = (
{
horizontal = 1;
place = (-18, 145);
place = (-18, 145);
type = Stem;
},
{
horizontal = 1;
place = (553, 144);
place = (553, 144);
type = Stem;
},
{
place = (-1, 155);
place = (-1, 155);
type = Stem;
},
{
place = (329, 158);
place = (329, 158);
type = Stem;
}
);
layerId = m01;
shapes = (
{
closed = 1;
nodes = (
(-2,225,o),
(2,195,qs),
(17,93,o),
(144,-18,o),
(243,-18,qs),
(299,-18,o),
(389,18,o),
(452,84,o),
(487,179,o),
(487,238,qs),
(487,697,l),
(202,697,l),
(78,629,l),
(78,553,l),
(329,553,l),
(329,247,ls),
(329,192,o),
(294,127,o),
(243,127,qs),
(199,127,o),
(158,179,o),
(154,242,q),
(29,228,ls)
);
}
);
width = 543;
}
);
note = J;
unicode = 74;
},
{
glyphname = K;
kernLeft = B;
kernRight = K;
lastChange = "2022-12-23 05:20:21 +0000";
layers = (
{
hints = (
{
horizontal = 1;
place = (0, 21);
target = up;
type = BottomGhost;
},
{
horizontal = 1;
place = (697, -20);
target = down;
type = TopGhost;
},
{
place = (71, 157);
place = (71, 157);
type = Stem;
}
);
layerId = m01;
shapes = (
{
closed = 1;
nodes = (
(660,0,o),
(646,27,qs),
(440,428,l),
(707,697,l),
(501,697,l),
(228,410,l),
(228,697,l),
(150,697,l),
(71,597,l),
(71,0,l),
(228,0,l),
(228,213,l),
(334,320,l),
(478,0,l),
(630,0,ls)
);
}
);
width = 699;
}
);
note = K;
unicode = 75;
},
{
glyphname = uni0136;
kernLeft = B;
kernRight = K;
layers = (
{
hints = (
{
horizontal = 1;
place = (-229, 178);
place = (-229, 178);
type = Stem;
},
{
horizontal = 1;
place = (0, 21);
target = up;
type = BottomGhost;
},
{
horizontal = 1;
place = (697, -20);
target = down;
type = TopGhost;
},
{
place = (71, 157);
place = (71, 157);
type = Stem;
}
);
layerId = m01;
shapes = (
{
closed = 1;
nodes = (
(440,428,l),
(707,697,l),
(501,697,l),
(228,410,l),
(228,697,l),
(71,697,l),
(71,0,l),
(228,0,l),
(228,213,l),
(334,320,l),
(527,0,l),
(709,0,l)
);
},
{
closed = 1;
nodes = (
(215,-229,l),
(301,-229,l),
(426,-51,l),
(269,-51,l)
);
}
);
width = 699;
}
);
note = uni0136;
unicode = 310;
},
{
glyphname = L;
kernLeft = B;
kernRight = L;
layers = (
{
hints = (
{
horizontal = 1;
place = (0, 144);
place = (0, 144);
type = Stem;
},
{
horizontal = 1;
place = (697, -20);
target = down;
type = TopGhost;
},
{
place = (71, 157);
place = (71, 157);
type = Stem;
}
);
layerId = m01;
shapes = (
{
closed = 1;
nodes = (
(71,0,l),
(514,0,l),
(514,144,l),
(228,144,l),
(228,697,l),
(71,697,l)
);
}
);
width = 509;
}
);
note = L;
unicode = 76;
},
{
glyphname = Lacute;
kernLeft = B;
kernRight = L;
layers = (
{
hints = (
{
horizontal = 1;
place = (0, 144);
place = (0, 144);
type = Stem;
},
{
horizontal = 1;
place = (697, -20);
target = down;
type = TopGhost;
},
{
horizontal = 1;
place = (758, 143);
place = (758, 143);
type = Stem;
},
{
place = (71, 157);
place = (71, 157);
type = Stem;
}
);
layerId = m01;
shapes = (
{
closed = 1;
nodes = (
(95,758,l),
(204,758,l),
(370,901,l),
(208,901,l)
);
},
{
closed = 1;
nodes = (
(71,0,l),
(514,0,l),
(514,144,l),
(228,144,l),
(228,697,l),
(71,697,l)
);
}
);
width = 509;
}
);
note = Lacute;
unicode = 313;
},
{
glyphname = Lcaron;
kernLeft = B;
kernRight = L;
layers = (
{
hints = (
{
horizontal = 1;
place = (0, 144);
place = (0, 144);
type = Stem;
},
{
horizontal = 1;
place = (463, 234);
place = (463, 234);
type = Stem;
},
{
place = (71, 157);
place = (71, 157);
type = Stem;
}
);
layerId = m01;
shapes = (
{
closed = 1;
nodes = (
(71,0,l),
(514,0,l),
(514,144,l),
(228,144,l),
(228,697,l),
(71,697,l)
);
},
{
closed = 1;
nodes = (
(337,463,l),
(424,463,l),
(550,697,l),
(392,697,l)
);
}
);
width = 509;
}
);
note = Lcaron;
unicode = 317;
},
{
glyphname = uni013B;
kernLeft = B;
kernRight = L;
layers = (
{
hints = (
{
horizontal = 1;
place = (-229, 178);
place = (-229, 178);
type = Stem;
},
{
horizontal = 1;
place = (0, 144);
place = (0, 144);
type = Stem;
},
{
horizontal = 1;
place = (697, -20);
target = down;
type = TopGhost;
},
{
place = (71, 157);
place = (71, 157);
type = Stem;
}
);
layerId = m01;
shapes = (
{
closed = 1;
nodes = (
(71,0,l),
(514,0,l),
(514,144,l),
(228,144,l),
(228,697,l),
(71,697,l)
);
},
{
closed = 1;
nodes = (
(160,-229,l),
(246,-229,l),
(371,-51,l),
(214,-51,l)
);
}
);
width = 509;
}
);
note = uni013B;
unicode = 315;
},
{
glyphname = Lslash;
layers = (
{
hints = (
{
horizontal = 1;
place = (0, 144);
place = (0, 144);
type = Stem;
},
{
horizontal = 1;
place = (697, -20);
target = down;
type = TopGhost;
},
{
place = (71, 157);
place = (71, 157);
type = Stem;
}
);
layerId = m01;
shapes = (
{
closed = 1;
nodes = (
(228,144,l),
(228,295,l),
(315,364,l),
(315,517,l),
(228,448,l),
(228,697,l),
(71,697,l),
(71,324,l),
(21,285,l),
(21,130,l),
(71,170,l),
(71,0,l),
(514,0,l),
(514,144,l)
);
}
);
width = 509;
}
);
note = Lslash;
unicode = 321;
},
{
glyphname = M;
kernLeft = B;
kernRight = H;
lastChange = "2022-12-23 05:20:49 +0000";
layers = (
{
hints = (
{
horizontal = 1;
place = (0, 21);
target = up;
type = BottomGhost;
},
{
horizontal = 1;
place = (697, -20);
target = down;
type = TopGhost;
},
{
place = (71, 157);
place = (71, 157);
type = Stem;
},
{
place = (663, 157);
place = (663, 157);
type = Stem;
}
);
layerId = m01;
shapes = (
{
closed = 1;
nodes = (
(228,0,o),
(228,30,qs),
(228,469,l),
(370,63,l),
(521,63,l),
(663,471,l),
(663,30,ls),
(663,0,o),
(693,0,qs),
(820,0,l),
(820,697,l),
(596,697,l),
(444,251,l),
(295,697,l),
(71,697,l),
(71,0,l),
(198,0,ls)
);
}
);
width = 891;
}
);
note = M;
unicode = 77;
},
{
glyphname = N;
kernLeft = B;
kernRight = H;
lastChange = "2022-12-23 05:20:58 +0000";
layers = (
{
hints = (
{
horizontal = 1;
place = (0, 21);
target = up;
type = BottomGhost;
},
{
horizontal = 1;
place = (697, -20);
target = down;
type = TopGhost;
},
{
place = (71, 157);
place = (71, 157);
type = Stem;
},
{
place = (494, 157);
place = (494, 157);
type = Stem;
}
);
layerId = m01;
shapes = (
{
closed = 1;
nodes = (
(494,272,l),
(231,697,l),
(71,697,l),
(71,0,l),
(150,0,l),
(228,100,l),
(228,427,l),
(490,0,l),
(651,0,l),
(651,697,l),
(494,697,l)
);
}
);
width = 722;
}
);
note = N;
unicode = 78;
},
{
glyphname = Nacute;
kernLeft = B;
kernRight = H;
layers = (
{
hints = (
{
horizontal = 1;
place = (0, 21);
target = up;
type = BottomGhost;
},
{
horizontal = 1;
place = (697, -20);
target = down;
type = TopGhost;
},
{
horizontal = 1;
place = (758, 143);
place = (758, 143);
type = Stem;
},
{
place = (71, 157);
place = (71, 157);
type = Stem;
},
{
place = (494, 157);
place = (494, 157);
type = Stem;
}
);
layerId = m01;
shapes = (
{
closed = 1;
nodes = (
(582,901,l),
(420,901,l),
(307,758,l),
(416,758,l)
);
},
{
closed = 1;
nodes = (
(494,697,l),
(494,272,l),
(231,697,l),
(71,697,l),
(71,0,l),
(228,0,l),
(228,427,l),
(490,0,l),
(651,0,l),
(651,697,l)
);
}
);
width = 722;
}
);
note = Nacute;
unicode = 323;
},
{
glyphname = Ncaron;
kernLeft = B;
kernRight = H;
layers = (
{
hints = (
{
horizontal = 1;
place = (0, 21);
target = up;
type = BottomGhost;
},
{
horizontal = 1;
place = (697, -20);
target = down;
type = TopGhost;
},
{
place = (71, 157);
place = (71, 157);
type = Stem;
},
{
place = (494, 157);
place = (494, 157);
type = Stem;
}
);
layerId = m01;
shapes = (
{
closed = 1;
nodes = (
(522,901,l),
(408,901,l),
(362,851,l),
(317,901,l),
(202,901,l),
(362,730,l)
);
},
{
closed = 1;
nodes = (
(494,697,l),
(494,272,l),
(231,697,l),
(71,697,l),
(71,0,l),
(228,0,l),
(228,427,l),
(490,0,l),
(651,0,l),
(651,697,l)
);
}
);
width = 722;
}
);
note = Ncaron;
unicode = 327;
},
{
glyphname = uni0145;
kernLeft = B;
kernRight = H;
layers = (
{
hints = (
{
horizontal = 1;
place = (-229, 178);
place = (-229, 178);
type = Stem;
},
{
horizontal = 1;
place = (0, 21);
target = up;
type = BottomGhost;
},
{
horizontal = 1;
place = (697, -20);
target = down;
type = TopGhost;
},
{
place = (71, 157);
place = (71, 157);
type = Stem;
},
{
place = (494, 157);
place = (494, 157);
type = Stem;
}
);
layerId = m01;
shapes = (
{
closed = 1;
nodes = (
(494,697,l),
(494,272,l),
(231,697,l),
(71,697,l),
(71,0,l),
(228,0,l),
(228,427,l),
(490,0,l),
(651,0,l),
(651,697,l)
);
},
{
closed = 1;
nodes = (
(229,-229,l),
(315,-229,l),
(440,-51,l),
(283,-51,l)
);
}
);
width = 722;
}
);
note = uni0145;
unicode = 325;
},
{
glyphname = Eng;
kernLeft = B;
kernRight = H;
layers = (
{
hints = (
{
horizontal = 1;
place = (-189, 102);
place = (-189, 102);
type = Stem;
},
{
horizontal = 1;
place = (0, 21);
target = up;
type = BottomGhost;
},
{
horizontal = 1;
place = (697, -20);
target = down;
type = TopGhost;
},
{
place = (71, 157);
place = (71, 157);
type = Stem;
},
{
place = (494, 157);
place = (494, 157);
type = Stem;
},
{
place = (501, 150);
place = (501, 150);
type = Stem;
}
);
layerId = m01;
shapes = (
{
closed = 1;
nodes = (
(494,697,l),
(494,282,l),
(231,697,l),
(71,697,l),
(71,0,l),
(228,0,l),
(228,418,l),
(490,0,ls),
(500,-16,o),
(501,-31,o),
(501,-39,cs),
(501,-65,o),
(474,-87,o),
(422,-87,cs),
(394,-87,l),
(396,-186,l),
(423,-189,o),
(443,-189,o),
(465,-189,cs),
(605,-189,o),
(651,-89,o),
(651,8,cs),
(651,697,l)
);
}
);
width = 722;
}
);
note = Eng;
unicode = 330;
},
{
glyphname = Ntilde;
kernLeft = B;
kernRight = H;
layers = (
{
hints = (
{
horizontal = 1;
place = (0, 21);
target = up;
type = BottomGhost;
},
{
horizontal = 1;
place = (697, -20);
target = down;
type = TopGhost;
},
{
horizontal = 1;
place = (811, 92);
place = (811, 92);
type = Stem;
},
{
place = (190, 86);
place = (190, 86);
type = Stem;
},
{
place = (494, 157);
place = (494, 157);
type = Stem;
},
{
horizontal = 1;
place = (752, 149);
place = (752, 149);
type = Stem;
},
{
place = (71, 157);
place = (71, 157);
type = Stem;
},
{
place = (443, 90);
place = (443, 90);
type = Stem;
},
{
horizontal = 1;
place = (752, 91);
place = (752, 91);
type = Stem;
},
{
horizontal = 1;
place = (751, 152);
place = (751, 152);
type = Stem;
}
);
layerId = m01;
shapes = (
{
closed = 1;
nodes = (
(324,811,o),
(346,752,o),
(421,752,cs),
(490,752,o),
(533,803,o),
(533,901,c),
(443,901,l),
(443,862,o),
(434,843,o),
(423,843,cs),
(399,843,o),
(369,903,o),
(304,903,cs),
(234,903,o),
(190,848,o),
(190,751,c),
(276,751,l),
(276,791,o),
(284,811,o),
(297,811,cs)
);
},
{
closed = 1;
nodes = (
(494,697,l),
(494,272,l),
(231,697,l),
(71,697,l),
(71,0,l),
(228,0,l),
(228,427,l),
(490,0,l),
(651,0,l),
(651,697,l)
);
}
);
width = 722;
}
);
note = Ntilde;
unicode = 209;
},
{
glyphname = O;
kernLeft = C;
kernRight = D;
lastChange = "2022-12-23 05:21:28 +0000";
layers = (
{
hints = (
{
horizontal = 1;
place = (-18, 150);
place = (-18, 150);
type = Stem;
},
{
horizontal = 1;
place = (565, 150);
place = (565, 150);
type = Stem;
},
{
place = (21, 157);
place = (21, 157);
type = Stem;
},
{
place = (546, 158);
place = (546, 158);
type = Stem;
}
);
layerId = m01;
shapes = (
{
closed = 1;
nodes = (
(564,-18,o),
(704,128,o),
(704,348,cs),
(704,569,o),
(566,715,o),
(362,715,cs),
(160,715,o),
(21,568,o),
(21,348,cs),
(21,129,o),
(160,-18,o),
(362,-18,cs)
);
},
{
closed = 1;
nodes = (
(250,105,o),
(178,213,o),
(178,348,cs),
(178,484,o),
(250,592,o),
(362,592,cs),
(475,592,o),
(546,482,o),
(546,348,cs),
(546,215,o),
(475,105,o),
(362,105,cs)
);
}
);
width = 725;
}
);
note = O;
unicode = 79;
},
{
glyphname = Oacute;
kernLeft = C;
kernRight = D;
layers = (
{
hints = (
{
horizontal = 1;
place = (-18, 150);
place = (-18, 150);
type = Stem;
},
{
horizontal = 1;
place = (565, 150);
place = (565, 150);
type = Stem;
},
{
horizontal = 1;
place = (758, 143);
place = (758, 143);
type = Stem;
},
{
place = (21, 157);
place = (21, 157);
type = Stem;
},
{
place = (546, 158);
place = (546, 158);
type = Stem;
}
);
layerId = m01;
shapes = (
{
closed = 1;
nodes = (
(307,758,l),
(416,758,l),
(582,901,l),
(420,901,l)
);
},
{
closed = 1;
nodes = (
(564,-18,o),
(704,128,o),
(704,348,cs),
(704,569,o),
(566,715,o),
(362,715,cs),
(160,715,o),
(21,568,o),
(21,348,cs),
(21,129,o),
(160,-18,o),
(362,-18,cs)
);
},
{
closed = 1;
nodes = (
(250,132,o),
(178,213,o),
(178,348,cs),
(178,484,o),
(250,565,o),
(362,565,cs),
(475,565,o),
(546,482,o),
(546,348,cs),
(546,215,o),
(475,132,o),
(362,132,cs)
);
}
);
width = 725;
}
);
note = Oacute;
unicode = 211;
},
{
glyphname = uni01D1;
kernLeft = C;
kernRight = D;
layers = (
{
hints = (
{
horizontal = 1;
place = (-18, 150);
place = (-18, 150);
type = Stem;
},
{
horizontal = 1;
place = (565, 150);
place = (565, 150);
type = Stem;
},
{
place = (21, 157);
place = (21, 157);
type = Stem;
},
{
place = (546, 158);
place = (546, 158);
type = Stem;
}
);
layerId = m01;
shapes = (
{
closed = 1;
nodes = (
(362,730,l),
(522,901,l),
(408,901,l),
(362,851,l),
(317,901,l),
(202,901,l)
);
},
{
closed = 1;
nodes = (
(564,-18,o),
(704,128,o),
(704,348,cs),
(704,569,o),
(566,715,o),
(362,715,cs),
(160,715,o),
(21,568,o),
(21,348,cs),
(21,129,o),
(160,-18,o),
(362,-18,cs)
);
},
{
closed = 1;
nodes = (
(250,132,o),
(178,213,o),
(178,348,cs),
(178,484,o),
(250,565,o),
(362,565,cs),
(475,565,o),
(546,482,o),
(546,348,cs),
(546,215,o),
(475,132,o),
(362,132,cs)
);
}
);
width = 725;
}
);
note = uni01D1;
unicode = 465;
},
{
glyphname = Ocircumflex;
kernLeft = C;
kernRight = D;
layers = (
{
hints = (
{
horizontal = 1;
place = (-18, 150);
place = (-18, 150);
type = Stem;
},
{
horizontal = 1;
place = (565, 150);
place = (565, 150);
type = Stem;
},
{
place = (21, 157);
place = (21, 157);
type = Stem;
},
{
place = (546, 158);
place = (546, 158);
type = Stem;
}
);
layerId = m01;
shapes = (
{
closed = 1;
nodes = (
(202,741,l),
(316,741,l),
(362,797,l),
(408,741,l),
(522,741,l),
(362,924,l)
);
},
{
closed = 1;
nodes = (
(564,-18,o),
(704,128,o),
(704,348,cs),
(704,569,o),
(566,715,o),
(362,715,cs),
(160,715,o),
(21,568,o),
(21,348,cs),
(21,129,o),
(160,-18,o),
(362,-18,cs)
);
},
{
closed = 1;
nodes = (
(250,132,o),
(178,213,o),
(178,348,cs),
(178,484,o),
(250,565,o),
(362,565,cs),
(475,565,o),
(546,482,o),
(546,348,cs),
(546,215,o),
(475,132,o),
(362,132,cs)
);
}
);
width = 725;
}
);
note = Ocircumflex;
unicode = 212;
},
{
glyphname = uni1ED0;
kernLeft = C;
kernRight = D;
layers = (
{
hints = (
{
horizontal = 1;
place = (-18, 150);
place = (-18, 150);
type = Stem;
},
{
horizontal = 1;
place = (565, 150);
place = (565, 150);
type = Stem;
},
{
horizontal = 1;
place = (945, 143);
place = (945, 143);
type = Stem;
},
{
place = (21, 157);
place = (21, 157);
type = Stem;
},
{
place = (546, 158);
place = (546, 158);
type = Stem;
}
);
layerId = m01;
shapes = (
{
closed = 1;
nodes = (
(307,945,l),
(416,945,l),
(582,1088,l),
(420,1088,l)
);
},
{
closed = 1;
nodes = (
(202,741,l),
(316,741,l),
(362,797,l),
(408,741,l),
(522,741,l),
(362,924,l)
);
},
{
closed = 1;
nodes = (
(564,-18,o),
(704,128,o),
(704,348,cs),
(704,569,o),
(566,715,o),
(362,715,cs),
(160,715,o),
(21,568,o),
(21,348,cs),
(21,129,o),
(160,-18,o),
(362,-18,cs)
);
},
{
closed = 1;
nodes = (
(250,132,o),
(178,213,o),
(178,348,cs),
(178,484,o),
(250,565,o),
(362,565,cs),
(475,565,o),
(546,482,o),
(546,348,cs),
(546,215,o),
(475,132,o),
(362,132,cs)
);
}
);
width = 725;
}
);
note = uni1ED0;
unicode = 7888;
},
{
glyphname = uni1ED8;
kernLeft = C;
kernRight = D;
layers = (
{
hints = (
{
horizontal = 1;
place = (-173, 117);
place = (-173, 117);
type = Stem;
},
{
horizontal = 1;
place = (-18, 150);
place = (-18, 150);
type = Stem;
},
{
horizontal = 1;
place = (565, 150);
place = (565, 150);
type = Stem;
},
{
place = (21, 157);
place = (21, 157);
type = Stem;
},
{
place = (286, 154);
place = (286, 154);
type = Stem;
},
{
place = (546, 158);
place = (546, 158);
type = Stem;
}
);
layerId = m01;
shapes = (
{
closed = 1;
nodes = (
(202,741,l),
(316,741,l),
(362,797,l),
(408,741,l),
(522,741,l),
(362,924,l)
);
},
{
closed = 1;
nodes = (
(564,-18,o),
(704,128,o),
(704,348,cs),
(704,569,o),
(566,715,o),
(362,715,cs),
(160,715,o),
(21,568,o),
(21,348,cs),
(21,129,o),
(160,-18,o),
(362,-18,cs)
);
},
{
closed = 1;
nodes = (
(250,132,o),
(178,213,o),
(178,348,cs),
(178,484,o),
(250,565,o),
(362,565,cs),
(475,565,o),
(546,482,o),
(546,348,cs),
(546,215,o),
(475,132,o),
(362,132,cs)
);
},
{
closed = 1;
nodes = (
(286,-173,l),
(440,-173,l),
(440,-56,l),
(286,-56,l)
);
}
);
width = 725;
}
);
note = uni1ED8;
unicode = 7896;
},
{
glyphname = uni1ED2;
kernLeft = C;
kernRight = D;
layers = (
{
hints = (
{
horizontal = 1;
place = (-18, 150);
place = (-18, 150);
type = Stem;
},
{
horizontal = 1;
place = (565, 150);
place = (565, 150);
type = Stem;
},
{
horizontal = 1;
place = (945, 143);
place = (945, 143);
type = Stem;
},
{
place = (21, 157);
place = (21, 157);
type = Stem;
},
{
place = (546, 158);
place = (546, 158);
type = Stem;
}
);
layerId = m01;
shapes = (
{
closed = 1;
nodes = (
(306,945,l),
(417,945,l),
(313,1088,l),
(153,1088,l)
);
},
{
closed = 1;
nodes = (
(202,741,l),
(316,741,l),
(362,797,l),
(408,741,l),
(522,741,l),
(362,924,l)
);
},
{
closed = 1;
nodes = (
(564,-18,o),
(704,128,o),
(704,348,cs),
(704,569,o),
(566,715,o),
(362,715,cs),
(160,715,o),
(21,568,o),
(21,348,cs),
(21,129,o),
(160,-18,o),
(362,-18,cs)
);
},
{
closed = 1;
nodes = (
(250,132,o),
(178,213,o),
(178,348,cs),
(178,484,o),
(250,565,o),
(362,565,cs),
(475,565,o),
(546,482,o),
(546,348,cs),
(546,215,o),
(475,132,o),
(362,132,cs)
);
}
);
width = 725;
}
);
note = uni1ED2;
unicode = 7890;
},
{
glyphname = uni1ED4;
kernLeft = C;
kernRight = D;
layers = (
{
hints = (
{
horizontal = 1;
place = (-18, 150);
place = (-18, 150);
type = Stem;
},
{
horizontal = 1;
place = (565, 150);
place = (565, 150);
type = Stem;
},
{
horizontal = 1;
place = (741, 221);
place = (741, 221);
type = Stem;
},
{
horizontal = 1;
place = (1017, 92);
place = (1017, 92);
type = Stem;
},
{
place = (21, 157);
place = (21, 157);
type = Stem;
},
{
place = (373, 105);
place = (373, 105);
type = Stem;
},
{
place = (546, 158);
place = (546, 158);
type = Stem;
},
{
horizontal = 1;
place = (901.5, 60.5);
place = (901.5, 60.5);
type = Stem;
}
);
layerId = m01;
shapes = (
{
closed = 1;
nodes = (
(316,741,l),
(362,797,l),
(408,741,l),
(522,741,l),
(376,908,l),
(426,918,o),
(478,940,o),
(478,1002,cs),
(478,1071,o),
(408,1109,o),
(302,1109,cs),
(286,1109,l),
(286,1017,l),
(302,1017,ls),
(339,1017,o),
(373,1017,o),
(373,991,cs),
(373,967,o),
(346,966,o),
(318,962,c),
(335,901,l),
(338,901,o),
(340,902,o),
(343,902,c),
(202,741,l)
);
},
{
closed = 1;
nodes = (
(160,715,o),
(21,568,o),
(21,348,cs),
(21,129,o),
(160,-18,o),
(362,-18,cs),
(564,-18,o),
(704,128,o),
(704,348,cs),
(704,569,o),
(566,715,o),
(362,715,cs)
);
},
{
closed = 1;
nodes = (
(250,132,o),
(178,213,o),
(178,348,cs),
(178,484,o),
(250,565,o),
(362,565,cs),
(475,565,o),
(546,482,o),
(546,348,cs),
(546,215,o),
(475,132,o),
(362,132,cs)
);
}
);
width = 725;
}
);
note = uni1ED4;
unicode = 7892;
},
{
glyphname = uni1ED6;
kernLeft = C;
kernRight = D;
layers = (
{
hints = (
{
horizontal = 1;
place = (-18, 150);
place = (-18, 150);
type = Stem;
},
{
horizontal = 1;
place = (565, 150);
place = (565, 150);
type = Stem;
},
{
horizontal = 1;
place = (939, 149);
place = (939, 149);
type = Stem;
},
{
place = (21, 157);
place = (21, 157);
type = Stem;
},
{
place = (546, 158);
place = (546, 158);
type = Stem;
},
{
place = (443, 90);
place = (443, 90);
type = Stem;
},
{
horizontal = 1;
place = (939, 91);
place = (939, 91);
type = Stem;
},
{
horizontal = 1;
place = (938, 152);
place = (938, 152);
type = Stem;
},
{
place = (190, 86);
place = (190, 86);
type = Stem;
},
{
horizontal = 1;
place = (998, 92);
place = (998, 92);
type = Stem;
}
);
layerId = m01;
shapes = (
{
closed = 1;
nodes = (
(490,939,o),
(533,990,o),
(533,1088,c),
(443,1088,l),
(443,1049,o),
(434,1030,o),
(423,1030,cs),
(399,1030,o),
(369,1090,o),
(304,1090,cs),
(234,1090,o),
(190,1035,o),
(190,938,c),
(276,938,l),
(276,978,o),
(284,998,o),
(297,998,cs),
(324,998,o),
(346,939,o),
(421,939,cs)
);
},
{
closed = 1;
nodes = (
(202,741,l),
(316,741,l),
(362,797,l),
(408,741,l),
(522,741,l),
(362,924,l)
);
},
{
closed = 1;
nodes = (
(564,-18,o),
(704,128,o),
(704,348,cs),
(704,569,o),
(566,715,o),
(362,715,cs),
(160,715,o),
(21,568,o),
(21,348,cs),
(21,129,o),
(160,-18,o),
(362,-18,cs)
);
},
{
closed = 1;
nodes = (
(250,132,o),
(178,213,o),
(178,348,cs),
(178,484,o),
(250,565,o),
(362,565,cs),
(475,565,o),
(546,482,o),
(546,348,cs),
(546,215,o),
(475,132,o),
(362,132,cs)
);
}
);
width = 725;
}
);
note = uni1ED6;
unicode = 7894;
},
{
glyphname = Odieresis;
kernLeft = C;
kernRight = D;
layers = (
{
hints = (
{
horizontal = 1;
place = (-18, 150);
place = (-18, 150);
type = Stem;
},
{
horizontal = 1;
place = (565, 150);
place = (565, 150);
type = Stem;
},
{
horizontal = 1;
place = (765, 136);
place = (765, 136);
type = Stem;
},
{
place = (203, 114);
place = (203, 114);
type = Stem;
},
{
place = (407, 114);
place = (407, 114);
type = Stem;
},
{
place = (21, 157);
place = (21, 157);
type = Stem;
},
{
place = (546, 158);
place = (546, 158);
type = Stem;
}
);
layerId = m01;
shapes = (
{
closed = 1;
nodes = (
(203,765,l),
(317,765,l),
(317,901,l),
(203,901,l)
);
},
{
closed = 1;
nodes = (
(407,765,l),
(521,765,l),
(521,901,l),
(407,901,l)
);
},
{
closed = 1;
nodes = (
(564,-18,o),
(704,128,o),
(704,348,cs),
(704,569,o),
(566,715,o),
(362,715,cs),
(160,715,o),
(21,568,o),
(21,348,cs),
(21,129,o),
(160,-18,o),
(362,-18,cs)
);
},
{
closed = 1;
nodes = (
(250,132,o),
(178,213,o),
(178,348,cs),
(178,484,o),
(250,565,o),
(362,565,cs),
(475,565,o),
(546,482,o),
(546,348,cs),
(546,215,o),
(475,132,o),
(362,132,cs)
);
}
);
width = 725;
}
);
note = Odieresis;
unicode = 214;
},
{
glyphname = uni1ECC;
kernLeft = C;
kernRight = D;
layers = (
{
hints = (
{
horizontal = 1;
place = (-173, 117);
place = (-173, 117);
type = Stem;
},
{
horizontal = 1;
place = (-18, 150);
place = (-18, 150);
type = Stem;
},
{
horizontal = 1;
place = (565, 150);
place = (565, 150);
type = Stem;
},
{
place = (21, 157);
place = (21, 157);
type = Stem;
},
{
place = (286, 154);
place = (286, 154);
type = Stem;
},
{
place = (546, 158);
place = (546, 158);
type = Stem;
}
);
layerId = m01;
shapes = (
{
closed = 1;
nodes = (
(564,-18,o),
(704,128,o),
(704,348,cs),
(704,569,o),
(566,715,o),
(362,715,cs),
(160,715,o),
(21,568,o),
(21,348,cs),
(21,129,o),
(160,-18,o),
(362,-18,cs)
);
},
{
closed = 1;
nodes = (
(250,132,o),
(178,213,o),
(178,348,cs),
(178,484,o),
(250,565,o),
(362,565,cs),
(475,565,o),
(546,482,o),
(546,348,cs),
(546,215,o),
(475,132,o),
(362,132,cs)
);
},
{
closed = 1;
nodes = (
(286,-173,l),
(440,-173,l),
(440,-56,l),
(286,-56,l)
);
}
);
width = 725;
}
);
note = uni1ECC;
unicode = 7884;
},
{
glyphname = Ograve;
kernLeft = C;
kernRight = D;
layers = (
{
hints = (
{
horizontal = 1;
place = (-18, 150);
place = (-18, 150);
type = Stem;
},
{
horizontal = 1;
place = (565, 150);
place = (565, 150);
type = Stem;
},
{
horizontal = 1;
place = (758, 143);
place = (758, 143);
type = Stem;
},
{
place = (21, 157);
place = (21, 157);
type = Stem;
},
{
place = (546, 158);
place = (546, 158);
type = Stem;
}
);
layerId = m01;
shapes = (
{
closed = 1;
nodes = (
(306,758,l),
(417,758,l),
(313,901,l),
(153,901,l)
);
},
{
closed = 1;
nodes = (
(564,-18,o),
(704,128,o),
(704,348,cs),
(704,569,o),
(566,715,o),
(362,715,cs),
(160,715,o),
(21,568,o),
(21,348,cs),
(21,129,o),
(160,-18,o),
(362,-18,cs)
);
},
{
closed = 1;
nodes = (
(250,132,o),
(178,213,o),
(178,348,cs),
(178,484,o),
(250,565,o),
(362,565,cs),
(475,565,o),
(546,482,o),
(546,348,cs),
(546,215,o),
(475,132,o),
(362,132,cs)
);
}
);
width = 725;
}
);
note = Ograve;
unicode = 210;
},
{
glyphname = uni1ECE;
kernLeft = C;
kernRight = D;
layers = (
{
hints = (
{
horizontal = 1;
place = (-18, 150);
place = (-18, 150);
type = Stem;
},
{
horizontal = 1;
place = (565, 150);
place = (565, 150);
type = Stem;
},
{
horizontal = 1;
place = (830, 92);
place = (830, 92);
type = Stem;
},
{
place = (21, 157);
place = (21, 157);
type = Stem;
},
{
place = (373, 105);
place = (373, 105);
type = Stem;
},
{
place = (546, 158);
place = (546, 158);
type = Stem;
},
{
horizontal = 1;
place = (714, 61);
place = (714, 61);
type = Stem;
},
{
horizontal = 1;
place = (565, 149);
place = (565, 149);
type = Stem;
}
);
layerId = m01;
shapes = (
{
closed = 1;
nodes = (
(353,715,o),
(345,715,o),
(336,714,cs),
(394,722,o),
(478,737,o),
(478,815,cs),
(478,884,o),
(408,922,o),
(302,922,cs),
(286,922,l),
(286,830,l),
(302,830,ls),
(339,830,o),
(373,830,o),
(373,804,cs),
(373,780,o),
(346,779,o),
(318,775,c),
(335,714,l),
(148,702,o),
(21,558,o),
(21,348,cs),
(21,129,o),
(160,-18,o),
(362,-18,cs),
(564,-18,o),
(704,128,o),
(704,348,cs),
(704,569,o),
(566,715,o),
(362,715,cs)
);
},
{
closed = 1;
nodes = (
(250,132,o),
(178,213,o),
(178,348,cs),
(178,484,o),
(250,565,o),
(362,565,cs),
(475,565,o),
(546,482,o),
(546,348,cs),
(546,215,o),
(475,132,o),
(362,132,cs)
);
}
);
width = 725;
}
);
note = uni1ECE;
unicode = 7886;
},
{
glyphname = Ohorn;
kernLeft = C;
kernRight = D;
layers = (
{
hints = (
{
horizontal = 1;
place = (-18, 150);
place = (-18, 150);
type = Stem;
},
{
horizontal = 1;
place = (697, -20);
target = down;
type = TopGhost;
},
{
place = (21, 157);
place = (21, 157);
type = Stem;
},
{
place = (653, 104);
place = (653, 104);
type = Stem;
},
{
horizontal = 1;
place = (565, 150);
place = (565, 150);
type = Stem;
},
{
place = (546, 158);
place = (546, 158);
type = Stem;
}
);
layerId = m01;
shapes = (
{
closed = 1;
nodes = (
(653,697,l),
(653,672,ls),
(653,635,o),
(646,609,o),
(625,597,c),
(564,672,o),
(473,715,o),
(362,715,cs),
(160,715,o),
(21,568,o),
(21,348,cs),
(21,129,o),
(160,-18,o),
(362,-18,cs),
(564,-18,o),
(704,128,o),
(704,348,cs),
(704,408,o),
(694,462,o),
(675,509,c),
(733,538,o),
(757,599,o),
(757,663,cs),
(757,697,l)
);
},
{
closed = 1;
nodes = (
(250,132,o),
(178,213,o),
(178,348,cs),
(178,484,o),
(250,565,o),
(362,565,cs),
(475,565,o),
(546,482,o),
(546,348,cs),
(546,215,o),
(475,132,o),
(362,132,cs)
);
}
);
width = 725;
}
);
note = Ohorn;
unicode = 416;
},
{
glyphname = uni1EDA;
kernLeft = C;
kernRight = D;
layers = (
{
hints = (
{
horizontal = 1;
place = (-18, 150);
place = (-18, 150);
type = Stem;
},
{
horizontal = 1;
place = (697, -20);
target = down;
type = TopGhost;
},
{
horizontal = 1;
place = (758, 143);
place = (758, 143);
type = Stem;
},
{
place = (21, 157);
place = (21, 157);
type = Stem;
},
{
place = (546, 158);
place = (546, 158);
type = Stem;
},
{
place = (653, 104);
place = (653, 104);
type = Stem;
},
{
horizontal = 1;
place = (565, 150);
place = (565, 150);
type = Stem;
}
);
layerId = m01;
shapes = (
{
closed = 1;
nodes = (
(582,901,l),
(420,901,l),
(307,758,l),
(416,758,l)
);
},
{
closed = 1;
nodes = (
(653,697,l),
(653,672,ls),
(653,635,o),
(646,609,o),
(625,597,c),
(564,672,o),
(473,715,o),
(362,715,cs),
(160,715,o),
(21,568,o),
(21,348,cs),
(21,129,o),
(160,-18,o),
(362,-18,cs),
(564,-18,o),
(704,128,o),
(704,348,cs),
(704,408,o),
(694,462,o),
(675,509,c),
(733,538,o),
(757,599,o),
(757,663,cs),
(757,697,l)
);
},
{
closed = 1;
nodes = (
(250,132,o),
(178,213,o),
(178,348,cs),
(178,484,o),
(250,565,o),
(362,565,cs),
(475,565,o),
(546,482,o),
(546,348,cs),
(546,215,o),
(475,132,o),
(362,132,cs)
);
}
);
width = 725;
}
);
note = uni1EDA;
unicode = 7898;
},
{
glyphname = uni1EE2;
kernLeft = C;
kernRight = D;
layers = (
{
hints = (
{
horizontal = 1;
place = (-173, 117);
place = (-173, 117);
type = Stem;
},
{
horizontal = 1;
place = (-18, 150);
place = (-18, 150);
type = Stem;
},
{
horizontal = 1;
place = (697, -20);
target = down;
type = TopGhost;
},
{
place = (21, 157);
place = (21, 157);
type = Stem;
},
{
place = (286, 154);
place = (286, 154);
type = Stem;
},
{
place = (653, 104);
place = (653, 104);
type = Stem;
},
{
horizontal = 1;
place = (565, 150);
place = (565, 150);
type = Stem;
},
{
place = (546, 158);
place = (546, 158);
type = Stem;
}
);
layerId = m01;
shapes = (
{
closed = 1;
nodes = (
(653,697,l),
(653,672,ls),
(653,635,o),
(646,609,o),
(625,597,c),
(564,672,o),
(473,715,o),
(362,715,cs),
(160,715,o),
(21,568,o),
(21,348,cs),
(21,129,o),
(160,-18,o),
(362,-18,cs),
(564,-18,o),
(704,128,o),
(704,348,cs),
(704,408,o),
(694,462,o),
(675,509,c),
(733,538,o),
(757,599,o),
(757,663,cs),
(757,697,l)
);
},
{
closed = 1;
nodes = (
(250,132,o),
(178,213,o),
(178,348,cs),
(178,484,o),
(250,565,o),
(362,565,cs),
(475,565,o),
(546,482,o),
(546,348,cs),
(546,215,o),
(475,132,o),
(362,132,cs)
);
},
{
closed = 1;
nodes = (
(286,-173,l),
(440,-173,l),
(440,-56,l),
(286,-56,l)
);
}
);
width = 725;
}
);
note = uni1EE2;
unicode = 7906;
},
{
glyphname = uni1EDC;
kernLeft = C;
kernRight = D;
layers = (
{
hints = (
{
horizontal = 1;
place = (-18, 150);
place = (-18, 150);
type = Stem;
},
{
horizontal = 1;
place = (697, -20);
target = down;
type = TopGhost;
},
{
horizontal = 1;
place = (758, 143);
place = (758, 143);
type = Stem;
},
{
place = (21, 157);
place = (21, 157);
type = Stem;
},
{
place = (546, 158);
place = (546, 158);
type = Stem;
},
{
place = (653, 104);
place = (653, 104);
type = Stem;
},
{
horizontal = 1;
place = (565, 150);
place = (565, 150);
type = Stem;
}
);
layerId = m01;
shapes = (
{
closed = 1;
nodes = (
(417,758,l),
(313,901,l),
(153,901,l),
(306,758,l)
);
},
{
closed = 1;
nodes = (
(653,697,l),
(653,672,ls),
(653,635,o),
(646,609,o),
(625,597,c),
(564,672,o),
(473,715,o),
(362,715,cs),
(160,715,o),
(21,568,o),
(21,348,cs),
(21,129,o),
(160,-18,o),
(362,-18,cs),
(564,-18,o),
(704,128,o),
(704,348,cs),
(704,408,o),
(694,462,o),
(675,509,c),
(733,538,o),
(757,599,o),
(757,663,cs),
(757,697,l)
);
},
{
closed = 1;
nodes = (
(250,132,o),
(178,213,o),
(178,348,cs),
(178,484,o),
(250,565,o),
(362,565,cs),
(475,565,o),
(546,482,o),
(546,348,cs),
(546,215,o),
(475,132,o),
(362,132,cs)
);
}
);
width = 725;
}
);
note = uni1EDC;
unicode = 7900;
},
{
glyphname = uni1EDE;
kernLeft = C;
kernRight = D;
layers = (
{
hints = (
{
horizontal = 1;
place = (-18, 150);
place = (-18, 150);
type = Stem;
},
{
horizontal = 1;
place = (697, -20);
target = down;
type = TopGhost;
},
{
horizontal = 1;
place = (830, 92);
place = (830, 92);
type = Stem;
},
{
place = (21, 157);
place = (21, 157);
type = Stem;
},
{
place = (373, 105);
place = (373, 105);
type = Stem;
},
{
place = (653, 104);
place = (653, 104);
type = Stem;
},
{
horizontal = 1;
place = (565, 150);
place = (565, 150);
type = Stem;
},
{
place = (546, 158);
place = (546, 158);
type = Stem;
},
{
horizontal = 1;
place = (714, 61);
place = (714, 61);
type = Stem;
},
{
horizontal = 1;
place = (565, 149);
place = (565, 149);
type = Stem;
}
);
layerId = m01;
shapes = (
{
closed = 1;
nodes = (
(653,697,l),
(653,672,ls),
(653,635,o),
(646,609,o),
(625,597,c),
(564,672,o),
(473,715,o),
(362,715,cs),
(353,715,o),
(345,715,o),
(336,714,cs),
(394,722,o),
(478,737,o),
(478,815,cs),
(478,884,o),
(408,922,o),
(302,922,cs),
(286,922,l),
(286,830,l),
(302,830,ls),
(339,830,o),
(373,830,o),
(373,804,cs),
(373,780,o),
(346,779,o),
(318,775,c),
(335,714,l),
(148,702,o),
(21,558,o),
(21,348,cs),
(21,129,o),
(160,-18,o),
(362,-18,cs),
(564,-18,o),
(704,128,o),
(704,348,cs),
(704,408,o),
(694,462,o),
(675,509,c),
(733,538,o),
(757,599,o),
(757,663,cs),
(757,697,l)
);
},
{
closed = 1;
nodes = (
(250,132,o),
(178,213,o),
(178,348,cs),
(178,484,o),
(250,565,o),
(362,565,cs),
(475,565,o),
(546,482,o),
(546,348,cs),
(546,215,o),
(475,132,o),
(362,132,cs)
);
}
);
width = 725;
}
);
note = uni1EDE;
unicode = 7902;
},
{
glyphname = uni1EE0;
kernLeft = C;
kernRight = D;
layers = (
{
hints = (
{
horizontal = 1;
place = (-18, 150);
place = (-18, 150);
type = Stem;
},
{
horizontal = 1;
place = (697, -20);
target = down;
type = TopGhost;
},
{
horizontal = 1;
place = (811, 92);
place = (811, 92);
type = Stem;
},
{
place = (21, 157);
place = (21, 157);
type = Stem;
},
{
place = (190, 86);
place = (190, 86);
type = Stem;
},
{
place = (546, 158);
place = (546, 158);
type = Stem;
},
{
horizontal = 1;
place = (752, 149);
place = (752, 149);
type = Stem;
},
{
place = (443, 90);
place = (443, 90);
type = Stem;
},
{
horizontal = 1;
place = (752, 91);
place = (752, 91);
type = Stem;
},
{
horizontal = 1;
place = (751, 152);
place = (751, 152);
type = Stem;
},
{
place = (653, 104);
place = (653, 104);
type = Stem;
},
{
horizontal = 1;
place = (565, 150);
place = (565, 150);
type = Stem;
}
);
layerId = m01;
shapes = (
{
closed = 1;
nodes = (
(324,811,o),
(346,752,o),
(421,752,cs),
(490,752,o),
(533,803,o),
(533,901,c),
(443,901,l),
(443,862,o),
(434,843,o),
(423,843,cs),
(399,843,o),
(369,903,o),
(304,903,cs),
(234,903,o),
(190,848,o),
(190,751,c),
(276,751,l),
(276,791,o),
(284,811,o),
(297,811,cs)
);
},
{
closed = 1;
nodes = (
(653,697,l),
(653,672,ls),
(653,635,o),
(646,609,o),
(625,597,c),
(564,672,o),
(473,715,o),
(362,715,cs),
(160,715,o),
(21,568,o),
(21,348,cs),
(21,129,o),
(160,-18,o),
(362,-18,cs),
(564,-18,o),
(704,128,o),
(704,348,cs),
(704,408,o),
(694,462,o),
(675,509,c),
(733,538,o),
(757,599,o),
(757,663,cs),
(757,697,l)
);
},
{
closed = 1;
nodes = (
(250,132,o),
(178,213,o),
(178,348,cs),
(178,484,o),
(250,565,o),
(362,565,cs),
(475,565,o),
(546,482,o),
(546,348,cs),
(546,215,o),
(475,132,o),
(362,132,cs)
);
}
);
width = 725;
}
);
note = uni1EE0;
unicode = 7904;
},
{
glyphname = Ohungarumlaut;
kernLeft = C;
kernRight = D;
layers = (
{
hints = (
{
horizontal = 1;
place = (-18, 150);
place = (-18, 150);
type = Stem;
},
{
horizontal = 1;
place = (731, 170);
place = (731, 170);
type = Stem;
},
{
place = (21, 157);
place = (21, 157);
type = Stem;
},
{
place = (546, 158);
place = (546, 158);
type = Stem;
},
{
horizontal = 1;
place = (565, 150);
place = (565, 150);
type = Stem;
}
);
layerId = m01;
shapes = (
{
closed = 1;
nodes = (
(205,731,l),
(314,731,l),
(453,901,l),
(318,901,l)
);
},
{
closed = 1;
nodes = (
(410,731,l),
(519,731,l),
(683,901,l),
(523,901,l)
);
},
{
closed = 1;
nodes = (
(564,-18,o),
(704,128,o),
(704,348,cs),
(704,569,o),
(566,715,o),
(362,715,cs),
(160,715,o),
(21,568,o),
(21,348,cs),
(21,129,o),
(160,-18,o),
(362,-18,cs)
);
},
{
closed = 1;
nodes = (
(250,132,o),
(178,213,o),
(178,348,cs),
(178,484,o),
(250,565,o),
(362,565,cs),
(475,565,o),
(546,482,o),
(546,348,cs),
(546,215,o),
(475,132,o),
(362,132,cs)
);
}
);
width = 725;
}
);
note = Ohungarumlaut;
unicode = 336;
},
{
glyphname = Omacron;
kernLeft = C;
kernRight = D;
layers = (
{
hints = (
{
horizontal = 1;
place = (-18, 150);
place = (-18, 150);
type = Stem;
},
{
horizontal = 1;
place = (565, 150);
place = (565, 150);
type = Stem;
},
{
horizontal = 1;
place = (750, 87);
place = (750, 87);
type = Stem;
},
{
place = (21, 157);
place = (21, 157);
type = Stem;
},
{
place = (223, 278);
place = (223, 278);
type = Stem;
},
{
place = (546, 158);
place = (546, 158);
type = Stem;
}
);
layerId = m01;
shapes = (
{
closed = 1;
nodes = (
(223,750,l),
(501,750,l),
(501,837,l),
(223,837,l)
);
},
{
closed = 1;
nodes = (
(564,-18,o),
(704,128,o),
(704,348,cs),
(704,569,o),
(566,715,o),
(362,715,cs),
(160,715,o),
(21,568,o),
(21,348,cs),
(21,129,o),
(160,-18,o),
(362,-18,cs)
);
},
{
closed = 1;
nodes = (
(250,132,o),
(178,213,o),
(178,348,cs),
(178,484,o),
(250,565,o),
(362,565,cs),
(475,565,o),
(546,482,o),
(546,348,cs),
(546,215,o),
(475,132,o),
(362,132,cs)
);
}
);
width = 725;
}
);
note = Omacron;
unicode = 332;
},
{
glyphname = Oslash;
kernLeft = C;
kernRight = D;
layers = (
{
hints = (
{
horizontal = 1;
place = (-18, 150);
place = (-18, 150);
type = Stem;
},
{
horizontal = 1;
place = (607, 90);
place = (607, 90);
type = Stem;
},
{
place = (21, 157);
place = (21, 157);
type = Stem;
},
{
place = (546, 158);
place = (546, 158);
type = Stem;
},
{
horizontal = 1;
place = (0, 90);
place = (0, 90);
type = Stem;
},
{
horizontal = 1;
place = (565, 150);
place = (565, 150);
type = Stem;
},
{
horizontal = 1;
place = (697, -20);
target = down;
type = TopGhost;
}
);
layerId = m01;
shapes = (
{
closed = 1;
nodes = (
(687,697,l),
(585,697,l),
(556,660,l),
(502,695,o),
(437,715,o),
(362,715,cs),
(160,715,o),
(21,568,o),
(21,348,cs),
(21,242,o),
(53,154,o),
(109,90,c),
(39,0,l),
(142,0,l),
(171,37,l),
(224,1,o),
(289,-18,o),
(362,-18,cs),
(564,-18,o),
(704,128,o),
(704,348,cs),
(704,454,o),
(672,543,o),
(616,607,c)
);
},
{
closed = 1;
nodes = (
(178,484,o),
(250,565,o),
(362,565,cs),
(400,565,o),
(433,556,o),
(461,538,c),
(209,217,l),
(189,251,o),
(178,296,o),
(178,348,cs)
);
},
{
closed = 1;
nodes = (
(325,132,o),
(292,141,o),
(265,158,c),
(516,478,l),
(535,444,o),
(546,400,o),
(546,348,cs),
(546,215,o),
(475,132,o),
(362,132,cs)
);
}
);
width = 725;
}
);
note = Oslash;
unicode = 216;
},
{
glyphname = Otilde;
kernLeft = C;
kernRight = D;
layers = (
{
hints = (
{
horizontal = 1;
place = (-18, 150);
place = (-18, 150);
type = Stem;
},
{
horizontal = 1;
place = (565, 150);
place = (565, 150);
type = Stem;
},
{
horizontal = 1;
place = (752, 149);
place = (752, 149);
type = Stem;
},
{
place = (21, 157);
place = (21, 157);
type = Stem;
},
{
place = (546, 158);
place = (546, 158);
type = Stem;
},
{
place = (443, 90);
place = (443, 90);
type = Stem;
},
{
horizontal = 1;
place = (752, 91);
place = (752, 91);
type = Stem;
},
{
horizontal = 1;
place = (751, 152);
place = (751, 152);
type = Stem;
},
{
place = (190, 86);
place = (190, 86);
type = Stem;
},
{
horizontal = 1;
place = (811, 92);
place = (811, 92);
type = Stem;
}
);
layerId = m01;
shapes = (
{
closed = 1;
nodes = (
(490,752,o),
(533,803,o),
(533,901,c),
(443,901,l),
(443,862,o),
(434,843,o),
(423,843,cs),
(399,843,o),
(369,903,o),
(304,903,cs),
(234,903,o),
(190,848,o),
(190,751,c),
(276,751,l),
(276,791,o),
(284,811,o),
(297,811,cs),
(324,811,o),
(346,752,o),
(421,752,cs)
);
},
{
closed = 1;
nodes = (
(564,-18,o),
(704,128,o),
(704,348,cs),
(704,569,o),
(566,715,o),
(362,715,cs),
(160,715,o),
(21,568,o),
(21,348,cs),
(21,129,o),
(160,-18,o),
(362,-18,cs)
);
},
{
closed = 1;
nodes = (
(250,132,o),
(178,213,o),
(178,348,cs),
(178,484,o),
(250,565,o),
(362,565,cs),
(475,565,o),
(546,482,o),
(546,348,cs),
(546,215,o),
(475,132,o),
(362,132,cs)
);
}
);
width = 725;
}
);
note = Otilde;
unicode = 213;
},
{
glyphname = OE;
kernLeft = C;
layers = (
{
hints = (
{
horizontal = 1;
place = (0, 144);
place = (0, 144);
type = Stem;
},
{
horizontal = 1;
place = (288, 145);
place = (288, 145);
type = Stem;
},
{
horizontal = 1;
place = (553, 144);
place = (553, 144);
type = Stem;
},
{
place = (21, 157);
place = (21, 157);
type = Stem;
},
{
place = (546, 163);
place = (546, 163);
type = Stem;
},
{
horizontal = 1;
place = (-18, 150);
place = (-18, 150);
type = Stem;
},
{
horizontal = 1;
place = (565, 150);
place = (565, 150);
type = Stem;
},
{
horizontal = 1;
place = (565, 132);
place = (565, 132);
type = Stem;
}
);
layerId = m01;
shapes = (
{
closed = 1;
nodes = (
(1020,553,l),
(1020,697,l),
(552,697,l),
(552,662,l),
(499,696,o),
(435,715,o),
(362,715,cs),
(160,715,o),
(21,568,o),
(21,348,cs),
(21,129,o),
(160,-18,o),
(362,-18,cs),
(435,-18,o),
(499,1,o),
(552,35,c),
(552,0,l),
(1020,0,l),
(1020,144,l),
(709,144,l),
(709,288,l),
(1005,288,l),
(1005,433,l),
(709,433,l),
(709,553,l)
);
},
{
closed = 1;
nodes = (
(250,132,o),
(178,213,o),
(178,348,cs),
(178,484,o),
(250,565,o),
(362,565,cs),
(475,565,o),
(546,482,o),
(546,348,cs),
(546,215,o),
(475,132,o),
(362,132,cs)
);
}
);
width = 1073;
}
);
note = OE;
unicode = 338;
},
{
glyphname = P;
kernLeft = B;
kernRight = P;
lastChange = "2022-12-23 05:21:49 +0000";
layers = (
{
hints = (
{
horizontal = 1;
place = (0, 21);
target = up;
type = BottomGhost;
},
{
horizontal = 1;
place = (280, 144);
place = (280, 144);
type = Stem;
},
{
horizontal = 1;
place = (553, 144);
place = (553, 144);
type = Stem;
},
{
place = (71, 156);
place = (71, 156);
type = Stem;
},
{
place = (401, 157);
place = (401, 157);
type = Stem;
}
);
layerId = m01;
shapes = (
{
closed = 1;
nodes = (
(150,0,l),
(227,100,l),
(227,280,l),
(316,280,ls),
(436,280,o),
(558,387,o),
(558,492,qs),
(558,697,o),
(316,697,qs),
(71,697,l),
(71,0,l)
);
},
{
closed = 1;
nodes = (
(227,553,l),
(300,553,ls),
(352,553,o),
(401,530,o),
(401,490,qs),
(401,448,o),
(348,424,o),
(300,424,qs),
(227,424,l)
);
}
);
width = 563;
}
);
note = P;
unicode = 80;
},
{
glyphname = Thorn;
kernLeft = B;
kernRight = Thorn;
layers = (
{
hints = (
{
horizontal = 1;
place = (0, 21);
target = up;
type = BottomGhost;
},
{
horizontal = 1;
place = (191, 130);
place = (191, 130);
type = Stem;
},
{
horizontal = 1;
place = (481, 122);
place = (481, 122);
type = Stem;
},
{
horizontal = 1;
place = (697, -20);
target = down;
type = TopGhost;
},
{
place = (71, 143);
place = (71, 143);
type = Stem;
},
{
place = (401, 143);
place = (401, 143);
type = Stem;
}
);
layerId = m01;
shapes = (
{
closed = 1;
nodes = (
(71,0,l),
(214,0,l),
(214,191,l),
(297,191,ls),
(453,191,o),
(544,270,o),
(544,404,cs),
(544,530,o),
(465,603,o),
(332,603,cs),
(214,603,l),
(214,697,l),
(71,697,l)
);
},
{
closed = 1;
nodes = (
(214,321,l),
(214,481,l),
(297,481,ls),
(361,481,o),
(401,460,o),
(401,399,cs),
(401,340,o),
(361,321,o),
(297,321,cs)
);
}
);
width = 548;
}
);
note = Thorn;
unicode = 222;
},
{
glyphname = Q;
kernLeft = C;
kernRight = Q;
lastChange = "2022-12-23 05:22:58 +0000";
layers = (
{
hints = (
{
horizontal = 1;
place = (-18, 150);
place = (-18, 150);
type = Stem;
},
{
horizontal = 1;
place = (565, 150);
place = (565, 150);
type = Stem;
},
{
place = (21, 157);
place = (21, 157);
type = Stem;
},
{
place = (546, 158);
place = (546, 158);
type = Stem;
}
);
layerId = m01;
shapes = (
{
closed = 1;
nodes = (
(703,0,l),
(703,75,l),
(646,130,l),
(683,189,o),
(704,263,o),
(704,348,cs),
(704,569,o),
(566,715,o),
(362,715,cs),
(160,715,o),
(21,568,o),
(21,348,cs),
(21,128,o),
(161,-18,o),
(362,-18,cs),
(435,-18,o),
(501,1,o),
(554,36,c),
(669,-50,l)
);
},
{
closed = 1;
nodes = (
(252,110,o),
(178,213,o),
(178,348,cs),
(178,484,o),
(250,587,o),
(362,587,cs),
(475,587,o),
(546,482,o),
(546,348,cs),
(546,309,o),
(540,274,o),
(528,245,c),
(453,318,l),
(362,221,l),
(453,134,l),
(420,114,o),
(392,110,o),
(364,110,cs)
);
}
);
width = 754;
}
);
note = Q;
unicode = 81;
},
{
glyphname = R;
kernLeft = B;
kernRight = R;
lastChange = "2022-12-23 05:23:34 +0000";
layers = (
{
hints = (
{
horizontal = 1;
place = (0, 21);
target = up;
type = BottomGhost;
},
{
horizontal = 1;
place = (277, 144);
place = (277, 144);
type = Stem;
},
{
horizontal = 1;
place = (553, 144);
place = (553, 144);
type = Stem;
},
{
place = (71, 156);
place = (71, 156);
type = Stem;
},
{
place = (401, 157);
place = (401, 157);
type = Stem;
}
);
layerId = m01;
shapes = (
{
closed = 1;
nodes = (
(610,0,o),
(594,25,qs),
(423,296,l),
(482,319,o),
(558,416,o),
(558,491,qs),
(558,538,o),
(532,614,o),
(474,668,o),
(382,697,o),
(316,697,qs),
(71,697,l),
(71,0,l),
(150,0,l),
(228,100,l),
(228,277,l),
(243,277,l),
(268,277,l),
(428,0,l),
(580,0,ls)
);
},
{
closed = 1;
nodes = (
(228,553,l),
(301,553,ls),
(319,553,o),
(355,551,o),
(383,539,o),
(401,513,o),
(401,489,qs),
(401,465,o),
(384,437,o),
(355,424,o),
(319,421,o),
(301,421,qs),
(228,421,l)
);
}
);
width = 614;
}
);
note = R;
unicode = 82;
},
{
glyphname = Racute;
kernLeft = B;
kernRight = R;
layers = (
{
hints = (
{
horizontal = 1;
place = (0, 21);
target = up;
type = BottomGhost;
},
{
horizontal = 1;
place = (277, 144);
place = (277, 144);
type = Stem;
},
{
horizontal = 1;
place = (553, 144);
place = (553, 144);
type = Stem;
},
{
horizontal = 1;
place = (758, 143);
place = (758, 143);
type = Stem;
},
{
place = (71, 156);
place = (71, 156);
type = Stem;
},
{
place = (401, 157);
place = (401, 157);
type = Stem;
}
);
layerId = m01;
shapes = (
{
closed = 1;
nodes = (
(526,901,l),
(364,901,l),
(251,758,l),
(360,758,l)
);
},
{
closed = 1;
nodes = (
(624,0,l),
(437,296,l),
(515,327,o),
(558,392,o),
(558,491,cs),
(558,615,o),
(492,697,o),
(316,697,cs),
(71,697,l),
(71,0,l),
(227,0,l),
(227,277,l),
(242,277,l),
(281,277,l),
(442,0,l)
);
},
{
closed = 1;
nodes = (
(227,421,l),
(227,553,l),
(300,553,ls),
(349,553,o),
(401,553,o),
(401,489,cs),
(401,424,o),
(350,421,o),
(300,421,cs)
);
}
);
width = 614;
}
);
note = Racute;
unicode = 340;
},
{
glyphname = Rcaron;
kernLeft = B;
kernRight = R;
layers = (
{
hints = (
{
horizontal = 1;
place = (0, 21);
target = up;
type = BottomGhost;
},
{
horizontal = 1;
place = (277, 144);
place = (277, 144);
type = Stem;
},
{
horizontal = 1;
place = (553, 144);
place = (553, 144);
type = Stem;
},
{
place = (71, 156);
place = (71, 156);
type = Stem;
},
{
place = (401, 157);
place = (401, 157);
type = Stem;
}
);
layerId = m01;
shapes = (
{
closed = 1;
nodes = (
(466,901,l),
(352,901,l),
(306,851,l),
(261,901,l),
(146,901,l),
(306,730,l)
);
},
{
closed = 1;
nodes = (
(624,0,l),
(437,296,l),
(515,327,o),
(558,392,o),
(558,491,cs),
(558,615,o),
(492,697,o),
(316,697,cs),
(71,697,l),
(71,0,l),
(227,0,l),
(227,277,l),
(242,277,l),
(281,277,l),
(442,0,l)
);
},
{
closed = 1;
nodes = (
(227,421,l),
(227,553,l),
(300,553,ls),
(349,553,o),
(401,553,o),
(401,489,cs),
(401,424,o),
(350,421,o),
(300,421,cs)
);
}
);
width = 614;
}
);
note = Rcaron;
unicode = 344;
},
{
glyphname = uni0156;
kernLeft = B;
kernRight = R;
layers = (
{
hints = (
{
horizontal = 1;
place = (-229, 178);
place = (-229, 178);
type = Stem;
},
{
horizontal = 1;
place = (0, 21);
target = up;
type = BottomGhost;
},
{
horizontal = 1;
place = (277, 144);
place = (277, 144);
type = Stem;
},
{
horizontal = 1;
place = (553, 144);
place = (553, 144);
type = Stem;
},
{
place = (71, 156);
place = (71, 156);
type = Stem;
},
{
place = (401, 157);
place = (401, 157);
type = Stem;
}
);
layerId = m01;
shapes = (
{
closed = 1;
nodes = (
(437,296,l),
(515,327,o),
(558,392,o),
(558,491,cs),
(558,615,o),
(492,697,o),
(316,697,cs),
(71,697,l),
(71,0,l),
(227,0,l),
(227,277,l),
(242,277,l),
(281,277,l),
(442,0,l),
(624,0,l)
);
},
{
closed = 1;
nodes = (
(227,421,l),
(227,553,l),
(300,553,ls),
(349,553,o),
(401,553,o),
(401,489,cs),
(401,424,o),
(350,421,o),
(300,421,cs)
);
},
{
closed = 1;
nodes = (
(173,-229,l),
(259,-229,l),
(384,-51,l),
(227,-51,l)
);
}
);
width = 614;
}
);
note = uni0156;
unicode = 342;
},
{
glyphname = S;
kernLeft = S;
kernRight = S;
lastChange = "2022-12-23 05:23:50 +0000";
layers = (
{
hints = (
{
horizontal = 1;
place = (-15, 139);
place = (-15, 139);
type = Stem;
},
{
horizontal = 1;
place = (576, 139);
place = (576, 139);
type = Stem;
},
{
place = (53, 157);
place = (53, 157);
type = Stem;
},
{
place = (379, 156);
place = (379, 156);
type = Stem;
}
);
layerId = m01;
shapes = (
{
closed = 1;
nodes = (
(130,237,qs),
(3,205,l),
(11,155,o),
(60,74,o),
(133,16,o),
(229,-15,o),
(283,-15,qs),
(336,-15,o),
(428,18,o),
(496,79,o),
(535,164,o),
(535,216,qs),
(535,253,o),
(515,311,o),
(469,359,o),
(393,401,o),
(337,423,qs),
(300,438,o),
(250,462,o),
(222,485,o),
(210,507,o),
(210,520,qs),
(210,545,o),
(249,576,o),
(276,576,qs),
(306,576,o),
(355,537,o),
(371,499,q),
(501,580,l),
(467,648,o),
(354,715,o),
(281,715,qs),
(230,715,o),
(146,686,o),
(86,633,o),
(53,561,o),
(53,517,qs),
(53,477,o),
(75,414,o),
(123,362,o),
(200,318,o),
(256,295,qs),
(324,267,o),
(379,226,o),
(379,202,qs),
(379,162,o),
(324,124,o),
(286,124,qs),
(240,124,o),
(175,167,o),
(164,214,qs),
(157,244,o)
);
}
);
width = 546;
}
);
note = S;
unicode = 83;
},
{
glyphname = Sacute;
kernLeft = S;
kernRight = S;
layers = (
{
hints = (
{
horizontal = 1;
place = (-15, 139);
place = (-15, 139);
type = Stem;
},
{
horizontal = 1;
place = (576, 139);
place = (576, 139);
type = Stem;
},
{
horizontal = 1;
place = (758, 143);
place = (758, 143);
type = Stem;
},
{
place = (53, 157);
place = (53, 157);
type = Stem;
},
{
place = (379, 156);
place = (379, 156);
type = Stem;
}
);
layerId = m01;
shapes = (
{
closed = 1;
nodes = (
(218,758,l),
(327,758,l),
(493,901,l),
(331,901,l)
);
},
{
closed = 1;
nodes = (
(425,-15,o),
(535,78,o),
(535,216,cs),
(535,315,o),
(487,365,o),
(337,423,cs),
(237,462,o),
(210,486,o),
(210,520,cs),
(210,553,o),
(240,576,o),
(276,576,cs),
(316,576,o),
(350,550,o),
(371,499,c),
(501,580,l),
(456,670,o),
(378,715,o),
(281,715,cs),
(144,715,o),
(53,633,o),
(53,517,cs),
(53,410,o),
(107,355,o),
(256,295,cs),
(347,258,o),
(379,234,o),
(379,202,cs),
(379,149,o),
(337,124,o),
(286,124,cs),
(216,124,o),
(166,162,o),
(159,244,c),
(3,205,l),
(24,72,o),
(138,-15,o),
(283,-15,cs)
);
}
);
width = 546;
}
);
note = Sacute;
unicode = 346;
},
{
glyphname = Scaron;
kernLeft = S;
kernRight = S;
layers = (
{
hints = (
{
horizontal = 1;
place = (-15, 139);
place = (-15, 139);
type = Stem;
},
{
horizontal = 1;
place = (576, 139);
place = (576, 139);
type = Stem;
},
{
place = (53, 157);
place = (53, 157);
type = Stem;
},
{
place = (379, 156);
place = (379, 156);
type = Stem;
}
);
layerId = m01;
shapes = (
{
closed = 1;
nodes = (
(273,730,l),
(433,901,l),
(319,901,l),
(273,851,l),
(228,901,l),
(113,901,l)
);
},
{
closed = 1;
nodes = (
(425,-15,o),
(535,78,o),
(535,216,cs),
(535,315,o),
(487,365,o),
(337,423,cs),
(237,462,o),
(210,486,o),
(210,520,cs),
(210,553,o),
(240,576,o),
(276,576,cs),
(316,576,o),
(350,550,o),
(371,499,c),
(501,580,l),
(456,670,o),
(378,715,o),
(281,715,cs),
(144,715,o),
(53,633,o),
(53,517,cs),
(53,410,o),
(107,355,o),
(256,295,cs),
(347,258,o),
(379,234,o),
(379,202,cs),
(379,149,o),
(337,124,o),
(286,124,cs),
(216,124,o),
(166,162,o),
(159,244,c),
(3,205,l),
(24,72,o),
(138,-15,o),
(283,-15,cs)
);
}
);
width = 546;
}
);
note = Scaron;
unicode = 352;
},
{
glyphname = Scedilla;
kernLeft = S;
kernRight = S;
layers = (
{
hints = (
{
horizontal = 1;
place = (-260, 85);
place = (-260, 85);
type = Stem;
},
{
horizontal = 1;
place = (-10, 21);
target = up;
type = BottomGhost;
},
{
horizontal = 1;
place = (576, 139);
place = (576, 139);
type = Stem;
},
{
place = (53, 157);
place = (53, 157);
type = Stem;
},
{
place = (379, 156);
place = (379, 156);
type = Stem;
},
{
place = (273, 87);
place = (273, 87);
type = Stem;
}
);
layerId = m01;
shapes = (
{
closed = 1;
nodes = (
(535,315,o),
(487,365,o),
(337,423,cs),
(237,462,o),
(210,486,o),
(210,520,cs),
(210,553,o),
(240,576,o),
(276,576,cs),
(316,576,o),
(350,550,o),
(371,499,c),
(501,580,l),
(456,670,o),
(378,715,o),
(281,715,cs),
(144,715,o),
(53,633,o),
(53,517,cs),
(53,410,o),
(107,355,o),
(256,295,cs),
(347,258,o),
(379,234,o),
(379,202,cs),
(379,149,o),
(337,124,o),
(286,124,cs),
(216,124,o),
(166,162,o),
(159,244,c),
(3,205,l),
(21,91,o),
(107,11,o),
(222,-10,c),
(165,-97,l),
(192,-97,o),
(215,-97,o),
(236,-103,cs),
(258,-109,o),
(273,-121,o),
(273,-144,cs),
(273,-165,o),
(259,-175,o),
(240,-175,cs),
(229,-175,o),
(216,-171,o),
(203,-164,c),
(157,-237,l),
(190,-258,o),
(222,-260,o),
(236,-260,cs),
(310,-260,o),
(360,-206,o),
(360,-138,cs),
(360,-108,o),
(350,-80,o),
(326,-61,cs),
(314,-52,o),
(298,-44,o),
(279,-40,c),
(303,-14,l),
(435,-6,o),
(535,84,o),
(535,216,cs)
);
}
);
width = 546;
}
);
note = Scedilla;
unicode = 350;
},
{
glyphname = uni0218;
kernLeft = S;
kernRight = S;
layers = (
{
hints = (
{
horizontal = 1;
place = (-229, 178);
place = (-229, 178);
type = Stem;
},
{
horizontal = 1;
place = (-15, 139);
place = (-15, 139);
type = Stem;
},
{
horizontal = 1;
place = (576, 139);
place = (576, 139);
type = Stem;
},
{
place = (53, 157);
place = (53, 157);
type = Stem;
},
{
place = (379, 156);
place = (379, 156);
type = Stem;
}
);
layerId = m01;
shapes = (
{
closed = 1;
nodes = (
(425,-15,o),
(535,78,o),
(535,216,cs),
(535,315,o),
(487,365,o),
(337,423,cs),
(237,462,o),
(210,486,o),
(210,520,cs),
(210,553,o),
(240,576,o),
(276,576,cs),
(316,576,o),
(350,550,o),
(371,499,c),
(501,580,l),
(456,670,o),
(378,715,o),
(281,715,cs),
(144,715,o),
(53,633,o),
(53,517,cs),
(53,410,o),
(107,355,o),
(256,295,cs),
(347,258,o),
(379,234,o),
(379,202,cs),
(379,149,o),
(337,124,o),
(286,124,cs),
(216,124,o),
(166,162,o),
(159,244,c),
(3,205,l),
(24,72,o),
(138,-15,o),
(283,-15,cs)
);
},
{
closed = 1;
nodes = (
(140,-229,l),
(226,-229,l),
(351,-51,l),
(194,-51,l)
);
}
);
width = 546;
}
);
note = uni0218;
unicode = 536;
},
{
glyphname = uni1E9E;
layers = (
{
hints = (
{
horizontal = 1;
place = (-19, 145);
place = (-19, 145);
type = Stem;
},
{
horizontal = 1;
place = (545, 152);
place = (545, 152);
type = Stem;
},
{
place = (53, 157);
place = (53, 157);
type = Stem;
},
{
place = (281, 163);
place = (281, 163);
type = Stem;
},
{
place = (492, 173);
place = (492, 173);
type = Stem;
},
{
horizontal = 1;
place = (0, 21);
target = up;
type = BottomGhost;
}
);
layerId = m01;
shapes = (
{
closed = 1;
nodes = (
(576,-19,o),
(665,55,o),
(665,167,cs),
(665,352,o),
(444,329,o),
(444,365,cs),
(444,369,o),
(445,373,o),
(451,380,cs),
(605,570,l),
(605,697,l),
(341,697,ls),
(77,697,o),
(53,529,o),
(53,417,cs),
(53,0,l),
(210,0,l),
(210,417,ls),
(210,516,o),
(253,545,o),
(341,545,cs),
(396,545,l),
(349,481,ls),
(317,437,o),
(281,405,o),
(281,341,cs),
(281,201,o),
(492,230,o),
(492,156,cs),
(492,136,o),
(478,126,o),
(460,126,cs),
(409,126,o),
(382,161,o),
(364,202,c),
(231,132,l),
(254,48,o),
(341,-19,o),
(455,-19,cs)
);
}
);
width = 675;
}
);
note = uni1E9E;
unicode = 7838;
},
{
glyphname = T;
kernLeft = T;
kernRight = T;
lastChange = "2022-12-23 05:24:02 +0000";
layers = (
{
hints = (
{
horizontal = 1;
place = (0, 21);
target = up;
type = BottomGhost;
},
{
horizontal = 1;
place = (553, 144);
place = (553, 144);
type = Stem;
},
{
place = (199, 159);
place = (199, 159);
type = Stem;
}
);
layerId = m01;
shapes = (
{
closed = 1;
nodes = (
(278,0,l),
(358,100,l),
(358,553,l),
(561,553,l),
(561,697,l),
(-5,697,l),
(-5,553,l),
(199,553,l),
(199,0,l)
);
}
);
width = 556;
}
);
note = T;
unicode = 84;
},
{
glyphname = Tbar;
kernLeft = T;
kernRight = T;
layers = (
{
hints = (
{
horizontal = 1;
place = (0, 21);
target = up;
type = BottomGhost;
},
{
horizontal = 1;
place = (299, 100);
place = (299, 100);
type = Stem;
},
{
horizontal = 1;
place = (553, 144);
place = (553, 144);
type = Stem;
},
{
place = (199, 159);
place = (199, 159);
type = Stem;
}
);
layerId = m01;
shapes = (
{
closed = 1;
nodes = (
(561,553,l),
(561,697,l),
(-5,697,l),
(-5,553,l),
(199,553,l),
(199,399,l),
(100,399,l),
(100,299,l),
(199,299,l),
(199,0,l),
(358,0,l),
(358,299,l),
(455,299,l),
(455,399,l),
(358,399,l),
(358,553,l)
);
}
);
width = 556;
}
);
note = Tbar;
unicode = 358;
},
{
glyphname = Tcaron;
kernLeft = T;
kernRight = T;
layers = (
{
hints = (
{
horizontal = 1;
place = (0, 21);
target = up;
type = BottomGhost;
},
{
horizontal = 1;
place = (553, 144);
place = (553, 144);
type = Stem;
},
{
place = (199, 159);
place = (199, 159);
type = Stem;
}
);
layerId = m01;
shapes = (
{
closed = 1;
nodes = (
(278,730,l),
(438,901,l),
(324,901,l),
(278,851,l),
(233,901,l),
(118,901,l)
);
},
{
closed = 1;
nodes = (
(199,0,l),
(358,0,l),
(358,553,l),
(561,553,l),
(561,697,l),
(-5,697,l),
(-5,553,l),
(199,553,l)
);
}
);
width = 556;
}
);
note = Tcaron;
unicode = 356;
},
{
glyphname = uni0162;
kernLeft = T;
kernRight = T;
layers = (
{
hints = (
{
horizontal = 1;
place = (-260, 85);
place = (-260, 85);
type = Stem;
},
{
horizontal = 1;
place = (0, 21);
target = up;
type = BottomGhost;
},
{
horizontal = 1;
place = (553, 144);
place = (553, 144);
type = Stem;
},
{
place = (199, 159);
place = (199, 159);
type = Stem;
},
{
place = (278, 87);
place = (278, 87);
type = Stem;
}
);
layerId = m01;
shapes = (
{
closed = 1;
nodes = (
(358,0,l),
(358,553,l),
(561,553,l),
(561,697,l),
(-5,697,l),
(-5,553,l),
(199,553,l),
(199,0,l),
(233,0,l),
(170,-97,l),
(197,-97,o),
(220,-97,o),
(241,-103,cs),
(263,-109,o),
(278,-121,o),
(278,-144,cs),
(278,-165,o),
(264,-175,o),
(245,-175,cs),
(234,-175,o),
(221,-171,o),
(208,-164,c),
(162,-237,l),
(195,-258,o),
(227,-260,o),
(241,-260,cs),
(315,-260,o),
(365,-206,o),
(365,-138,cs),
(365,-108,o),
(355,-80,o),
(331,-61,cs),
(319,-52,o),
(303,-44,o),
(284,-40,c),
(321,0,l)
);
}
);
width = 556;
}
);
note = uni0162;
unicode = 354;
},
{
glyphname = uni021A;
kernLeft = T;
kernRight = T;
layers = (
{
hints = (
{
horizontal = 1;
place = (-229, 178);
place = (-229, 178);
type = Stem;
},
{
horizontal = 1;
place = (0, 21);
target = up;
type = BottomGhost;
},
{
horizontal = 1;
place = (553, 144);
place = (553, 144);
type = Stem;
},
{
place = (199, 159);
place = (199, 159);
type = Stem;
}
);
layerId = m01;
shapes = (
{
closed = 1;
nodes = (
(199,0,l),
(358,0,l),
(358,553,l),
(561,553,l),
(561,697,l),
(-5,697,l),
(-5,553,l),
(199,553,l)
);
},
{
closed = 1;
nodes = (
(145,-229,l),
(231,-229,l),
(356,-51,l),
(199,-51,l)
);
}
);
width = 556;
}
);
note = uni021A;
unicode = 538;
},
{
glyphname = U;
kernLeft = U;
kernRight = J;
lastChange = "2022-12-23 05:24:19 +0000";
layers = (
{
hints = (
{
horizontal = 1;
place = (-18, 144);
place = (-18, 144);
type = Stem;
},
{
horizontal = 1;
place = (697, -20);
target = down;
type = TopGhost;
},
{
place = (56, 157);
place = (56, 157);
type = Stem;
},
{
place = (451, 157);
place = (451, 157);
type = Stem;
}
);
layerId = m01;
shapes = (
{
closed = 1;
nodes = (
(213,697,o),
(183,697,qs),
(56,697,l),
(56,252,ls),
(56,115,o),
(194,-18,o),
(332,-18,qs),
(469,-18,o),
(608,117,o),
(608,257,qs),
(608,697,l),
(451,697,l),
(451,268,ls),
(451,233,o),
(442,180,o),
(416,144,o),
(370,126,o),
(332,126,qs),
(294,126,o),
(247,144,o),
(222,180,o),
(213,234,o),
(213,270,qs),
(213,667,ls)
);
}
);
width = 664;
}
);
note = U;
unicode = 85;
},
{
glyphname = Uacute;
kernLeft = U;
kernRight = J;
layers = (
{
hints = (
{
horizontal = 1;
place = (-18, 144);
place = (-18, 144);
type = Stem;
},
{
horizontal = 1;
place = (697, -20);
target = down;
type = TopGhost;
},
{
horizontal = 1;
place = (758, 143);
place = (758, 143);
type = Stem;
},
{
place = (56, 157);
place = (56, 157);
type = Stem;
},
{
place = (451, 157);
place = (451, 157);
type = Stem;
}
);
layerId = m01;
shapes = (
{
closed = 1;
nodes = (
(278,758,l),
(387,758,l),
(553,901,l),
(391,901,l)
);
},
{
closed = 1;
nodes = (
(514,-18,o),
(608,72,o),
(608,257,cs),
(608,697,l),
(451,697,l),
(451,268,ls),
(451,174,o),
(432,126,o),
(332,126,cs),
(231,126,o),
(213,173,o),
(213,270,cs),
(213,697,l),
(56,697,l),
(56,252,ls),
(56,70,o),
(149,-18,o),
(332,-18,cs)
);
}
);
width = 664;
}
);
note = Uacute;
unicode = 218;
},
{
glyphname = uni01D3;
kernLeft = U;
kernRight = J;
layers = (
{
hints = (
{
horizontal = 1;
place = (-18, 144);
place = (-18, 144);
type = Stem;
},
{
horizontal = 1;
place = (697, -20);
target = down;
type = TopGhost;
},
{
place = (56, 157);
place = (56, 157);
type = Stem;
},
{
place = (451, 157);
place = (451, 157);
type = Stem;
}
);
layerId = m01;
shapes = (
{
closed = 1;
nodes = (
(333,730,l),
(493,901,l),
(379,901,l),
(333,851,l),
(288,901,l),
(173,901,l)
);
},
{
closed = 1;
nodes = (
(514,-18,o),
(608,72,o),
(608,257,cs),
(608,697,l),
(451,697,l),
(451,268,ls),
(451,174,o),
(432,126,o),
(332,126,cs),
(231,126,o),
(213,173,o),
(213,270,cs),
(213,697,l),
(56,697,l),
(56,252,ls),
(56,70,o),
(149,-18,o),
(332,-18,cs)
);
}
);
width = 664;
}
);
note = uni01D3;
unicode = 467;
},
{
glyphname = Ucircumflex;
kernLeft = U;
kernRight = J;
layers = (
{
hints = (
{
horizontal = 1;
place = (-18, 144);
place = (-18, 144);
type = Stem;
},
{
horizontal = 1;
place = (697, -20);
target = down;
type = TopGhost;
},
{
place = (56, 157);
place = (56, 157);
type = Stem;
},
{
place = (451, 157);
place = (451, 157);
type = Stem;
}
);
layerId = m01;
shapes = (
{
closed = 1;
nodes = (
(173,741,l),
(287,741,l),
(333,797,l),
(379,741,l),
(493,741,l),
(333,924,l)
);
},
{
closed = 1;
nodes = (
(514,-18,o),
(608,72,o),
(608,257,cs),
(608,697,l),
(451,697,l),
(451,268,ls),
(451,174,o),
(432,126,o),
(332,126,cs),
(231,126,o),
(213,173,o),
(213,270,cs),
(213,697,l),
(56,697,l),
(56,252,ls),
(56,70,o),
(149,-18,o),
(332,-18,cs)
);
}
);
width = 664;
}
);
note = Ucircumflex;
unicode = 219;
},
{
glyphname = Udieresis;
kernLeft = U;
kernRight = J;
layers = (
{
hints = (
{
horizontal = 1;
place = (-18, 144);
place = (-18, 144);
type = Stem;
},
{
horizontal = 1;
place = (697, -20);
target = down;
type = TopGhost;
},
{
horizontal = 1;
place = (765, 136);
place = (765, 136);
type = Stem;
},
{
place = (174, 39);
place = (174, 39);
type = Stem;
},
{
place = (451, 157);
place = (451, 157);
type = Stem;
},
{
place = (174, 114);
place = (174, 114);
type = Stem;
},
{
place = (378, 114);
place = (378, 114);
type = Stem;
},
{
place = (56, 157);
place = (56, 157);
type = Stem;
},
{
place = (451, 41);
place = (451, 41);
type = Stem;
}
);
layerId = m01;
shapes = (
{
closed = 1;
nodes = (
(174,765,l),
(288,765,l),
(288,901,l),
(174,901,l)
);
},
{
closed = 1;
nodes = (
(378,765,l),
(492,765,l),
(492,901,l),
(378,901,l)
);
},
{
closed = 1;
nodes = (
(514,-18,o),
(608,72,o),
(608,257,cs),
(608,697,l),
(451,697,l),
(451,268,ls),
(451,174,o),
(432,126,o),
(332,126,cs),
(231,126,o),
(213,173,o),
(213,270,cs),
(213,697,l),
(56,697,l),
(56,252,ls),
(56,70,o),
(149,-18,o),
(332,-18,cs)
);
}
);
width = 664;
}
);
note = Udieresis;
unicode = 220;
},
{
glyphname = uni01D7;
kernLeft = U;
kernRight = J;
layers = (
{
hints = (
{
horizontal = 1;
place = (-18, 144);
place = (-18, 144);
type = Stem;
},
{
horizontal = 1;
place = (697, -20);
target = down;
type = TopGhost;
},
{
horizontal = 1;
place = (765, 136);
place = (765, 136);
type = Stem;
},
{
horizontal = 1;
place = (962, 143);
place = (962, 143);
type = Stem;
},
{
place = (56, 157);
place = (56, 157);
type = Stem;
},
{
place = (451, 157);
place = (451, 157);
type = Stem;
},
{
place = (174, 39);
place = (174, 39);
type = Stem;
},
{
place = (174, 114);
place = (174, 114);
type = Stem;
},
{
place = (378, 114);
place = (378, 114);
type = Stem;
},
{
place = (451, 41);
place = (451, 41);
type = Stem;
}
);
layerId = m01;
shapes = (
{
closed = 1;
nodes = (
(278,962,l),
(387,962,l),
(553,1105,l),
(391,1105,l)
);
},
{
closed = 1;
nodes = (
(174,765,l),
(288,765,l),
(288,901,l),
(174,901,l)
);
},
{
closed = 1;
nodes = (
(378,765,l),
(492,765,l),
(492,901,l),
(378,901,l)
);
},
{
closed = 1;
nodes = (
(514,-18,o),
(608,72,o),
(608,257,cs),
(608,697,l),
(451,697,l),
(451,268,ls),
(451,174,o),
(432,126,o),
(332,126,cs),
(231,126,o),
(213,173,o),
(213,270,cs),
(213,697,l),
(56,697,l),
(56,252,ls),
(56,70,o),
(149,-18,o),
(332,-18,cs)
);
}
);
width = 664;
}
);
note = uni01D7;
unicode = 471;
},
{
glyphname = uni01D9;
kernLeft = U;
kernRight = J;
layers = (
{
hints = (
{
horizontal = 1;
place = (-18, 144);
place = (-18, 144);
type = Stem;
},
{
horizontal = 1;
place = (697, -20);
target = down;
type = TopGhost;
},
{
horizontal = 1;
place = (765, 136);
place = (765, 136);
type = Stem;
},
{
place = (56, 157);
place = (56, 157);
type = Stem;
},
{
place = (451, 157);
place = (451, 157);
type = Stem;
},
{
place = (174, 39);
place = (174, 39);
type = Stem;
},
{
place = (174, 114);
place = (174, 114);
type = Stem;
},
{
place = (378, 114);
place = (378, 114);
type = Stem;
},
{
place = (451, 41);
place = (451, 41);
type = Stem;
}
);
layerId = m01;
shapes = (
{
closed = 1;
nodes = (
(333,934,l),
(493,1105,l),
(379,1105,l),
(333,1055,l),
(288,1105,l),
(173,1105,l)
);
},
{
closed = 1;
nodes = (
(174,765,l),
(288,765,l),
(288,901,l),
(174,901,l)
);
},
{
closed = 1;
nodes = (
(378,765,l),
(492,765,l),
(492,901,l),
(378,901,l)
);
},
{
closed = 1;
nodes = (
(514,-18,o),
(608,72,o),
(608,257,cs),
(608,697,l),
(451,697,l),
(451,268,ls),
(451,174,o),
(432,126,o),
(332,126,cs),
(231,126,o),
(213,173,o),
(213,270,cs),
(213,697,l),
(56,697,l),
(56,252,ls),
(56,70,o),
(149,-18,o),
(332,-18,cs)
);
}
);
width = 664;
}
);
note = uni01D9;
unicode = 473;
},
{
glyphname = uni01DB;
kernLeft = U;
kernRight = J;
layers = (
{
hints = (
{
horizontal = 1;
place = (-18, 144);
place = (-18, 144);
type = Stem;
},
{
horizontal = 1;
place = (697, -20);
target = down;
type = TopGhost;
},
{
horizontal = 1;
place = (765, 136);
place = (765, 136);
type = Stem;
},
{
horizontal = 1;
place = (962, 143);
place = (962, 143);
type = Stem;
},
{
place = (56, 157);
place = (56, 157);
type = Stem;
},
{
place = (451, 157);
place = (451, 157);
type = Stem;
},
{
place = (174, 39);
place = (174, 39);
type = Stem;
},
{
place = (174, 114);
place = (174, 114);
type = Stem;
},
{
place = (378, 114);
place = (378, 114);
type = Stem;
},
{
place = (451, 41);
place = (451, 41);
type = Stem;
}
);
layerId = m01;
shapes = (
{
closed = 1;
nodes = (
(277,962,l),
(388,962,l),
(284,1105,l),
(124,1105,l)
);
},
{
closed = 1;
nodes = (
(174,765,l),
(288,765,l),
(288,901,l),
(174,901,l)
);
},
{
closed = 1;
nodes = (
(378,765,l),
(492,765,l),
(492,901,l),
(378,901,l)
);
},
{
closed = 1;
nodes = (
(514,-18,o),
(608,72,o),
(608,257,cs),
(608,697,l),
(451,697,l),
(451,268,ls),
(451,174,o),
(432,126,o),
(332,126,cs),
(231,126,o),
(213,173,o),
(213,270,cs),
(213,697,l),
(56,697,l),
(56,252,ls),
(56,70,o),
(149,-18,o),
(332,-18,cs)
);
}
);
width = 664;
}
);
note = uni01DB;
unicode = 475;
},
{
glyphname = uni01D5;
kernLeft = U;
kernRight = J;
layers = (
{
hints = (
{
horizontal = 1;
place = (-18, 144);
place = (-18, 144);
type = Stem;
},
{
horizontal = 1;
place = (697, -20);
target = down;
type = TopGhost;
},
{
horizontal = 1;
place = (765, 136);
place = (765, 136);
type = Stem;
},
{
horizontal = 1;
place = (954, 87);
place = (954, 87);
type = Stem;
},
{
place = (194, 94);
place = (194, 94);
type = Stem;
},
{
place = (378, 94);
place = (378, 94);
type = Stem;
},
{
place = (174, 39);
place = (174, 39);
type = Stem;
},
{
place = (451, 157);
place = (451, 157);
type = Stem;
},
{
place = (174, 114);
place = (174, 114);
type = Stem;
},
{
place = (378, 114);
place = (378, 114);
type = Stem;
},
{
place = (56, 157);
place = (56, 157);
type = Stem;
},
{
place = (451, 41);
place = (451, 41);
type = Stem;
}
);
layerId = m01;
shapes = (
{
closed = 1;
nodes = (
(194,954,l),
(472,954,l),
(472,1041,l),
(194,1041,l)
);
},
{
closed = 1;
nodes = (
(174,765,l),
(288,765,l),
(288,901,l),
(174,901,l)
);
},
{
closed = 1;
nodes = (
(378,765,l),
(492,765,l),
(492,901,l),
(378,901,l)
);
},
{
closed = 1;
nodes = (
(514,-18,o),
(608,72,o),
(608,257,cs),
(608,697,l),
(451,697,l),
(451,268,ls),
(451,174,o),
(432,126,o),
(332,126,cs),
(231,126,o),
(213,173,o),
(213,270,cs),
(213,697,l),
(56,697,l),
(56,252,ls),
(56,70,o),
(149,-18,o),
(332,-18,cs)
);
}
);
width = 664;
}
);
note = uni01D5;
unicode = 469;
},
{
glyphname = uni1EE4;
kernLeft = U;
kernRight = J;
layers = (
{
hints = (
{
horizontal = 1;
place = (-173, 117);
place = (-173, 117);
type = Stem;
},
{
horizontal = 1;
place = (-18, 144);
place = (-18, 144);
type = Stem;
},
{
horizontal = 1;
place = (697, -20);
target = down;
type = TopGhost;
},
{
place = (56, 157);
place = (56, 157);
type = Stem;
},
{
place = (256, 154);
place = (256, 154);
type = Stem;
},
{
place = (451, 157);
place = (451, 157);
type = Stem;
}
);
layerId = m01;
shapes = (
{
closed = 1;
nodes = (
(514,-18,o),
(608,72,o),
(608,257,cs),
(608,697,l),
(451,697,l),
(451,268,ls),
(451,174,o),
(432,126,o),
(332,126,cs),
(231,126,o),
(213,173,o),
(213,270,cs),
(213,697,l),
(56,697,l),
(56,252,ls),
(56,70,o),
(149,-18,o),
(332,-18,cs)
);
},
{
closed = 1;
nodes = (
(256,-173,l),
(410,-173,l),
(410,-56,l),
(256,-56,l)
);
}
);
width = 664;
}
);
note = uni1EE4;
unicode = 7908;
},
{
glyphname = Ugrave;
kernLeft = U;
kernRight = J;
layers = (
{
hints = (
{
horizontal = 1;
place = (-18, 144);
place = (-18, 144);
type = Stem;
},
{
horizontal = 1;
place = (697, -20);
target = down;
type = TopGhost;
},
{
horizontal = 1;
place = (758, 143);
place = (758, 143);
type = Stem;
},
{
place = (56, 157);
place = (56, 157);
type = Stem;
},
{
place = (451, 157);
place = (451, 157);
type = Stem;
}
);
layerId = m01;
shapes = (
{
closed = 1;
nodes = (
(277,758,l),
(388,758,l),
(284,901,l),
(124,901,l)
);
},
{
closed = 1;
nodes = (
(514,-18,o),
(608,72,o),
(608,257,cs),
(608,697,l),
(451,697,l),
(451,268,ls),
(451,174,o),
(432,126,o),
(332,126,cs),
(231,126,o),
(213,173,o),
(213,270,cs),
(213,697,l),
(56,697,l),
(56,252,ls),
(56,70,o),
(149,-18,o),
(332,-18,cs)
);
}
);
width = 664;
}
);
note = Ugrave;
unicode = 217;
},
{
glyphname = uni1EE6;
kernLeft = U;
kernRight = J;
layers = (
{
hints = (
{
horizontal = 1;
place = (-18, 144);
place = (-18, 144);
type = Stem;
},
{
horizontal = 1;
place = (697, -20);
target = down;
type = TopGhost;
},
{
horizontal = 1;
place = (714, 61);
place = (714, 61);
type = Stem;
},
{
horizontal = 1;
place = (830, 92);
place = (830, 92);
type = Stem;
},
{
place = (56, 157);
place = (56, 157);
type = Stem;
},
{
place = (344, 105);
place = (344, 105);
type = Stem;
},
{
place = (451, 157);
place = (451, 157);
type = Stem;
}
);
layerId = m01;
shapes = (
{
closed = 1;
nodes = (
(306,714,l),
(364,722,o),
(449,736,o),
(449,815,cs),
(449,884,o),
(379,922,o),
(273,922,cs),
(257,922,l),
(257,830,l),
(273,830,ls),
(310,830,o),
(344,830,o),
(344,804,cs),
(344,780,o),
(317,779,o),
(289,775,c)
);
},
{
closed = 1;
nodes = (
(514,-18,o),
(608,72,o),
(608,257,cs),
(608,697,l),
(451,697,l),
(451,268,ls),
(451,174,o),
(432,126,o),
(332,126,cs),
(231,126,o),
(213,173,o),
(213,270,cs),
(213,697,l),
(56,697,l),
(56,252,ls),
(56,70,o),
(149,-18,o),
(332,-18,cs)
);
}
);
width = 664;
}
);
note = uni1EE6;
unicode = 7910;
},
{
glyphname = Uhorn;
kernLeft = U;
kernRight = J;
layers = (
{
hints = (
{
horizontal = 1;
place = (-18, 144);
place = (-18, 144);
type = Stem;
},
{
horizontal = 1;
place = (697, -20);
target = down;
type = TopGhost;
},
{
place = (56, 157);
place = (56, 157);
type = Stem;
},
{
place = (451, 157);
place = (451, 157);
type = Stem;
},
{
place = (661, 104);
place = (661, 104);
type = Stem;
}
);
layerId = m01;
shapes = (
{
closed = 1;
nodes = (
(661,697,l),
(661,672,ls),
(661,624,o),
(649,594,o),
(608,589,c),
(608,697,l),
(451,697,l),
(451,268,ls),
(451,174,o),
(432,126,o),
(332,126,cs),
(231,126,o),
(213,173,o),
(213,270,cs),
(213,697,l),
(56,697,l),
(56,252,ls),
(56,70,o),
(149,-18,o),
(332,-18,cs),
(514,-18,o),
(608,72,o),
(608,257,cs),
(608,491,l),
(722,496,o),
(765,576,o),
(765,663,cs),
(765,697,l)
);
}
);
width = 664;
}
);
note = Uhorn;
unicode = 431;
},
{
glyphname = uni1EE8;
kernLeft = U;
kernRight = J;
layers = (
{
hints = (
{
horizontal = 1;
place = (-18, 144);
place = (-18, 144);
type = Stem;
},
{
horizontal = 1;
place = (697, -20);
target = down;
type = TopGhost;
},
{
horizontal = 1;
place = (758, 143);
place = (758, 143);
type = Stem;
},
{
place = (56, 157);
place = (56, 157);
type = Stem;
},
{
place = (451, 157);
place = (451, 157);
type = Stem;
},
{
place = (661, 104);
place = (661, 104);
type = Stem;
}
);
layerId = m01;
shapes = (
{
closed = 1;
nodes = (
(553,901,l),
(391,901,l),
(278,758,l),
(387,758,l)
);
},
{
closed = 1;
nodes = (
(661,697,l),
(661,672,ls),
(661,624,o),
(649,594,o),
(608,589,c),
(608,697,l),
(451,697,l),
(451,268,ls),
(451,174,o),
(432,126,o),
(332,126,cs),
(231,126,o),
(213,173,o),
(213,270,cs),
(213,697,l),
(56,697,l),
(56,252,ls),
(56,70,o),
(149,-18,o),
(332,-18,cs),
(514,-18,o),
(608,72,o),
(608,257,cs),
(608,491,l),
(722,496,o),
(765,576,o),
(765,663,cs),
(765,697,l)
);
}
);
width = 664;
}
);
note = uni1EE8;
unicode = 7912;
},
{
glyphname = uni1EF0;
kernLeft = U;
kernRight = J;
layers = (
{
hints = (
{
horizontal = 1;
place = (-173, 117);
place = (-173, 117);
type = Stem;
},
{
horizontal = 1;
place = (-18, 144);
place = (-18, 144);
type = Stem;
},
{
horizontal = 1;
place = (697, -20);
target = down;
type = TopGhost;
},
{
place = (56, 157);
place = (56, 157);
type = Stem;
},
{
place = (256, 154);
place = (256, 154);
type = Stem;
},
{
place = (451, 157);
place = (451, 157);
type = Stem;
},
{
place = (661, 104);
place = (661, 104);
type = Stem;
}
);
layerId = m01;
shapes = (
{
closed = 1;
nodes = (
(661,697,l),
(661,672,ls),
(661,624,o),
(649,594,o),
(608,589,c),
(608,697,l),
(451,697,l),
(451,268,ls),
(451,174,o),
(432,126,o),
(332,126,cs),
(231,126,o),
(213,173,o),
(213,270,cs),
(213,697,l),
(56,697,l),
(56,252,ls),
(56,70,o),
(149,-18,o),
(332,-18,cs),
(514,-18,o),
(608,72,o),
(608,257,cs),
(608,491,l),
(722,496,o),
(765,576,o),
(765,663,cs),
(765,697,l)
);
},
{
closed = 1;
nodes = (
(256,-173,l),
(410,-173,l),
(410,-56,l),
(256,-56,l)
);
}
);
width = 664;
}
);
note = uni1EF0;
unicode = 7920;
},
{
glyphname = uni1EEA;
kernLeft = U;
kernRight = J;
layers = (
{
hints = (
{
horizontal = 1;
place = (-18, 144);
place = (-18, 144);
type = Stem;
},
{
horizontal = 1;
place = (697, -20);
target = down;
type = TopGhost;
},
{
horizontal = 1;
place = (758, 143);
place = (758, 143);
type = Stem;
},
{
place = (56, 157);
place = (56, 157);
type = Stem;
},
{
place = (451, 157);
place = (451, 157);
type = Stem;
},
{
place = (661, 104);
place = (661, 104);
type = Stem;
}
);
layerId = m01;
shapes = (
{
closed = 1;
nodes = (
(388,758,l),
(284,901,l),
(124,901,l),
(277,758,l)
);
},
{
closed = 1;
nodes = (
(661,697,l),
(661,672,ls),
(661,624,o),
(649,594,o),
(608,589,c),
(608,697,l),
(451,697,l),
(451,268,ls),
(451,174,o),
(432,126,o),
(332,126,cs),
(231,126,o),
(213,173,o),
(213,270,cs),
(213,697,l),
(56,697,l),
(56,252,ls),
(56,70,o),
(149,-18,o),
(332,-18,cs),
(514,-18,o),
(608,72,o),
(608,257,cs),
(608,491,l),
(722,496,o),
(765,576,o),
(765,663,cs),
(765,697,l)
);
}
);
width = 664;
}
);
note = uni1EEA;
unicode = 7914;
},
{
glyphname = uni1EEC;
kernLeft = U;
kernRight = J;
layers = (
{
hints = (
{
horizontal = 1;
place = (-18, 144);
place = (-18, 144);
type = Stem;
},
{
horizontal = 1;
place = (697, -20);
target = down;
type = TopGhost;
},
{
horizontal = 1;
place = (714, 61);
place = (714, 61);
type = Stem;
},
{
horizontal = 1;
place = (830, 92);
place = (830, 92);
type = Stem;
},
{
place = (56, 157);
place = (56, 157);
type = Stem;
},
{
place = (344, 105);
place = (344, 105);
type = Stem;
},
{
place = (661, 104);
place = (661, 104);
type = Stem;
},
{
place = (451, 157);
place = (451, 157);
type = Stem;
}
);
layerId = m01;
shapes = (
{
closed = 1;
nodes = (
(344,780,o),
(317,779,o),
(289,775,c),
(306,714,l),
(364,722,o),
(449,736,o),
(449,815,cs),
(449,884,o),
(379,922,o),
(273,922,cs),
(257,922,l),
(257,830,l),
(273,830,ls),
(310,830,o),
(344,830,o),
(344,804,cs)
);
},
{
closed = 1;
nodes = (
(661,697,l),
(661,672,ls),
(661,624,o),
(649,594,o),
(608,589,c),
(608,697,l),
(451,697,l),
(451,268,ls),
(451,174,o),
(432,126,o),
(332,126,cs),
(231,126,o),
(213,173,o),
(213,270,cs),
(213,697,l),
(56,697,l),
(56,252,ls),
(56,70,o),
(149,-18,o),
(332,-18,cs),
(514,-18,o),
(608,72,o),
(608,257,cs),
(608,491,l),
(722,496,o),
(765,576,o),
(765,663,cs),
(765,697,l)
);
}
);
width = 664;
}
);
note = uni1EEC;
unicode = 7916;
},
{
glyphname = uni1EEE;
kernLeft = U;
kernRight = J;
layers = (
{
hints = (
{
horizontal = 1;
place = (-18, 144);
place = (-18, 144);
type = Stem;
},
{
horizontal = 1;
place = (697, -20);
target = down;
type = TopGhost;
},
{
horizontal = 1;
place = (811, 92);
place = (811, 92);
type = Stem;
},
{
place = (56, 157);
place = (56, 157);
type = Stem;
},
{
place = (451, 157);
place = (451, 157);
type = Stem;
},
{
place = (661, 104);
place = (661, 104);
type = Stem;
},
{
horizontal = 1;
place = (752, 149);
place = (752, 149);
type = Stem;
},
{
place = (414, 90);
place = (414, 90);
type = Stem;
},
{
horizontal = 1;
place = (752, 91);
place = (752, 91);
type = Stem;
},
{
horizontal = 1;
place = (751, 152);
place = (751, 152);
type = Stem;
},
{
place = (161, 52);
place = (161, 52);
type = Stem;
}
);
layerId = m01;
shapes = (
{
closed = 1;
nodes = (
(295,811,o),
(317,752,o),
(392,752,cs),
(461,752,o),
(504,803,o),
(504,901,c),
(414,901,l),
(414,862,o),
(405,843,o),
(394,843,cs),
(370,843,o),
(340,903,o),
(275,903,cs),
(205,903,o),
(161,848,o),
(161,751,c),
(247,751,l),
(247,791,o),
(255,811,o),
(268,811,cs)
);
},
{
closed = 1;
nodes = (
(661,697,l),
(661,672,ls),
(661,624,o),
(649,594,o),
(608,589,c),
(608,697,l),
(451,697,l),
(451,268,ls),
(451,174,o),
(432,126,o),
(332,126,cs),
(231,126,o),
(213,173,o),
(213,270,cs),
(213,697,l),
(56,697,l),
(56,252,ls),
(56,70,o),
(149,-18,o),
(332,-18,cs),
(514,-18,o),
(608,72,o),
(608,257,cs),
(608,491,l),
(722,496,o),
(765,576,o),
(765,663,cs),
(765,697,l)
);
}
);
width = 664;
}
);
note = uni1EEE;
unicode = 7918;
},
{
glyphname = Uhungarumlaut;
kernLeft = U;
kernRight = J;
layers = (
{
hints = (
{
horizontal = 1;
place = (-18, 144);
place = (-18, 144);
type = Stem;
},
{
horizontal = 1;
place = (697, -20);
target = down;
type = TopGhost;
},
{
horizontal = 1;
place = (731, 170);
place = (731, 170);
type = Stem;
},
{
place = (56, 157);
place = (56, 157);
type = Stem;
},
{
place = (451, 157);
place = (451, 157);
type = Stem;
}
);
layerId = m01;
shapes = (
{
closed = 1;
nodes = (
(176,731,l),
(285,731,l),
(424,901,l),
(289,901,l)
);
},
{
closed = 1;
nodes = (
(381,731,l),
(490,731,l),
(654,901,l),
(494,901,l)
);
},
{
closed = 1;
nodes = (
(514,-18,o),
(608,72,o),
(608,257,cs),
(608,697,l),
(451,697,l),
(451,268,ls),
(451,174,o),
(432,126,o),
(332,126,cs),
(231,126,o),
(213,173,o),
(213,270,cs),
(213,697,l),
(56,697,l),
(56,252,ls),
(56,70,o),
(149,-18,o),
(332,-18,cs)
);
}
);
width = 664;
}
);
note = Uhungarumlaut;
unicode = 368;
},
{
glyphname = Umacron;
kernLeft = U;
kernRight = J;
layers = (
{
hints = (
{
horizontal = 1;
place = (-18, 144);
place = (-18, 144);
type = Stem;
},
{
horizontal = 1;
place = (697, -20);
target = down;
type = TopGhost;
},
{
horizontal = 1;
place = (750, 87);
place = (750, 87);
type = Stem;
},
{
place = (194, 19);
place = (194, 19);
type = Stem;
},
{
place = (451, 21);
place = (451, 21);
type = Stem;
},
{
place = (56, 157);
place = (56, 157);
type = Stem;
},
{
place = (451, 157);
place = (451, 157);
type = Stem;
}
);
layerId = m01;
shapes = (
{
closed = 1;
nodes = (
(194,750,l),
(472,750,l),
(472,837,l),
(194,837,l)
);
},
{
closed = 1;
nodes = (
(514,-18,o),
(608,72,o),
(608,257,cs),
(608,697,l),
(451,697,l),
(451,268,ls),
(451,174,o),
(432,126,o),
(332,126,cs),
(231,126,o),
(213,173,o),
(213,270,cs),
(213,697,l),
(56,697,l),
(56,252,ls),
(56,70,o),
(149,-18,o),
(332,-18,cs)
);
}
);
width = 664;
}
);
note = Umacron;
unicode = 362;
},
{
glyphname = Uogonek;
kernLeft = U;
kernRight = J;
layers = (
{
hints = (
{
horizontal = 1;
place = (-227, 92);
place = (-227, 92);
type = Stem;
},
{
horizontal = 1;
place = (-16, 21);
target = up;
type = BottomGhost;
},
{
horizontal = 1;
place = (697, -20);
target = down;
type = TopGhost;
},
{
place = (56, 157);
place = (56, 157);
type = Stem;
},
{
place = (451, 157);
place = (451, 157);
type = Stem;
},
{
place = (234, 89);
place = (234, 89);
type = Stem;
}
);
layerId = m01;
shapes = (
{
closed = 1;
nodes = (
(451,697,l),
(451,268,ls),
(451,174,o),
(432,126,o),
(332,126,cs),
(231,126,o),
(213,173,o),
(213,270,cs),
(213,697,l),
(56,697,l),
(56,252,ls),
(56,86,o),
(133,-2,o),
(285,-16,c),
(261,-35,o),
(234,-67,o),
(234,-116,cs),
(234,-182,o),
(287,-227,o),
(359,-227,cs),
(419,-227,o),
(453,-195,o),
(476,-158,c),
(398,-107,l),
(389,-124,o),
(376,-135,o),
(355,-135,cs),
(338,-135,o),
(323,-128,o),
(323,-100,cs),
(323,-62,o),
(365,-31,o),
(397,-14,c),
(536,6,o),
(608,95,o),
(608,257,cs),
(608,697,l)
);
}
);
width = 664;
}
);
note = Uogonek;
unicode = 370;
},
{
glyphname = Uring;
kernLeft = U;
kernRight = J;
layers = (
{
hints = (
{
horizontal = 1;
place = (-18, 144);
place = (-18, 144);
type = Stem;
},
{
horizontal = 1;
place = (674, 23);
place = (674, 23);
type = Stem;
},
{
horizontal = 1;
place = (842, 80);
place = (842, 80);
type = Stem;
},
{
place = (209, 81);
place = (209, 81);
type = Stem;
},
{
place = (377, 80);
place = (377, 80);
type = Stem;
},
{
horizontal = 1;
place = (674, 80);
place = (674, 80);
type = Stem;
},
{
horizontal = 1;
place = (697, -20);
target = down;
type = TopGhost;
},
{
place = (56, 157);
place = (56, 157);
type = Stem;
},
{
place = (451, 157);
place = (451, 157);
type = Stem;
}
);
layerId = m01;
shapes = (
{
closed = 1;
nodes = (
(401,674,o),
(457,729,o),
(457,798,cs),
(457,868,o),
(399,922,o),
(333,922,cs),
(264,922,o),
(209,866,o),
(209,798,cs),
(209,733,o),
(263,674,o),
(333,674,cs)
);
},
{
closed = 1;
nodes = (
(308,754,o),
(290,773,o),
(290,800,cs),
(290,824,o),
(305,842,o),
(333,842,cs),
(362,842,o),
(377,825,o),
(377,800,cs),
(377,773,o),
(360,754,o),
(333,754,cs)
);
},
{
closed = 1;
nodes = (
(514,-18,o),
(608,72,o),
(608,257,cs),
(608,697,l),
(451,697,l),
(451,268,ls),
(451,174,o),
(432,126,o),
(332,126,cs),
(231,126,o),
(213,173,o),
(213,270,cs),
(213,697,l),
(56,697,l),
(56,252,ls),
(56,70,o),
(149,-18,o),
(332,-18,cs)
);
}
);
width = 664;
}
);
note = Uring;
unicode = 366;
},
{
glyphname = Utilde;
kernLeft = U;
kernRight = J;
layers = (
{
hints = (
{
horizontal = 1;
place = (-18, 144);
place = (-18, 144);
type = Stem;
},
{
horizontal = 1;
place = (697, -20);
target = down;
type = TopGhost;
},
{
horizontal = 1;
place = (752, 149);
place = (752, 149);
type = Stem;
},
{
place = (56, 157);
place = (56, 157);
type = Stem;
},
{
place = (451, 157);
place = (451, 157);
type = Stem;
},
{
place = (414, 90);
place = (414, 90);
type = Stem;
},
{
horizontal = 1;
place = (752, 91);
place = (752, 91);
type = Stem;
},
{
horizontal = 1;
place = (751, 152);
place = (751, 152);
type = Stem;
},
{
place = (161, 52);
place = (161, 52);
type = Stem;
},
{
horizontal = 1;
place = (811, 92);
place = (811, 92);
type = Stem;
}
);
layerId = m01;
shapes = (
{
closed = 1;
nodes = (
(461,752,o),
(504,803,o),
(504,901,c),
(414,901,l),
(414,862,o),
(405,843,o),
(394,843,cs),
(370,843,o),
(340,903,o),
(275,903,cs),
(205,903,o),
(161,848,o),
(161,751,c),
(247,751,l),
(247,791,o),
(255,811,o),
(268,811,cs),
(295,811,o),
(317,752,o),
(392,752,cs)
);
},
{
closed = 1;
nodes = (
(514,-18,o),
(608,72,o),
(608,257,cs),
(608,697,l),
(451,697,l),
(451,268,ls),
(451,174,o),
(432,126,o),
(332,126,cs),
(231,126,o),
(213,173,o),
(213,270,cs),
(213,697,l),
(56,697,l),
(56,252,ls),
(56,70,o),
(149,-18,o),
(332,-18,cs)
);
}
);
width = 664;
}
);
note = Utilde;
unicode = 360;
},
{
glyphname = V;
kernLeft = V;
kernRight = V;
lastChange = "2022-12-23 05:24:29 +0000";
layers = (
{
hints = (
{
horizontal = 1;
place = (0, 21);
target = up;
type = BottomGhost;
},
{
horizontal = 1;
place = (697, -20);
target = down;
type = TopGhost;
},
{
place = (-14, 676);
place = (-14, 676);
type = Stem;
}
);
layerId = m01;
shapes = (
{
closed = 1;
nodes = (
(487,697,o),
(477,669,qs),
(325,261,l),
(159,697,l),
(-14,697,l),
(267,0,l),
(382,0,l),
(662,697,l),
(518,697,ls)
);
}
);
width = 648;
}
);
note = V;
unicode = 86;
},
{
glyphname = W;
kernLeft = W;
kernRight = W;
lastChange = "2022-12-23 05:24:41 +0000";
layers = (
{
hints = (
{
horizontal = 1;
place = (0, 21);
target = up;
type = BottomGhost;
},
{
horizontal = 1;
place = (697, -20);
target = down;
type = TopGhost;
},
{
place = (-7, 1001);
place = (-7, 1001);
type = Stem;
}
);
layerId = m01;
shapes = (
{
closed = 1;
nodes = (
(830,697,o),
(821,668,qs),
(696,242,l),
(559,655,l),
(456,655,ls),
(426,655,o),
(417,626,qs),
(291,242,l),
(157,697,l),
(-7,697,l),
(206,0,l),
(357,0,l),
(493,406,l),
(628,0,l),
(780,0,l),
(994,697,l),
(859,697,ls)
);
}
);
width = 986;
}
);
note = W;
unicode = 87;
},
{
glyphname = Wacute;
kernLeft = W;
kernRight = W;
layers = (
{
hints = (
{
horizontal = 1;
place = (0, 21);
target = up;
type = BottomGhost;
},
{
horizontal = 1;
place = (697, -20);
target = down;
type = TopGhost;
},
{
horizontal = 1;
place = (758, 143);
place = (758, 143);
type = Stem;
},
{
place = (-7, 1001);
place = (-7, 1001);
type = Stem;
}
);
layerId = m01;
shapes = (
{
closed = 1;
nodes = (
(438,758,l),
(547,758,l),
(713,901,l),
(551,901,l)
);
},
{
closed = 1;
nodes = (
(206,0,l),
(357,0,l),
(493,406,l),
(628,0,l),
(780,0,l),
(994,697,l),
(829,697,l),
(696,242,l),
(559,655,l),
(426,655,l),
(291,242,l),
(157,697,l),
(-7,697,l)
);
}
);
width = 986;
}
);
note = Wacute;
unicode = 7810;
},
{
glyphname = Wcircumflex;
kernLeft = W;
kernRight = W;
layers = (
{
hints = (
{
horizontal = 1;
place = (0, 21);
target = up;
type = BottomGhost;
},
{
horizontal = 1;
place = (697, -20);
target = down;
type = TopGhost;
},
{
place = (-7, 1001);
place = (-7, 1001);
type = Stem;
}
);
layerId = m01;
shapes = (
{
closed = 1;
nodes = (
(333,741,l),
(447,741,l),
(493,797,l),
(539,741,l),
(653,741,l),
(493,924,l)
);
},
{
closed = 1;
nodes = (
(206,0,l),
(357,0,l),
(493,406,l),
(628,0,l),
(780,0,l),
(994,697,l),
(829,697,l),
(696,242,l),
(559,655,l),
(426,655,l),
(291,242,l),
(157,697,l),
(-7,697,l)
);
}
);
width = 986;
}
);
note = Wcircumflex;
unicode = 372;
},
{
glyphname = Wdieresis;
kernLeft = W;
kernRight = W;
layers = (
{
hints = (
{
horizontal = 1;
place = (0, 21);
target = up;
type = BottomGhost;
},
{
horizontal = 1;
place = (697, -20);
target = down;
type = TopGhost;
},
{
horizontal = 1;
place = (765, 136);
place = (765, 136);
type = Stem;
},
{
place = (334, 114);
place = (334, 114);
type = Stem;
},
{
place = (538, 114);
place = (538, 114);
type = Stem;
}
);
layerId = m01;
shapes = (
{
closed = 1;
nodes = (
(334,765,l),
(448,765,l),
(448,901,l),
(334,901,l)
);
},
{
closed = 1;
nodes = (
(538,765,l),
(652,765,l),
(652,901,l),
(538,901,l)
);
},
{
closed = 1;
nodes = (
(206,0,l),
(357,0,l),
(493,406,l),
(628,0,l),
(780,0,l),
(994,697,l),
(829,697,l),
(696,242,l),
(559,655,l),
(426,655,l),
(291,242,l),
(157,697,l),
(-7,697,l)
);
}
);
width = 986;
}
);
note = Wdieresis;
unicode = 7812;
},
{
glyphname = Wgrave;
kernLeft = W;
kernRight = W;
layers = (
{
hints = (
{
horizontal = 1;
place = (0, 21);
target = up;
type = BottomGhost;
},
{
horizontal = 1;
place = (697, -20);
target = down;
type = TopGhost;
},
{
horizontal = 1;
place = (758, 143);
place = (758, 143);
type = Stem;
},
{
place = (-7, 1001);
place = (-7, 1001);
type = Stem;
}
);
layerId = m01;
shapes = (
{
closed = 1;
nodes = (
(437,758,l),
(548,758,l),
(444,901,l),
(284,901,l)
);
},
{
closed = 1;
nodes = (
(206,0,l),
(357,0,l),
(493,406,l),
(628,0,l),
(780,0,l),
(994,697,l),
(829,697,l),
(696,242,l),
(559,655,l),
(426,655,l),
(291,242,l),
(157,697,l),
(-7,697,l)
);
}
);
width = 986;
}
);
note = Wgrave;
unicode = 7808;
},
{
glyphname = X;
kernLeft = X;
kernRight = X;
lastChange = "2022-12-23 05:26:17 +0000";
layers = (
{
hints = (
{
horizontal = 1;
place = (0, 21);
target = up;
type = BottomGhost;
},
{
horizontal = 1;
place = (697, -20);
target = down;
type = TopGhost;
},
{
place = (-6, 673);
place = (-6, 673);
type = Stem;
}
);
layerId = m01;
shapes = (
{
closed = 1;
nodes = (
(479,0,o),
(509,0,qs),
(667,0,l),
(439,346,l),
(667,697,l),
(480,697,l),
(331,455,l),
(198,671,ls),
(181,697,o),
(152,697,qs),
(-6,697,l),
(222,346,l),
(-5,0,l),
(183,0,l),
(330,233,l),
(463,25,ls)
);
}
);
width = 674;
}
);
note = X;
unicode = 88;
},
{
glyphname = Y;
kernLeft = Y;
kernRight = Y;
layers = (
{
hints = (
{
horizontal = 1;
place = (0, 21);
target = up;
type = BottomGhost;
},
{
horizontal = 1;
place = (697, -20);
target = down;
type = TopGhost;
},
{
place = (243, 157);
place = (243, 157);
type = Stem;
}
);
layerId = m01;
shapes = (
{
closed = 1;
nodes = (
(243,0,l),
(400,0,l),
(400,275,l),
(661,697,l),
(476,697,l),
(318,426,l),
(164,697,l),
(-21,697,l),
(243,275,l)
);
}
);
width = 641;
}
);
note = Y;
unicode = 89;
},
{
glyphname = Yacute;
kernLeft = Y;
kernRight = Y;
layers = (
{
hints = (
{
horizontal = 1;
place = (0, 21);
target = up;
type = BottomGhost;
},
{
horizontal = 1;
place = (697, -20);
target = down;
type = TopGhost;
},
{
horizontal = 1;
place = (758, 143);
place = (758, 143);
type = Stem;
},
{
place = (243, 157);
place = (243, 157);
type = Stem;
}
);
layerId = m01;
shapes = (
{
closed = 1;
nodes = (
(266,758,l),
(375,758,l),
(541,901,l),
(379,901,l)
);
},
{
closed = 1;
nodes = (
(243,0,l),
(400,0,l),
(400,275,l),
(661,697,l),
(476,697,l),
(318,426,l),
(164,697,l),
(-21,697,l),
(243,275,l)
);
}
);
width = 641;
}
);
note = Yacute;
unicode = 221;
},
{
glyphname = Ycircumflex;
kernLeft = Y;
kernRight = Y;
layers = (
{
hints = (
{
horizontal = 1;
place = (0, 21);
target = up;
type = BottomGhost;
},
{
horizontal = 1;
place = (697, -20);
target = down;
type = TopGhost;
},
{
place = (243, 157);
place = (243, 157);
type = Stem;
}
);
layerId = m01;
shapes = (
{
closed = 1;
nodes = (
(161,741,l),
(275,741,l),
(321,797,l),
(367,741,l),
(481,741,l),
(321,924,l)
);
},
{
closed = 1;
nodes = (
(243,0,l),
(400,0,l),
(400,275,l),
(661,697,l),
(476,697,l),
(318,426,l),
(164,697,l),
(-21,697,l),
(243,275,l)
);
}
);
width = 641;
}
);
note = Ycircumflex;
unicode = 374;
},
{
glyphname = Ydieresis;
kernLeft = Y;
kernRight = Y;
layers = (
{
hints = (
{
horizontal = 1;
place = (0, 21);
target = up;
type = BottomGhost;
},
{
horizontal = 1;
place = (697, -20);
target = down;
type = TopGhost;
},
{
horizontal = 1;
place = (765, 136);
place = (765, 136);
type = Stem;
},
{
place = (162, 114);
place = (162, 114);
type = Stem;
},
{
place = (366, 114);
place = (366, 114);
type = Stem;
},
{
place = (243, 157);
place = (243, 157);
type = Stem;
}
);
layerId = m01;
shapes = (
{
closed = 1;
nodes = (
(162,765,l),
(276,765,l),
(276,901,l),
(162,901,l)
);
},
{
closed = 1;
nodes = (
(366,765,l),
(480,765,l),
(480,901,l),
(366,901,l)
);
},
{
closed = 1;
nodes = (
(243,0,l),
(400,0,l),
(400,275,l),
(661,697,l),
(476,697,l),
(318,426,l),
(164,697,l),
(-21,697,l),
(243,275,l)
);
}
);
width = 641;
}
);
note = Ydieresis;
unicode = 376;
},
{
glyphname = uni1EF4;
kernLeft = Y;
kernRight = Y;
layers = (
{
hints = (
{
horizontal = 1;
place = (-173, 117);
place = (-173, 117);
type = Stem;
},
{
horizontal = 1;
place = (0, 21);
target = up;
type = BottomGhost;
},
{
horizontal = 1;
place = (697, -20);
target = down;
type = TopGhost;
},
{
place = (243, 157);
place = (243, 157);
type = Stem;
},
{
place = (244, 154);
place = (244, 154);
type = Stem;
}
);
layerId = m01;
shapes = (
{
closed = 1;
nodes = (
(243,0,l),
(400,0,l),
(400,275,l),
(661,697,l),
(476,697,l),
(318,426,l),
(164,697,l),
(-21,697,l),
(243,275,l)
);
},
{
closed = 1;
nodes = (
(244,-173,l),
(398,-173,l),
(398,-56,l),
(244,-56,l)
);
}
);
width = 641;
}
);
note = uni1EF4;
unicode = 7924;
},
{
glyphname = Ygrave;
kernLeft = Y;
kernRight = Y;
layers = (
{
hints = (
{
horizontal = 1;
place = (0, 21);
target = up;
type = BottomGhost;
},
{
horizontal = 1;
place = (697, -20);
target = down;
type = TopGhost;
},
{
horizontal = 1;
place = (758, 143);
place = (758, 143);
type = Stem;
},
{
place = (243, 157);
place = (243, 157);
type = Stem;
}
);
layerId = m01;
shapes = (
{
closed = 1;
nodes = (
(265,758,l),
(376,758,l),
(272,901,l),
(112,901,l)
);
},
{
closed = 1;
nodes = (
(243,0,l),
(400,0,l),
(400,275,l),
(661,697,l),
(476,697,l),
(318,426,l),
(164,697,l),
(-21,697,l),
(243,275,l)
);
}
);
width = 641;
}
);
note = Ygrave;
unicode = 7922;
},
{
glyphname = uni1EF6;
kernLeft = Y;
kernRight = Y;
layers = (
{
hints = (
{
horizontal = 1;
place = (0, 21);
target = up;
type = BottomGhost;
},
{
horizontal = 1;
place = (697, -20);
target = down;
type = TopGhost;
},
{
horizontal = 1;
place = (714, 61);
place = (714, 61);
type = Stem;
},
{
horizontal = 1;
place = (830, 92);
place = (830, 92);
type = Stem;
},
{
place = (243, 157);
place = (243, 157);
type = Stem;
},
{
place = (332, 105);
place = (332, 105);
type = Stem;
}
);
layerId = m01;
shapes = (
{
closed = 1;
nodes = (
(294,714,l),
(352,722,o),
(437,736,o),
(437,815,cs),
(437,884,o),
(367,922,o),
(261,922,cs),
(245,922,l),
(245,830,l),
(261,830,ls),
(298,830,o),
(332,830,o),
(332,804,cs),
(332,780,o),
(305,779,o),
(277,775,c)
);
},
{
closed = 1;
nodes = (
(243,0,l),
(400,0,l),
(400,275,l),
(661,697,l),
(476,697,l),
(318,426,l),
(164,697,l),
(-21,697,l),
(243,275,l)
);
}
);
width = 641;
}
);
note = uni1EF6;
unicode = 7926;
},
{
glyphname = uni1EF8;
kernLeft = Y;
kernRight = Y;
layers = (
{
hints = (
{
horizontal = 1;
place = (0, 21);
target = up;
type = BottomGhost;
},
{
horizontal = 1;
place = (697, -20);
target = down;
type = TopGhost;
},
{
horizontal = 1;
place = (752, 149);
place = (752, 149);
type = Stem;
},
{
place = (243, 157);
place = (243, 157);
type = Stem;
},
{
place = (402, 90);
place = (402, 90);
type = Stem;
},
{
horizontal = 1;
place = (752, 91);
place = (752, 91);
type = Stem;
},
{
horizontal = 1;
place = (751, 152);
place = (751, 152);
type = Stem;
},
{
place = (149, 86);
place = (149, 86);
type = Stem;
},
{
horizontal = 1;
place = (811, 92);
place = (811, 92);
type = Stem;
}
);
layerId = m01;
shapes = (
{
closed = 1;
nodes = (
(449,752,o),
(492,803,o),
(492,901,c),
(402,901,l),
(402,862,o),
(393,843,o),
(382,843,cs),
(358,843,o),
(328,903,o),
(263,903,cs),
(193,903,o),
(149,848,o),
(149,751,c),
(235,751,l),
(235,791,o),
(243,811,o),
(256,811,cs),
(283,811,o),
(305,752,o),
(380,752,cs)
);
},
{
closed = 1;
nodes = (
(243,0,l),
(400,0,l),
(400,275,l),
(661,697,l),
(476,697,l),
(318,426,l),
(164,697,l),
(-21,697,l),
(243,275,l)
);
}
);
width = 641;
}
);
note = uni1EF8;
unicode = 7928;
},
{
glyphname = Z;
kernLeft = Z;
kernRight = Z;
lastChange = "2022-12-23 05:25:22 +0000";
layers = (
{
hints = (
{
horizontal = 1;
place = (0, 144);
place = (0, 144);
type = Stem;
},
{
horizontal = 1;
place = (553, 144);
place = (553, 144);
type = Stem;
},
{
place = (15, 570);
place = (15, 570);
type = Stem;
}
);
layerId = m01;
shapes = (
{
closed = 1;
nodes = (
(585,144,o),
(555,144,qs),
(231,144,l),
(584,585,l),
(584,697,l),
(38,697,l),
(38,553,l),
(373,553,l),
(15,107,l),
(15,0,l),
(585,0,l),
(585,114,ls)
);
}
);
width = 608;
}
);
note = Z;
unicode = 90;
},
{
glyphname = Zacute;
kernLeft = Z;
kernRight = Z;
layers = (
{
hints = (
{
horizontal = 1;
place = (0, 144);
place = (0, 144);
type = Stem;
},
{
horizontal = 1;
place = (553, 144);
place = (553, 144);
type = Stem;
},
{
horizontal = 1;
place = (758, 143);
place = (758, 143);
type = Stem;
},
{
place = (15, 570);
place = (15, 570);
type = Stem;
}
);
layerId = m01;
shapes = (
{
closed = 1;
nodes = (
(524,901,l),
(362,901,l),
(249,758,l),
(358,758,l)
);
},
{
closed = 1;
nodes = (
(231,144,l),
(584,585,l),
(584,697,l),
(38,697,l),
(38,553,l),
(373,553,l),
(15,107,l),
(15,0,l),
(585,0,l),
(585,144,l)
);
}
);
width = 608;
}
);
note = Zacute;
unicode = 377;
},
{
glyphname = Zcaron;
kernLeft = Z;
kernRight = Z;
layers = (
{
hints = (
{
horizontal = 1;
place = (0, 144);
place = (0, 144);
type = Stem;
},
{
horizontal = 1;
place = (553, 144);
place = (553, 144);
type = Stem;
},
{
place = (15, 570);
place = (15, 570);
type = Stem;
}
);
layerId = m01;
shapes = (
{
closed = 1;
nodes = (
(464,901,l),
(350,901,l),
(304,851,l),
(259,901,l),
(144,901,l),
(304,730,l)
);
},
{
closed = 1;
nodes = (
(231,144,l),
(584,585,l),
(584,697,l),
(38,697,l),
(38,553,l),
(373,553,l),
(15,107,l),
(15,0,l),
(585,0,l),
(585,144,l)
);
}
);
width = 608;
}
);
note = Zcaron;
unicode = 381;
},
{
glyphname = Zdotaccent;
kernLeft = Z;
kernRight = Z;
layers = (
{
hints = (
{
horizontal = 1;
place = (0, 144);
place = (0, 144);
type = Stem;
},
{
horizontal = 1;
place = (553, 144);
place = (553, 144);
type = Stem;
},
{
horizontal = 1;
place = (765, 136);
place = (765, 136);
type = Stem;
},
{
place = (227, 154);
place = (227, 154);
type = Stem;
}
);
layerId = m01;
shapes = (
{
closed = 1;
nodes = (
(381,901,l),
(227,901,l),
(227,765,l),
(381,765,l)
);
},
{
closed = 1;
nodes = (
(231,144,l),
(584,585,l),
(584,697,l),
(38,697,l),
(38,553,l),
(373,553,l),
(15,107,l),
(15,0,l),
(585,0,l),
(585,144,l)
);
}
);
width = 608;
}
);
note = Zdotaccent;
unicode = 379;
},
{
glyphname = uni1EB6.ss03;
kernLeft = A;
kernRight = A;
layers = (
{
hints = (
{
horizontal = 1;
place = (0, 21);
target = up;
type = BottomGhost;
},
{
horizontal = 1;
place = (118, 144);
place = (118, 144);
type = Stem;
},
{
horizontal = 1;
place = (697, -20);
target = down;
type = TopGhost;
},
{
horizontal = 1;
place = (767, 134);
place = (767, 134);
type = Stem;
},
{
place = (174, 106);
place = (174, 106);
type = Stem;
},
{
place = (386, 106);
place = (386, 106);
type = Stem;
},
{
horizontal = 1;
place = (767, 87);
place = (767, 87);
type = Stem;
},
{
horizontal = 1;
place = (-209, 171);
place = (-209, 171);
type = Stem;
},
{
place = (248, 170);
place = (248, 170);
type = Stem;
}
);
layerId = m01;
shapes = (
{
closed = 1;
nodes = (
(439,767,o),
(492,809,o),
(492,901,c),
(386,901,l),
(386,870,o),
(361,854,o),
(333,854,cs),
(307,854,o),
(280,868,o),
(280,901,c),
(174,901,l),
(174,815,o),
(221,767,o),
(333,767,cs)
);
},
{
closed = 1;
nodes = (
(679,0,l),
(390,697,l),
(275,697,l),
(-15,0,l),
(156,0,l),
(201,118,l),
(463,118,l),
(508,0,l)
);
},
{
closed = 1;
nodes = (
(256,262,l),
(333,463,l),
(409,262,l)
);
},
{
closed = 1;
nodes = (
(285,-38,o),
(248,-75,o),
(248,-123,cs),
(248,-171,o),
(286,-209,o),
(333,-209,cs),
(381,-209,o),
(418,-171,o),
(418,-123,cs),
(418,-75,o),
(381,-38,o),
(333,-38,cs)
);
}
);
width = 664;
}
);
note = uni1EB6.ss03;
},
{
glyphname = uni1EAC.ss03;
kernLeft = A;
kernRight = A;
layers = (
{
hints = (
{
horizontal = 1;
place = (-209, 171);
place = (-209, 171);
type = Stem;
},
{
horizontal = 1;
place = (0, 21);
target = up;
type = BottomGhost;
},
{
horizontal = 1;
place = (118, 144);
place = (118, 144);
type = Stem;
},
{
horizontal = 1;
place = (697, -20);
target = down;
type = TopGhost;
},
{
place = (248, 170);
place = (248, 170);
type = Stem;
}
);
layerId = m01;
shapes = (
{
closed = 1;
nodes = (
(333,797,l),
(379,741,l),
(493,741,l),
(333,924,l),
(173,741,l),
(287,741,l)
);
},
{
closed = 1;
nodes = (
(679,0,l),
(390,697,l),
(275,697,l),
(-15,0,l),
(156,0,l),
(201,118,l),
(463,118,l),
(508,0,l)
);
},
{
closed = 1;
nodes = (
(256,262,l),
(333,463,l),
(409,262,l)
);
},
{
closed = 1;
nodes = (
(285,-38,o),
(248,-75,o),
(248,-123,cs),
(248,-171,o),
(286,-209,o),
(333,-209,cs),
(381,-209,o),
(418,-171,o),
(418,-123,cs),
(418,-75,o),
(381,-38,o),
(333,-38,cs)
);
}
);
width = 664;
}
);
note = uni1EAC.ss03;
},
{
glyphname = Adieresis.ss03;
kernLeft = A;
kernRight = A;
layers = (
{
hints = (
{
horizontal = 1;
place = (0, 21);
target = up;
type = BottomGhost;
},
{
horizontal = 1;
place = (118, 144);
place = (118, 144);
type = Stem;
},
{
horizontal = 1;
place = (697, -20);
target = down;
type = TopGhost;
},
{
horizontal = 1;
place = (741, 171);
place = (741, 171);
type = Stem;
},
{
place = (145, 170);
place = (145, 170);
type = Stem;
},
{
place = (351, 170);
place = (351, 170);
type = Stem;
}
);
layerId = m01;
shapes = (
{
closed = 1;
nodes = (
(278,741,o),
(315,779,o),
(315,827,cs),
(315,875,o),
(278,912,o),
(230,912,cs),
(182,912,o),
(145,875,o),
(145,827,cs),
(145,779,o),
(183,741,o),
(230,741,cs)
);
},
{
closed = 1;
nodes = (
(484,741,o),
(521,779,o),
(521,827,cs),
(521,875,o),
(484,912,o),
(436,912,cs),
(388,912,o),
(351,875,o),
(351,827,cs),
(351,779,o),
(389,741,o),
(436,741,cs)
);
},
{
closed = 1;
nodes = (
(508,0,l),
(679,0,l),
(390,697,l),
(275,697,l),
(-15,0,l),
(156,0,l),
(201,118,l),
(463,118,l)
);
},
{
closed = 1;
nodes = (
(256,262,l),
(333,463,l),
(409,262,l)
);
}
);
width = 664;
}
);
note = Adieresis.ss03;
},
{
glyphname = uni1EA0.ss03;
kernLeft = A;
kernRight = A;
layers = (
{
hints = (
{
horizontal = 1;
place = (-209, 171);
place = (-209, 171);
type = Stem;
},
{
horizontal = 1;
place = (0, 21);
target = up;
type = BottomGhost;
},
{
horizontal = 1;
place = (118, 144);
place = (118, 144);
type = Stem;
},
{
horizontal = 1;
place = (697, -20);
target = down;
type = TopGhost;
},
{
place = (248, 170);
place = (248, 170);
type = Stem;
}
);
layerId = m01;
shapes = (
{
closed = 1;
nodes = (
(679,0,l),
(390,697,l),
(275,697,l),
(-15,0,l),
(156,0,l),
(201,118,l),
(463,118,l),
(508,0,l)
);
},
{
closed = 1;
nodes = (
(256,262,l),
(333,463,l),
(409,262,l)
);
},
{
closed = 1;
nodes = (
(285,-38,o),
(248,-75,o),
(248,-123,cs),
(248,-171,o),
(286,-209,o),
(333,-209,cs),
(381,-209,o),
(418,-171,o),
(418,-123,cs),
(418,-75,o),
(381,-38,o),
(333,-38,cs)
);
}
);
width = 664;
}
);
note = uni1EA0.ss03;
},
{
glyphname = Cdotaccent.ss03;
kernLeft = C;
kernRight = C;
layers = (
{
hints = (
{
horizontal = 1;
place = (-18, 150);
place = (-18, 150);
type = Stem;
},
{
horizontal = 1;
place = (567, 150);
place = (567, 150);
type = Stem;
},
{
horizontal = 1;
place = (741, 171);
place = (741, 171);
type = Stem;
},
{
place = (21, 157);
place = (21, 157);
type = Stem;
},
{
place = (290, 170);
place = (290, 170);
type = Stem;
}
);
layerId = m01;
shapes = (
{
closed = 1;
nodes = (
(423,741,o),
(460,779,o),
(460,827,cs),
(460,875,o),
(423,912,o),
(375,912,cs),
(327,912,o),
(290,875,o),
(290,827,cs),
(290,779,o),
(328,741,o),
(375,741,cs)
);
},
{
closed = 1;
nodes = (
(527,-18,o),
(644,59,o),
(693,198,c),
(546,254,l),
(522,173,o),
(459,132,o),
(372,132,cs),
(251,132,o),
(178,211,o),
(178,350,cs),
(178,489,o),
(249,567,o),
(369,567,cs),
(454,567,o),
(519,527,o),
(546,448,c),
(691,505,l),
(640,637,o),
(525,717,o),
(369,717,cs),
(160,717,o),
(21,571,o),
(21,348,cs),
(21,127,o),
(161,-18,o),
(372,-18,cs)
);
}
);
width = 697;
}
);
note = Cdotaccent.ss03;
},
{
glyphname = uni1EC6.ss03;
layers = (
{
hints = (
{
horizontal = 1;
place = (0, 144);
place = (0, 144);
type = Stem;
},
{
horizontal = 1;
place = (288, 145);
place = (288, 145);
type = Stem;
},
{
horizontal = 1;
place = (553, 144);
place = (553, 144);
type = Stem;
},
{
place = (71, 157);
place = (71, 157);
type = Stem;
},
{
horizontal = 1;
place = (-209, 171);
place = (-209, 171);
type = Stem;
},
{
place = (220, 170);
place = (220, 170);
type = Stem;
}
);
layerId = m01;
shapes = (
{
closed = 1;
nodes = (
(145,741,l),
(259,741,l),
(305,797,l),
(351,741,l),
(465,741,l),
(305,924,l)
);
},
{
closed = 1;
nodes = (
(71,0,l),
(539,0,l),
(539,144,l),
(228,144,l),
(228,288,l),
(524,288,l),
(524,433,l),
(228,433,l),
(228,553,l),
(539,553,l),
(539,697,l),
(71,697,l)
);
},
{
closed = 1;
nodes = (
(353,-209,o),
(390,-171,o),
(390,-123,cs),
(390,-75,o),
(353,-38,o),
(305,-38,cs),
(257,-38,o),
(220,-75,o),
(220,-123,cs),
(220,-171,o),
(258,-209,o),
(305,-209,cs)
);
}
);
width = 592;
}
);
note = uni1EC6.ss03;
},
{
glyphname = Edieresis.ss03;
layers = (
{
hints = (
{
horizontal = 1;
place = (0, 144);
place = (0, 144);
type = Stem;
},
{
horizontal = 1;
place = (288, 145);
place = (288, 145);
type = Stem;
},
{
horizontal = 1;
place = (553, 144);
place = (553, 144);
type = Stem;
},
{
horizontal = 1;
place = (741, 171);
place = (741, 171);
type = Stem;
},
{
place = (117, 170);
place = (117, 170);
type = Stem;
},
{
place = (323, 170);
place = (323, 170);
type = Stem;
},
{
place = (71, 157);
place = (71, 157);
type = Stem;
}
);
layerId = m01;
shapes = (
{
closed = 1;
nodes = (
(250,741,o),
(287,779,o),
(287,827,cs),
(287,875,o),
(250,912,o),
(202,912,cs),
(154,912,o),
(117,875,o),
(117,827,cs),
(117,779,o),
(155,741,o),
(202,741,cs)
);
},
{
closed = 1;
nodes = (
(456,741,o),
(493,779,o),
(493,827,cs),
(493,875,o),
(456,912,o),
(408,912,cs),
(360,912,o),
(323,875,o),
(323,827,cs),
(323,779,o),
(361,741,o),
(408,741,cs)
);
},
{
closed = 1;
nodes = (
(71,0,l),
(539,0,l),
(539,144,l),
(228,144,l),
(228,288,l),
(524,288,l),
(524,433,l),
(228,433,l),
(228,553,l),
(539,553,l),
(539,697,l),
(71,697,l)
);
}
);
width = 592;
}
);
note = Edieresis.ss03;
},
{
glyphname = Edotaccent.ss03;
layers = (
{
hints = (
{
horizontal = 1;
place = (0, 144);
place = (0, 144);
type = Stem;
},
{
horizontal = 1;
place = (288, 145);
place = (288, 145);
type = Stem;
},
{
horizontal = 1;
place = (553, 144);
place = (553, 144);
type = Stem;
},
{
horizontal = 1;
place = (741, 171);
place = (741, 171);
type = Stem;
},
{
place = (220, 170);
place = (220, 170);
type = Stem;
},
{
place = (71, 157);
place = (71, 157);
type = Stem;
}
);
layerId = m01;
shapes = (
{
closed = 1;
nodes = (
(353,741,o),
(390,779,o),
(390,827,cs),
(390,875,o),
(353,912,o),
(305,912,cs),
(257,912,o),
(220,875,o),
(220,827,cs),
(220,779,o),
(258,741,o),
(305,741,cs)
);
},
{
closed = 1;
nodes = (
(71,0,l),
(539,0,l),
(539,144,l),
(228,144,l),
(228,288,l),
(524,288,l),
(524,433,l),
(228,433,l),
(228,553,l),
(539,553,l),
(539,697,l),
(71,697,l)
);
}
);
width = 592;
}
);
note = Edotaccent.ss03;
},
{
glyphname = uni1EB8.ss03;
layers = (
{
hints = (
{
horizontal = 1;
place = (0, 144);
place = (0, 144);
type = Stem;
},
{
horizontal = 1;
place = (288, 145);
place = (288, 145);
type = Stem;
},
{
horizontal = 1;
place = (553, 144);
place = (553, 144);
type = Stem;
},
{
place = (71, 157);
place = (71, 157);
type = Stem;
},
{
horizontal = 1;
place = (-209, 171);
place = (-209, 171);
type = Stem;
},
{
place = (220, 170);
place = (220, 170);
type = Stem;
}
);
layerId = m01;
shapes = (
{
closed = 1;
nodes = (
(71,0,l),
(539,0,l),
(539,144,l),
(228,144,l),
(228,288,l),
(524,288,l),
(524,433,l),
(228,433,l),
(228,553,l),
(539,553,l),
(539,697,l),
(71,697,l)
);
},
{
closed = 1;
nodes = (
(353,-209,o),
(390,-171,o),
(390,-123,cs),
(390,-75,o),
(353,-38,o),
(305,-38,cs),
(257,-38,o),
(220,-75,o),
(220,-123,cs),
(220,-171,o),
(258,-209,o),
(305,-209,cs)
);
}
);
width = 592;
}
);
note = uni1EB8.ss03;
},
{
glyphname = Gdotaccent.ss03;
kernRight = G;
layers = (
{
hints = (
{
horizontal = 1;
place = (-18, 150);
place = (-18, 150);
type = Stem;
},
{
horizontal = 1;
place = (247, 140);
place = (247, 140);
type = Stem;
},
{
horizontal = 1;
place = (567, 150);
place = (567, 150);
type = Stem;
},
{
horizontal = 1;
place = (741, 171);
place = (741, 171);
type = Stem;
},
{
place = (20, 157);
place = (20, 157);
type = Stem;
},
{
place = (286, 170);
place = (286, 170);
type = Stem;
},
{
place = (533, 158);
place = (533, 158);
type = Stem;
},
{
horizontal = 1;
place = (0, 21);
target = up;
type = BottomGhost;
}
);
layerId = m01;
shapes = (
{
closed = 1;
nodes = (
(419,741,o),
(456,779,o),
(456,827,cs),
(456,875,o),
(419,912,o),
(371,912,cs),
(323,912,o),
(286,875,o),
(286,827,cs),
(286,779,o),
(324,741,o),
(371,741,cs)
);
},
{
closed = 1;
nodes = (
(384,387,l),
(384,247,l),
(533,247,l),
(533,237,ls),
(533,182,o),
(482,132,o),
(378,132,cs),
(261,132,o),
(177,196,o),
(177,347,cs),
(177,491,o),
(254,567,o),
(368,567,cs),
(448,567,o),
(517,528,o),
(545,448,c),
(690,505,l),
(636,644,o),
(509,717,o),
(370,717,cs),
(165,717,o),
(20,559,o),
(20,342,cs),
(20,134,o),
(153,-18,o),
(365,-18,cs),
(451,-18,o),
(522,7,o),
(565,67,c),
(583,0,l),
(691,0,l),
(691,387,l)
);
}
);
width = 738;
}
);
note = Gdotaccent.ss03;
},
{
glyphname = Idieresis.ss03;
layers = (
{
hints = (
{
horizontal = 1;
place = (0, 21);
target = up;
type = BottomGhost;
},
{
horizontal = 1;
place = (697, -20);
target = down;
type = TopGhost;
},
{
horizontal = 1;
place = (741, 171);
place = (741, 171);
type = Stem;
},
{
place = (71, 61);
place = (71, 61);
type = Stem;
},
{
place = (-38, 170);
place = (-38, 170);
type = Stem;
},
{
place = (168, 60);
place = (168, 60);
type = Stem;
},
{
place = (168, 170);
place = (168, 170);
type = Stem;
},
{
place = (71, 157);
place = (71, 157);
type = Stem;
}
);
layerId = m01;
shapes = (
{
closed = 1;
nodes = (
(95,741,o),
(132,779,o),
(132,827,cs),
(132,875,o),
(95,912,o),
(47,912,cs),
(-1,912,o),
(-38,875,o),
(-38,827,cs),
(-38,779,o),
(0,741,o),
(47,741,cs)
);
},
{
closed = 1;
nodes = (
(301,741,o),
(338,779,o),
(338,827,cs),
(338,875,o),
(301,912,o),
(253,912,cs),
(205,912,o),
(168,875,o),
(168,827,cs),
(168,779,o),
(206,741,o),
(253,741,cs)
);
},
{
closed = 1;
nodes = (
(71,0,l),
(228,0,l),
(228,697,l),
(71,697,l)
);
}
);
width = 299;
}
);
note = Idieresis.ss03;
},
{
glyphname = uni1ECA.ss03;
layers = (
{
hints = (
{
horizontal = 1;
place = (-209, 171);
place = (-209, 171);
type = Stem;
},
{
horizontal = 1;
place = (0, 21);
target = up;
type = BottomGhost;
},
{
horizontal = 1;
place = (697, -20);
target = down;
type = TopGhost;
},
{
place = (71, 157);
place = (71, 157);
type = Stem;
}
);
layerId = m01;
shapes = (
{
closed = 1;
nodes = (
(71,0,l),
(228,0,l),
(228,697,l),
(71,697,l)
);
},
{
closed = 1;
nodes = (
(198,-209,o),
(235,-171,o),
(235,-123,cs),
(235,-75,o),
(198,-38,o),
(150,-38,cs),
(102,-38,o),
(65,-75,o),
(65,-123,cs),
(65,-171,o),
(103,-209,o),
(150,-209,cs)
);
}
);
width = 299;
}
);
note = uni1ECA.ss03;
},
{
glyphname = uni1ED8.ss03;
layers = (
{
hints = (
{
horizontal = 1;
place = (-18, 150);
place = (-18, 150);
type = Stem;
},
{
horizontal = 1;
place = (565, 150);
place = (565, 150);
type = Stem;
},
{
place = (21, 157);
place = (21, 157);
type = Stem;
},
{
place = (546, 158);
place = (546, 158);
type = Stem;
},
{
horizontal = 1;
place = (-209, 171);
place = (-209, 171);
type = Stem;
},
{
place = (278, 170);
place = (278, 170);
type = Stem;
}
);
layerId = m01;
shapes = (
{
closed = 1;
nodes = (
(202,741,l),
(316,741,l),
(362,797,l),
(408,741,l),
(522,741,l),
(362,924,l)
);
},
{
closed = 1;
nodes = (
(564,-18,o),
(704,128,o),
(704,348,cs),
(704,569,o),
(566,715,o),
(362,715,cs),
(160,715,o),
(21,568,o),
(21,348,cs),
(21,129,o),
(160,-18,o),
(362,-18,cs)
);
},
{
closed = 1;
nodes = (
(250,132,o),
(178,213,o),
(178,348,cs),
(178,484,o),
(250,565,o),
(362,565,cs),
(475,565,o),
(546,482,o),
(546,348,cs),
(546,215,o),
(475,132,o),
(362,132,cs)
);
},
{
closed = 1;
nodes = (
(411,-209,o),
(448,-171,o),
(448,-123,cs),
(448,-75,o),
(411,-38,o),
(363,-38,cs),
(315,-38,o),
(278,-75,o),
(278,-123,cs),
(278,-171,o),
(316,-209,o),
(363,-209,cs)
);
}
);
width = 725;
}
);
note = uni1ED8.ss03;
},
{
glyphname = Odieresis.ss03;
layers = (
{
hints = (
{
horizontal = 1;
place = (-18, 150);
place = (-18, 150);
type = Stem;
},
{
horizontal = 1;
place = (565, 150);
place = (565, 150);
type = Stem;
},
{
horizontal = 1;
place = (741, 171);
place = (741, 171);
type = Stem;
},
{
place = (174, 170);
place = (174, 170);
type = Stem;
},
{
place = (380, 170);
place = (380, 170);
type = Stem;
},
{
place = (21, 157);
place = (21, 157);
type = Stem;
},
{
place = (546, 158);
place = (546, 158);
type = Stem;
}
);
layerId = m01;
shapes = (
{
closed = 1;
nodes = (
(307,741,o),
(344,779,o),
(344,827,cs),
(344,875,o),
(307,912,o),
(259,912,cs),
(211,912,o),
(174,875,o),
(174,827,cs),
(174,779,o),
(212,741,o),
(259,741,cs)
);
},
{
closed = 1;
nodes = (
(513,741,o),
(550,779,o),
(550,827,cs),
(550,875,o),
(513,912,o),
(465,912,cs),
(417,912,o),
(380,875,o),
(380,827,cs),
(380,779,o),
(418,741,o),
(465,741,cs)
);
},
{
closed = 1;
nodes = (
(564,-18,o),
(704,128,o),
(704,348,cs),
(704,569,o),
(566,715,o),
(362,715,cs),
(160,715,o),
(21,568,o),
(21,348,cs),
(21,129,o),
(160,-18,o),
(362,-18,cs)
);
},
{
closed = 1;
nodes = (
(250,132,o),
(178,213,o),
(178,348,cs),
(178,484,o),
(250,565,o),
(362,565,cs),
(475,565,o),
(546,482,o),
(546,348,cs),
(546,215,o),
(475,132,o),
(362,132,cs)
);
}
);
width = 725;
}
);
note = Odieresis.ss03;
},
{
glyphname = uni1ECC.ss03;
layers = (
{
hints = (
{
horizontal = 1;
place = (-18, 150);
place = (-18, 150);
type = Stem;
},
{
horizontal = 1;
place = (565, 150);
place = (565, 150);
type = Stem;
},
{
place = (21, 157);
place = (21, 157);
type = Stem;
},
{
place = (546, 158);
place = (546, 158);
type = Stem;
},
{
horizontal = 1;
place = (-209, 171);
place = (-209, 171);
type = Stem;
},
{
place = (278, 170);
place = (278, 170);
type = Stem;
}
);
layerId = m01;
shapes = (
{
closed = 1;
nodes = (
(564,-18,o),
(704,128,o),
(704,348,cs),
(704,569,o),
(566,715,o),
(362,715,cs),
(160,715,o),
(21,568,o),
(21,348,cs),
(21,129,o),
(160,-18,o),
(362,-18,cs)
);
},
{
closed = 1;
nodes = (
(250,132,o),
(178,213,o),
(178,348,cs),
(178,484,o),
(250,565,o),
(362,565,cs),
(475,565,o),
(546,482,o),
(546,348,cs),
(546,215,o),
(475,132,o),
(362,132,cs)
);
},
{
closed = 1;
nodes = (
(411,-209,o),
(448,-171,o),
(448,-123,cs),
(448,-75,o),
(411,-38,o),
(363,-38,cs),
(315,-38,o),
(278,-75,o),
(278,-123,cs),
(278,-171,o),
(316,-209,o),
(363,-209,cs)
);
}
);
width = 725;
}
);
note = uni1ECC.ss03;
},
{
glyphname = uni1EE2.ss03;
layers = (
{
hints = (
{
horizontal = 1;
place = (-18, 150);
place = (-18, 150);
type = Stem;
},
{
horizontal = 1;
place = (697, -20);
target = down;
type = TopGhost;
},
{
place = (21, 157);
place = (21, 157);
type = Stem;
},
{
place = (278, 170);
place = (278, 170);
type = Stem;
},
{
place = (653, 104);
place = (653, 104);
type = Stem;
},
{
horizontal = 1;
place = (565, 150);
place = (565, 150);
type = Stem;
},
{
place = (546, 158);
place = (546, 158);
type = Stem;
},
{
horizontal = 1;
place = (-209, 171);
place = (-209, 171);
type = Stem;
}
);
layerId = m01;
shapes = (
{
closed = 1;
nodes = (
(653,697,l),
(653,672,ls),
(653,635,o),
(646,609,o),
(625,597,c),
(564,672,o),
(473,715,o),
(362,715,cs),
(160,715,o),
(21,568,o),
(21,348,cs),
(21,129,o),
(160,-18,o),
(362,-18,cs),
(564,-18,o),
(704,128,o),
(704,348,cs),
(704,408,o),
(694,462,o),
(675,509,c),
(733,538,o),
(757,599,o),
(757,663,cs),
(757,697,l)
);
},
{
closed = 1;
nodes = (
(250,132,o),
(178,213,o),
(178,348,cs),
(178,484,o),
(250,565,o),
(362,565,cs),
(475,565,o),
(546,482,o),
(546,348,cs),
(546,215,o),
(475,132,o),
(362,132,cs)
);
},
{
closed = 1;
nodes = (
(315,-38,o),
(278,-75,o),
(278,-123,cs),
(278,-171,o),
(316,-209,o),
(363,-209,cs),
(411,-209,o),
(448,-171,o),
(448,-123,cs),
(448,-75,o),
(411,-38,o),
(363,-38,cs)
);
}
);
width = 725;
}
);
note = uni1EE2.ss03;
},
{
glyphname = Udieresis.ss03;
kernLeft = U;
layers = (
{
hints = (
{
horizontal = 1;
place = (-18, 144);
place = (-18, 144);
type = Stem;
},
{
horizontal = 1;
place = (697, -20);
target = down;
type = TopGhost;
},
{
horizontal = 1;
place = (741, 171);
place = (741, 171);
type = Stem;
},
{
place = (145, 68);
place = (145, 68);
type = Stem;
},
{
place = (451, 157);
place = (451, 157);
type = Stem;
},
{
place = (145, 170);
place = (145, 170);
type = Stem;
},
{
place = (56, 157);
place = (56, 157);
type = Stem;
},
{
place = (451, 70);
place = (451, 70);
type = Stem;
},
{
place = (351, 170);
place = (351, 170);
type = Stem;
}
);
layerId = m01;
shapes = (
{
closed = 1;
nodes = (
(278,741,o),
(315,779,o),
(315,827,cs),
(315,875,o),
(278,912,o),
(230,912,cs),
(182,912,o),
(145,875,o),
(145,827,cs),
(145,779,o),
(183,741,o),
(230,741,cs)
);
},
{
closed = 1;
nodes = (
(484,741,o),
(521,779,o),
(521,827,cs),
(521,875,o),
(484,912,o),
(436,912,cs),
(388,912,o),
(351,875,o),
(351,827,cs),
(351,779,o),
(389,741,o),
(436,741,cs)
);
},
{
closed = 1;
nodes = (
(514,-18,o),
(608,72,o),
(608,257,cs),
(608,697,l),
(451,697,l),
(451,268,ls),
(451,174,o),
(432,126,o),
(332,126,cs),
(231,126,o),
(213,173,o),
(213,270,cs),
(213,697,l),
(56,697,l),
(56,252,ls),
(56,70,o),
(149,-18,o),
(332,-18,cs)
);
}
);
width = 664;
}
);
note = Udieresis.ss03;
},
{
glyphname = uni01D7.ss03;
kernLeft = U;
layers = (
{
hints = (
{
horizontal = 1;
place = (-18, 144);
place = (-18, 144);
type = Stem;
},
{
horizontal = 1;
place = (697, -20);
target = down;
type = TopGhost;
},
{
horizontal = 1;
place = (741, 171);
place = (741, 171);
type = Stem;
},
{
horizontal = 1;
place = (973, 143);
place = (973, 143);
type = Stem;
},
{
place = (56, 157);
place = (56, 157);
type = Stem;
},
{
place = (451, 157);
place = (451, 157);
type = Stem;
},
{
place = (145, 68);
place = (145, 68);
type = Stem;
},
{
place = (145, 170);
place = (145, 170);
type = Stem;
},
{
place = (451, 70);
place = (451, 70);
type = Stem;
},
{
place = (351, 170);
place = (351, 170);
type = Stem;
}
);
layerId = m01;
shapes = (
{
closed = 1;
nodes = (
(278,973,l),
(387,973,l),
(553,1116,l),
(391,1116,l)
);
},
{
closed = 1;
nodes = (
(278,741,o),
(315,779,o),
(315,827,cs),
(315,875,o),
(278,912,o),
(230,912,cs),
(182,912,o),
(145,875,o),
(145,827,cs),
(145,779,o),
(183,741,o),
(230,741,cs)
);
},
{
closed = 1;
nodes = (
(484,741,o),
(521,779,o),
(521,827,cs),
(521,875,o),
(484,912,o),
(436,912,cs),
(388,912,o),
(351,875,o),
(351,827,cs),
(351,779,o),
(389,741,o),
(436,741,cs)
);
},
{
closed = 1;
nodes = (
(514,-18,o),
(608,72,o),
(608,257,cs),
(608,697,l),
(451,697,l),
(451,268,ls),
(451,174,o),
(432,126,o),
(332,126,cs),
(231,126,o),
(213,173,o),
(213,270,cs),
(213,697,l),
(56,697,l),
(56,252,ls),
(56,70,o),
(149,-18,o),
(332,-18,cs)
);
}
);
width = 664;
}
);
note = uni01D7.ss03;
},
{
glyphname = uni01D9.ss03;
kernLeft = U;
layers = (
{
hints = (
{
horizontal = 1;
place = (-18, 144);
place = (-18, 144);
type = Stem;
},
{
horizontal = 1;
place = (697, -20);
target = down;
type = TopGhost;
},
{
horizontal = 1;
place = (741, 171);
place = (741, 171);
type = Stem;
},
{
place = (56, 157);
place = (56, 157);
type = Stem;
},
{
place = (451, 157);
place = (451, 157);
type = Stem;
},
{
place = (145, 68);
place = (145, 68);
type = Stem;
},
{
place = (145, 170);
place = (145, 170);
type = Stem;
},
{
place = (451, 70);
place = (451, 70);
type = Stem;
},
{
place = (351, 170);
place = (351, 170);
type = Stem;
}
);
layerId = m01;
shapes = (
{
closed = 1;
nodes = (
(333,945,l),
(493,1116,l),
(379,1116,l),
(333,1066,l),
(288,1116,l),
(173,1116,l)
);
},
{
closed = 1;
nodes = (
(278,741,o),
(315,779,o),
(315,827,cs),
(315,875,o),
(278,912,o),
(230,912,cs),
(182,912,o),
(145,875,o),
(145,827,cs),
(145,779,o),
(183,741,o),
(230,741,cs)
);
},
{
closed = 1;
nodes = (
(484,741,o),
(521,779,o),
(521,827,cs),
(521,875,o),
(484,912,o),
(436,912,cs),
(388,912,o),
(351,875,o),
(351,827,cs),
(351,779,o),
(389,741,o),
(436,741,cs)
);
},
{
closed = 1;
nodes = (
(514,-18,o),
(608,72,o),
(608,257,cs),
(608,697,l),
(451,697,l),
(451,268,ls),
(451,174,o),
(432,126,o),
(332,126,cs),
(231,126,o),
(213,173,o),
(213,270,cs),
(213,697,l),
(56,697,l),
(56,252,ls),
(56,70,o),
(149,-18,o),
(332,-18,cs)
);
}
);
width = 664;
}
);
note = uni01D9.ss03;
},
{
glyphname = uni01DB.ss03;
kernLeft = U;
layers = (
{
hints = (
{
horizontal = 1;
place = (-18, 144);
place = (-18, 144);
type = Stem;
},
{
horizontal = 1;
place = (697, -20);
target = down;
type = TopGhost;
},
{
horizontal = 1;
place = (741, 171);
place = (741, 171);
type = Stem;
},
{
horizontal = 1;
place = (973, 143);
place = (973, 143);
type = Stem;
},
{
place = (56, 157);
place = (56, 157);
type = Stem;
},
{
place = (451, 157);
place = (451, 157);
type = Stem;
},
{
place = (145, 68);
place = (145, 68);
type = Stem;
},
{
place = (145, 170);
place = (145, 170);
type = Stem;
},
{
place = (451, 70);
place = (451, 70);
type = Stem;
},
{
place = (351, 170);
place = (351, 170);
type = Stem;
}
);
layerId = m01;
shapes = (
{
closed = 1;
nodes = (
(277,973,l),
(388,973,l),
(284,1116,l),
(124,1116,l)
);
},
{
closed = 1;
nodes = (
(278,741,o),
(315,779,o),
(315,827,cs),
(315,875,o),
(278,912,o),
(230,912,cs),
(182,912,o),
(145,875,o),
(145,827,cs),
(145,779,o),
(183,741,o),
(230,741,cs)
);
},
{
closed = 1;
nodes = (
(484,741,o),
(521,779,o),
(521,827,cs),
(521,875,o),
(484,912,o),
(436,912,cs),
(388,912,o),
(351,875,o),
(351,827,cs),
(351,779,o),
(389,741,o),
(436,741,cs)
);
},
{
closed = 1;
nodes = (
(514,-18,o),
(608,72,o),
(608,257,cs),
(608,697,l),
(451,697,l),
(451,268,ls),
(451,174,o),
(432,126,o),
(332,126,cs),
(231,126,o),
(213,173,o),
(213,270,cs),
(213,697,l),
(56,697,l),
(56,252,ls),
(56,70,o),
(149,-18,o),
(332,-18,cs)
);
}
);
width = 664;
}
);
note = uni01DB.ss03;
},
{
glyphname = uni01D5.ss03;
kernLeft = U;
layers = (
{
hints = (
{
horizontal = 1;
place = (-18, 144);
place = (-18, 144);
type = Stem;
},
{
horizontal = 1;
place = (697, -20);
target = down;
type = TopGhost;
},
{
horizontal = 1;
place = (741, 171);
place = (741, 171);
type = Stem;
},
{
horizontal = 1;
place = (965, 87);
place = (965, 87);
type = Stem;
},
{
place = (194, 278);
place = (194, 278);
type = Stem;
},
{
place = (145, 68);
place = (145, 68);
type = Stem;
},
{
place = (451, 157);
place = (451, 157);
type = Stem;
},
{
place = (145, 170);
place = (145, 170);
type = Stem;
},
{
place = (56, 157);
place = (56, 157);
type = Stem;
},
{
place = (451, 70);
place = (451, 70);
type = Stem;
},
{
place = (351, 170);
place = (351, 170);
type = Stem;
}
);
layerId = m01;
shapes = (
{
closed = 1;
nodes = (
(194,965,l),
(472,965,l),
(472,1052,l),
(194,1052,l)
);
},
{
closed = 1;
nodes = (
(278,741,o),
(315,779,o),
(315,827,cs),
(315,875,o),
(278,912,o),
(230,912,cs),
(182,912,o),
(145,875,o),
(145,827,cs),
(145,779,o),
(183,741,o),
(230,741,cs)
);
},
{
closed = 1;
nodes = (
(484,741,o),
(521,779,o),
(521,827,cs),
(521,875,o),
(484,912,o),
(436,912,cs),
(388,912,o),
(351,875,o),
(351,827,cs),
(351,779,o),
(389,741,o),
(436,741,cs)
);
},
{
closed = 1;
nodes = (
(514,-18,o),
(608,72,o),
(608,257,cs),
(608,697,l),
(451,697,l),
(451,268,ls),
(451,174,o),
(432,126,o),
(332,126,cs),
(231,126,o),
(213,173,o),
(213,270,cs),
(213,697,l),
(56,697,l),
(56,252,ls),
(56,70,o),
(149,-18,o),
(332,-18,cs)
);
}
);
width = 664;
}
);
note = uni01D5.ss03;
},
{
glyphname = uni1EE4.ss03;
kernLeft = U;
layers = (
{
hints = (
{
horizontal = 1;
place = (-18, 144);
place = (-18, 144);
type = Stem;
},
{
horizontal = 1;
place = (697, -20);
target = down;
type = TopGhost;
},
{
place = (56, 157);
place = (56, 157);
type = Stem;
},
{
place = (451, 157);
place = (451, 157);
type = Stem;
},
{
horizontal = 1;
place = (-209, 171);
place = (-209, 171);
type = Stem;
},
{
place = (248, 170);
place = (248, 170);
type = Stem;
}
);
layerId = m01;
shapes = (
{
closed = 1;
nodes = (
(514,-18,o),
(608,72,o),
(608,257,cs),
(608,697,l),
(451,697,l),
(451,268,ls),
(451,174,o),
(432,126,o),
(332,126,cs),
(231,126,o),
(213,173,o),
(213,270,cs),
(213,697,l),
(56,697,l),
(56,252,ls),
(56,70,o),
(149,-18,o),
(332,-18,cs)
);
},
{
closed = 1;
nodes = (
(381,-209,o),
(418,-171,o),
(418,-123,cs),
(418,-75,o),
(381,-38,o),
(333,-38,cs),
(285,-38,o),
(248,-75,o),
(248,-123,cs),
(248,-171,o),
(286,-209,o),
(333,-209,cs)
);
}
);
width = 664;
}
);
note = uni1EE4.ss03;
},
{
glyphname = uni1EF0.ss03;
kernLeft = U;
layers = (
{
hints = (
{
horizontal = 1;
place = (-18, 144);
place = (-18, 144);
type = Stem;
},
{
horizontal = 1;
place = (697, -20);
target = down;
type = TopGhost;
},
{
place = (56, 157);
place = (56, 157);
type = Stem;
},
{
place = (248, 170);
place = (248, 170);
type = Stem;
},
{
place = (451, 157);
place = (451, 157);
type = Stem;
},
{
place = (661, 104);
place = (661, 104);
type = Stem;
},
{
horizontal = 1;
place = (-209, 171);
place = (-209, 171);
type = Stem;
}
);
layerId = m01;
shapes = (
{
closed = 1;
nodes = (
(661,697,l),
(661,672,ls),
(661,624,o),
(649,594,o),
(608,589,c),
(608,697,l),
(451,697,l),
(451,268,ls),
(451,174,o),
(432,126,o),
(332,126,cs),
(231,126,o),
(213,173,o),
(213,270,cs),
(213,697,l),
(56,697,l),
(56,252,ls),
(56,70,o),
(149,-18,o),
(332,-18,cs),
(514,-18,o),
(608,72,o),
(608,257,cs),
(608,491,l),
(722,496,o),
(765,576,o),
(765,663,cs),
(765,697,l)
);
},
{
closed = 1;
nodes = (
(285,-38,o),
(248,-75,o),
(248,-123,cs),
(248,-171,o),
(286,-209,o),
(333,-209,cs),
(381,-209,o),
(418,-171,o),
(418,-123,cs),
(418,-75,o),
(381,-38,o),
(333,-38,cs)
);
}
);
width = 664;
}
);
note = uni1EF0.ss03;
},
{
glyphname = Wdieresis.ss03;
kernLeft = W;
kernRight = W;
layers = (
{
hints = (
{
horizontal = 1;
place = (0, 21);
target = up;
type = BottomGhost;
},
{
horizontal = 1;
place = (697, -20);
target = down;
type = TopGhost;
},
{
horizontal = 1;
place = (741, 171);
place = (741, 171);
type = Stem;
},
{
place = (305, 170);
place = (305, 170);
type = Stem;
},
{
place = (511, 170);
place = (511, 170);
type = Stem;
}
);
layerId = m01;
shapes = (
{
closed = 1;
nodes = (
(438,741,o),
(475,779,o),
(475,827,cs),
(475,875,o),
(438,912,o),
(390,912,cs),
(342,912,o),
(305,875,o),
(305,827,cs),
(305,779,o),
(343,741,o),
(390,741,cs)
);
},
{
closed = 1;
nodes = (
(644,741,o),
(681,779,o),
(681,827,cs),
(681,875,o),
(644,912,o),
(596,912,cs),
(548,912,o),
(511,875,o),
(511,827,cs),
(511,779,o),
(549,741,o),
(596,741,cs)
);
},
{
closed = 1;
nodes = (
(206,0,l),
(357,0,l),
(493,406,l),
(628,0,l),
(780,0,l),
(994,697,l),
(829,697,l),
(696,242,l),
(559,655,l),
(426,655,l),
(291,242,l),
(157,697,l),
(-7,697,l)
);
}
);
width = 986;
}
);
note = Wdieresis.ss03;
},
{
glyphname = Ydieresis.ss03;
kernLeft = Y;
kernRight = Y;
layers = (
{
hints = (
{
horizontal = 1;
place = (0, 21);
target = up;
type = BottomGhost;
},
{
horizontal = 1;
place = (697, -20);
target = down;
type = TopGhost;
},
{
horizontal = 1;
place = (741, 171);
place = (741, 171);
type = Stem;
},
{
place = (133, 170);
place = (133, 170);
type = Stem;
},
{
place = (339, 170);
place = (339, 170);
type = Stem;
},
{
place = (243, 157);
place = (243, 157);
type = Stem;
}
);
layerId = m01;
shapes = (
{
closed = 1;
nodes = (
(266,741,o),
(303,779,o),
(303,827,cs),
(303,875,o),
(266,912,o),
(218,912,cs),
(170,912,o),
(133,875,o),
(133,827,cs),
(133,779,o),
(171,741,o),
(218,741,cs)
);
},
{
closed = 1;
nodes = (
(472,741,o),
(509,779,o),
(509,827,cs),
(509,875,o),
(472,912,o),
(424,912,cs),
(376,912,o),
(339,875,o),
(339,827,cs),
(339,779,o),
(377,741,o),
(424,741,cs)
);
},
{
closed = 1;
nodes = (
(243,0,l),
(400,0,l),
(400,275,l),
(661,697,l),
(476,697,l),
(318,426,l),
(164,697,l),
(-21,697,l),
(243,275,l)
);
}
);
width = 641;
}
);
note = Ydieresis.ss03;
},
{
glyphname = uni1EF4.ss03;
kernLeft = Y;
kernRight = Y;
layers = (
{
hints = (
{
horizontal = 1;
place = (-209, 171);
place = (-209, 171);
type = Stem;
},
{
horizontal = 1;
place = (0, 21);
target = up;
type = BottomGhost;
},
{
horizontal = 1;
place = (697, -20);
target = down;
type = TopGhost;
},
{
place = (243, 157);
place = (243, 157);
type = Stem;
},
{
place = (236, 170);
place = (236, 170);
type = Stem;
}
);
layerId = m01;
shapes = (
{
closed = 1;
nodes = (
(243,0,l),
(400,0,l),
(400,275,l),
(661,697,l),
(476,697,l),
(318,426,l),
(164,697,l),
(-21,697,l),
(243,275,l)
);
},
{
closed = 1;
nodes = (
(369,-209,o),
(406,-171,o),
(406,-123,cs),
(406,-75,o),
(369,-38,o),
(321,-38,cs),
(273,-38,o),
(236,-75,o),
(236,-123,cs),
(236,-171,o),
(274,-209,o),
(321,-209,cs)
);
}
);
width = 641;
}
);
note = uni1EF4.ss03;
},
{
glyphname = Zdotaccent.ss03;
kernLeft = Z;
kernRight = Z;
layers = (
{
hints = (
{
horizontal = 1;
place = (0, 144);
place = (0, 144);
type = Stem;
},
{
horizontal = 1;
place = (553, 144);
place = (553, 144);
type = Stem;
},
{
horizontal = 1;
place = (741, 171);
place = (741, 171);
type = Stem;
},
{
place = (219, 170);
place = (219, 170);
type = Stem;
}
);
layerId = m01;
shapes = (
{
closed = 1;
nodes = (
(352,741,o),
(389,779,o),
(389,827,cs),
(389,875,o),
(352,912,o),
(304,912,cs),
(256,912,o),
(219,875,o),
(219,827,cs),
(219,779,o),
(257,741,o),
(304,741,cs)
);
},
{
closed = 1;
nodes = (
(231,144,l),
(584,585,l),
(584,697,l),
(38,697,l),
(38,553,l),
(373,553,l),
(15,107,l),
(15,0,l),
(585,0,l),
(585,144,l)
);
}
);
width = 608;
}
);
note = Zdotaccent.ss03;
},
{
glyphname = a;
kernLeft = a;
kernRight = a;
lastChange = "2022-12-23 03:38:57 +0000";
layers = (
{
hints = (
{
horizontal = 1;
place = (0, 21);
target = up;
type = BottomGhost;
},
{
horizontal = 1;
place = (194, 111);
place = (194, 111);
type = Stem;
},
{
horizontal = 1;
place = (373, 131);
place = (373, 131);
type = Stem;
},
{
place = (13, 151);
place = (13, 151);
type = Stem;
},
{
place = (331, 150);
place = (331, 150);
type = Stem;
},
{
horizontal = 1;
place = (-11, 121);
place = (-11, 121);
type = Stem;
}
);
layerId = m01;
shapes = (
{
closed = 1;
nodes = (
(177,504,o),
(92,480,o),
(31,424,cs),
(23,417,o),
(23,407,o),
(31,400,cs),
(127,320,l),
(171,362,o),
(209,373,o),
(246,373,cs),
(301,373,o),
(331,348,o),
(331,313,cs),
(331,305,l),
(195,305,ls),
(151,305,o),
(112,297,o),
(81,280,cs),
(39,257,o),
(13,216,o),
(13,159,cs),
(13,58,o),
(93,-11,o),
(204,-11,cs),
(240,-11,o),
(293,-4,o),
(333,49,c),
(359,0,l),
(413,0,l),
(481,67,l),
(481,313,ls),
(481,430,o),
(397,504,o),
(257,504,cs)
);
},
{
closed = 1;
nodes = (
(185,110,o),
(164,131,o),
(164,156,cs),
(164,168,o),
(169,178,o),
(179,185,cs),
(188,191,o),
(201,194,o),
(217,194,cs),
(331,194,l),
(328,145,o),
(282,110,o),
(228,110,cs)
);
}
);
width = 523;
}
);
note = a;
unicode = 97;
},
{
glyphname = aacute;
kernLeft = a;
kernRight = a;
layers = (
{
hints = (
{
horizontal = 1;
place = (0, 21);
target = up;
type = BottomGhost;
},
{
horizontal = 1;
place = (194, 111);
place = (194, 111);
type = Stem;
},
{
horizontal = 1;
place = (373, 131);
place = (373, 131);
type = Stem;
},
{
horizontal = 1;
place = (554, 143);
place = (554, 143);
type = Stem;
},
{
place = (13, 151);
place = (13, 151);
type = Stem;
},
{
place = (331, 150);
place = (331, 150);
type = Stem;
},
{
horizontal = 1;
place = (-11, 121);
place = (-11, 121);
type = Stem;
}
);
layerId = m01;
shapes = (
{
closed = 1;
nodes = (
(475,697,l),
(313,697,l),
(200,554,l),
(309,554,l)
);
},
{
closed = 1;
nodes = (
(171,504,o),
(80,476,o),
(18,411,c),
(127,320,l),
(171,362,o),
(209,373,o),
(246,373,cs),
(301,373,o),
(331,348,o),
(331,313,cs),
(331,305,l),
(195,305,ls),
(151,305,o),
(112,297,o),
(81,280,cs),
(39,257,o),
(13,216,o),
(13,159,cs),
(13,58,o),
(93,-11,o),
(204,-11,cs),
(240,-11,o),
(293,-4,o),
(333,49,c),
(343,0,l),
(481,0,l),
(481,313,ls),
(481,430,o),
(397,504,o),
(257,504,cs)
);
},
{
closed = 1;
nodes = (
(185,110,o),
(164,131,o),
(164,156,cs),
(164,168,o),
(169,178,o),
(179,185,cs),
(188,191,o),
(201,194,o),
(217,194,cs),
(331,194,l),
(328,145,o),
(282,110,o),
(228,110,cs)
);
}
);
width = 523;
}
);
note = aacute;
unicode = 225;
},
{
glyphname = abreve;
kernLeft = a;
kernRight = a;
layers = (
{
hints = (
{
horizontal = 1;
place = (0, 21);
target = up;
type = BottomGhost;
},
{
horizontal = 1;
place = (194, 111);
place = (194, 111);
type = Stem;
},
{
horizontal = 1;
place = (373, 131);
place = (373, 131);
type = Stem;
},
{
horizontal = 1;
place = (563, 134);
place = (563, 134);
type = Stem;
},
{
place = (96, 106);
place = (96, 106);
type = Stem;
},
{
place = (331, 150);
place = (331, 150);
type = Stem;
},
{
place = (308, 106);
place = (308, 106);
type = Stem;
},
{
horizontal = 1;
place = (563, 87);
place = (563, 87);
type = Stem;
},
{
horizontal = 1;
place = (-11, 121);
place = (-11, 121);
type = Stem;
},
{
place = (13, 151);
place = (13, 151);
type = Stem;
}
);
layerId = m01;
shapes = (
{
closed = 1;
nodes = (
(361,563,o),
(414,605,o),
(414,697,c),
(308,697,l),
(308,666,o),
(283,650,o),
(255,650,cs),
(229,650,o),
(202,664,o),
(202,697,c),
(96,697,l),
(96,611,o),
(143,563,o),
(255,563,cs)
);
},
{
closed = 1;
nodes = (
(171,504,o),
(80,476,o),
(18,411,c),
(127,320,l),
(171,362,o),
(209,373,o),
(246,373,cs),
(301,373,o),
(331,348,o),
(331,313,cs),
(331,305,l),
(195,305,ls),
(151,305,o),
(112,297,o),
(81,280,cs),
(39,257,o),
(13,216,o),
(13,159,cs),
(13,58,o),
(93,-11,o),
(204,-11,cs),
(240,-11,o),
(293,-4,o),
(333,49,c),
(343,0,l),
(481,0,l),
(481,313,ls),
(481,430,o),
(397,504,o),
(257,504,cs)
);
},
{
closed = 1;
nodes = (
(185,110,o),
(164,131,o),
(164,156,cs),
(164,168,o),
(169,178,o),
(179,185,cs),
(188,191,o),
(201,194,o),
(217,194,cs),
(331,194,l),
(328,145,o),
(282,110,o),
(228,110,cs)
);
}
);
width = 523;
}
);
note = abreve;
unicode = 259;
},
{
glyphname = uni1EAF;
kernLeft = a;
kernRight = a;
layers = (
{
hints = (
{
horizontal = 1;
place = (0, 21);
target = up;
type = BottomGhost;
},
{
horizontal = 1;
place = (194, 111);
place = (194, 111);
type = Stem;
},
{
horizontal = 1;
place = (373, 131);
place = (373, 131);
type = Stem;
},
{
horizontal = 1;
place = (563, 134);
place = (563, 134);
type = Stem;
},
{
horizontal = 1;
place = (758, 143);
place = (758, 143);
type = Stem;
},
{
place = (96, 106);
place = (96, 106);
type = Stem;
},
{
place = (331, 150);
place = (331, 150);
type = Stem;
},
{
place = (308, 106);
place = (308, 106);
type = Stem;
},
{
horizontal = 1;
place = (563, 87);
place = (563, 87);
type = Stem;
},
{
horizontal = 1;
place = (-11, 121);
place = (-11, 121);
type = Stem;
},
{
place = (13, 151);
place = (13, 151);
type = Stem;
}
);
layerId = m01;
shapes = (
{
closed = 1;
nodes = (
(475,901,l),
(313,901,l),
(200,758,l),
(309,758,l)
);
},
{
closed = 1;
nodes = (
(361,563,o),
(414,605,o),
(414,697,c),
(308,697,l),
(308,666,o),
(283,650,o),
(255,650,cs),
(229,650,o),
(202,664,o),
(202,697,c),
(96,697,l),
(96,611,o),
(143,563,o),
(255,563,cs)
);
},
{
closed = 1;
nodes = (
(171,504,o),
(80,476,o),
(18,411,c),
(127,320,l),
(171,362,o),
(209,373,o),
(246,373,cs),
(301,373,o),
(331,348,o),
(331,313,cs),
(331,305,l),
(195,305,ls),
(151,305,o),
(112,297,o),
(81,280,cs),
(39,257,o),
(13,216,o),
(13,159,cs),
(13,58,o),
(93,-11,o),
(204,-11,cs),
(240,-11,o),
(293,-4,o),
(333,49,c),
(343,0,l),
(481,0,l),
(481,313,ls),
(481,430,o),
(397,504,o),
(257,504,cs)
);
},
{
closed = 1;
nodes = (
(185,110,o),
(164,131,o),
(164,156,cs),
(164,168,o),
(169,178,o),
(179,185,cs),
(188,191,o),
(201,194,o),
(217,194,cs),
(331,194,l),
(328,145,o),
(282,110,o),
(228,110,cs)
);
}
);
width = 523;
}
);
note = uni1EAF;
unicode = 7855;
},
